<?xml version="1.0" encoding="us-ascii" standalone="no"?><svg xmlns="http://www.w3.org/2000/svg" xmlns:xlink="http://www.w3.org/1999/xlink" contentStyleType="text/css" height="103166.6667px" preserveAspectRatio="none" style="width:71354px;height:103166px;background:#000000;" version="1.1" viewBox="0 0 71354 103166" width="71354.1667px" zoomAndPan="magnify"><defs><linearGradient id="glho0mkou6yxi0" x1="50%" x2="50%" y1="0%" y2="100%"><stop offset="0%" stop-color="#4DABF5"/><stop offset="100%" stop-color="#2196F3"/></linearGradient><filter height="300%" id="flho0mkou6yxi" width="300%" x="-1" y="-1"><feGaussianBlur result="blurOut" stdDeviation="2.0833333333333335"/><feColorMatrix in="blurOut" result="blurOut2" type="matrix" values="0 0 0 0 0 0 0 0 0 0 0 0 0 0 0 0 0 0 .4 0"/><feOffset dx="4.166666666666667" dy="4.166666666666667" in="blurOut2" result="blurOut3"/><feBlend in="SourceGraphic" in2="blurOut3" mode="normal"/></filter><linearGradient id="glho0mkou6yxi1" x1="50%" x2="50%" y1="0%" y2="100%"><stop offset="0%" stop-color="#2196F3"/><stop offset="100%" stop-color="#1A78C2"/></linearGradient></defs><g><!--class store--><g id="elem_store"><rect codeLine="46" fill="url(#glho0mkou6yxi0)" filter="url(#flho0mkou6yxi)" height="5159.6313" id="store" rx="4.1667" ry="4.1667" style="stroke:#2196F3;stroke-width:1.0416666666666667;" width="7590.625" x="29902.6042" y="17.7083"/><rect fill="url(#glho0mkou6yxi1)" height="1036.9263" rx="4.1667" ry="4.1667" style="stroke:url(#glho0mkou6yxi1);stroke-width:1.0416666666666667;" width="7590.625" x="29902.6042" y="17.7083"/><rect fill="url(#glho0mkou6yxi1)" height="4.1667" style="stroke:url(#glho0mkou6yxi1);stroke-width:1.0416666666666667;" width="7590.625" x="29902.6042" y="1050.4679"/><rect codeLine="46" fill="none" height="5159.6313" id="store" rx="4.1667" ry="4.1667" style="stroke:#2196F3;stroke-width:1.0416666666666667;" width="7590.625" x="29902.6042" y="17.7083"/><ellipse cx="32769.0104" cy="536.1715" fill="none" rx="11.4583" ry="11.4583" style="stroke:#1A78C2;stroke-width:1.0416666666666667;"/><path d="M32767.8223,537.0015 L32767.8223,539.6057 L32772.3307,539.6057 L32772.3307,538.6454 Q32772.3307,538.0107 32772.5749,537.734 Q32772.8353,537.4573 32773.2259,537.4573 Q32773.6165,537.4573 32773.8607,537.734 Q32774.1048,538.0107 32774.1048,538.6454 L32774.1048,541.3798 L32765.7715,541.3798 Q32765.1204,541.3798 32764.8438,541.1357 Q32764.5833,540.8915 32764.5833,540.4846 Q32764.5833,540.094 32764.86,539.8499 Q32765.1367,539.6057 32765.7715,539.6057 L32766.0482,539.6057 L32766.0482,532.6721 L32765.7715,532.6721 Q32765.1204,532.6721 32764.8438,532.428 Q32764.5833,532.1838 32764.5833,531.7769 Q32764.5833,531.3863 32764.8438,531.1422 Q32765.1204,530.898 32765.7715,530.898 L32773.7142,530.898 L32773.7142,533.5999 Q32773.7142,534.2346 32773.4701,534.5113 Q32773.2422,534.7717 32772.8353,534.7717 Q32772.4447,534.7717 32772.2005,534.5113 Q32771.9564,534.2346 32771.9564,533.5999 L32771.9564,532.6721 L32767.8223,532.6721 L32767.8223,535.2275 L32769.3685,535.2275 Q32769.3685,534.5439 32769.4987,534.3486 Q32769.7754,533.9254 32770.2637,533.9254 Q32770.6543,533.9254 32770.8984,534.2021 Q32771.1426,534.4625 32771.1426,535.0972 L32771.1426,537.148 Q32771.1426,537.7177 32771.0124,537.913 Q32770.7357,538.3199 32770.2637,538.3199 Q32769.7754,538.3199 32769.4987,537.8967 Q32769.3685,537.7014 32769.3685,537.0015 L32767.8223,537.0015 Z " fill="#FFFFFF"/><text fill="#FFFFFF" font-family="Consolas" font-size="520.8333" lengthAdjust="spacing" textLength="1432.2917" x="32998.6979" y="707.0699">store</text><line style="stroke:#2196F3;stroke-width:1.0416666666666667;" x1="29903.6458" x2="37492.1875" y1="1054.6346" y2="1054.6346"/><ellipse cx="29914.0625" cy="1573.6186" fill="none" rx="3.125" ry="3.125" style="stroke:#1A78C2;stroke-width:1.0416666666666667;"/><text fill="#FFFFFF" font-family="Consolas" font-size="520.8333" lengthAdjust="spacing" textLength="5442.7083" x="30131.7708" y="1742.9545">id_store : INT &#171;PK&#187;</text><line style="stroke:#2196F3;stroke-width:1.0416666666666667;" x1="29903.6458" x2="37492.1875" y1="2089.4775" y2="2089.4775"/><text fill="#FFFFFF" font-family="Consolas" font-size="520.8333" lengthAdjust="spacing" textLength="7161.4583" x="30117.1875" y="2777.7974">nama_store : VARCHAR(100)</text><text fill="#FFFFFF" font-family="Consolas" font-size="520.8333" lengthAdjust="spacing" textLength="5442.7083" x="30117.1875" y="3804.307">alamat_store : TEXT</text><text fill="#FFFFFF" font-family="Consolas" font-size="520.8333" lengthAdjust="spacing" textLength="6015.625" x="30117.1875" y="4830.8167">created_at : DATETIME</text></g><!--class profil--><g id="elem_profil"><rect codeLine="54" fill="url(#glho0mkou6yxi0)" filter="url(#flho0mkou6yxi)" height="8239.1602" id="profil" rx="4.1667" ry="4.1667" style="stroke:#2196F3;stroke-width:1.0416666666666667;" width="9022.9167" x="17.7083" y="7772.9167"/><rect fill="url(#glho0mkou6yxi1)" height="1036.9263" rx="4.1667" ry="4.1667" style="stroke:url(#glho0mkou6yxi1);stroke-width:1.0416666666666667;" width="9022.9167" x="17.7083" y="7772.9167"/><rect fill="url(#glho0mkou6yxi1)" height="4.1667" style="stroke:url(#glho0mkou6yxi1);stroke-width:1.0416666666666667;" width="9022.9167" x="17.7083" y="8805.6763"/><rect codeLine="54" fill="none" height="8239.1602" id="profil" rx="4.1667" ry="4.1667" style="stroke:#2196F3;stroke-width:1.0416666666666667;" width="9022.9167" x="17.7083" y="7772.9167"/><ellipse cx="3457.0313" cy="8291.3798" fill="none" rx="11.4583" ry="11.4583" style="stroke:#1A78C2;stroke-width:1.0416666666666667;"/><path d="M3455.8431,8292.2099 L3455.8431,8294.814 L3460.3516,8294.814 L3460.3516,8293.8538 Q3460.3516,8293.219 3460.5957,8292.9423 Q3460.8561,8292.6656 3461.2467,8292.6656 Q3461.6374,8292.6656 3461.8815,8292.9423 Q3462.1257,8293.219 3462.1257,8293.8538 L3462.1257,8296.5881 L3453.7923,8296.5881 Q3453.1413,8296.5881 3452.8646,8296.344 Q3452.6042,8296.0999 3452.6042,8295.693 Q3452.6042,8295.3023 3452.8809,8295.0582 Q3453.1576,8294.814 3453.7923,8294.814 L3454.069,8294.814 L3454.069,8287.8805 L3453.7923,8287.8805 Q3453.1413,8287.8805 3452.8646,8287.6363 Q3452.6042,8287.3922 3452.6042,8286.9853 Q3452.6042,8286.5946 3452.8646,8286.3505 Q3453.1413,8286.1064 3453.7923,8286.1064 L3461.735,8286.1064 L3461.735,8288.8082 Q3461.735,8289.443 3461.4909,8289.7196 Q3461.263,8289.9801 3460.8561,8289.9801 Q3460.4655,8289.9801 3460.2214,8289.7196 Q3459.9772,8289.443 3459.9772,8288.8082 L3459.9772,8287.8805 L3455.8431,8287.8805 L3455.8431,8290.4358 L3457.3893,8290.4358 Q3457.3893,8289.7522 3457.5195,8289.5569 Q3457.7962,8289.1337 3458.2845,8289.1337 Q3458.6751,8289.1337 3458.9193,8289.4104 Q3459.1634,8289.6708 3459.1634,8290.3056 L3459.1634,8292.3564 Q3459.1634,8292.926 3459.0332,8293.1213 Q3458.7565,8293.5282 3458.2845,8293.5282 Q3457.7962,8293.5282 3457.5195,8293.1051 Q3457.3893,8292.9097 3457.3893,8292.2099 L3455.8431,8292.2099 Z " fill="#FFFFFF"/><text fill="#FFFFFF" font-family="Consolas" font-size="520.8333" lengthAdjust="spacing" textLength="1718.75" x="3686.7188" y="8462.2782">profil</text><line style="stroke:#2196F3;stroke-width:1.0416666666666667;" x1="18.75" x2="9039.5833" y1="8809.8429" y2="8809.8429"/><ellipse cx="29.1667" cy="9328.8269" fill="none" rx="3.125" ry="3.125" style="stroke:#1A78C2;stroke-width:1.0416666666666667;"/><text fill="#FFFFFF" font-family="Consolas" font-size="520.8333" lengthAdjust="spacing" textLength="5729.1667" x="246.875" y="9498.1628">id_profil : INT &#171;PK&#187;</text><line style="stroke:#2196F3;stroke-width:1.0416666666666667;" x1="18.75" x2="9039.5833" y1="9844.6859" y2="9844.6859"/><text fill="#FFFFFF" font-family="Consolas" font-size="520.8333" lengthAdjust="spacing" textLength="8593.75" x="232.2917" y="10533.0058">nama_barbershop : VARCHAR(150)</text><text fill="#FFFFFF" font-family="Consolas" font-size="520.8333" lengthAdjust="spacing" textLength="5442.7083" x="232.2917" y="11559.5154">logo : VARCHAR(255)</text><text fill="#FFFFFF" font-family="Consolas" font-size="520.8333" lengthAdjust="spacing" textLength="6015.625" x="232.2917" y="12586.025">telepon : VARCHAR(20)</text><text fill="#FFFFFF" font-family="Consolas" font-size="520.8333" lengthAdjust="spacing" textLength="6875" x="232.2917" y="13612.5346">instagram : VARCHAR(100)</text><text fill="#FFFFFF" font-family="Consolas" font-size="520.8333" lengthAdjust="spacing" textLength="6015.625" x="232.2917" y="14639.0442">tiktok : VARCHAR(100)</text><text fill="#FFFFFF" font-family="Consolas" font-size="520.8333" lengthAdjust="spacing" textLength="6015.625" x="232.2917" y="15665.5538">created_at : DATETIME</text></g><!--class users--><g id="elem_users"><rect codeLine="72" fill="url(#glho0mkou6yxi0)" filter="url(#flho0mkou6yxi)" height="10292.1794" id="users" rx="4.1667" ry="4.1667" style="stroke:#2196F3;stroke-width:1.0416666666666667;" width="7304.1667" x="39953.125" y="6746.875"/><rect fill="url(#glho0mkou6yxi1)" height="1036.9263" rx="4.1667" ry="4.1667" style="stroke:url(#glho0mkou6yxi1);stroke-width:1.0416666666666667;" width="7304.1667" x="39953.125" y="6746.875"/><rect fill="url(#glho0mkou6yxi1)" height="4.1667" style="stroke:url(#glho0mkou6yxi1);stroke-width:1.0416666666666667;" width="7304.1667" x="39953.125" y="7779.6346"/><rect codeLine="72" fill="none" height="10292.1794" id="users" rx="4.1667" ry="4.1667" style="stroke:#2196F3;stroke-width:1.0416666666666667;" width="7304.1667" x="39953.125" y="6746.875"/><ellipse cx="42676.3021" cy="7265.3381" fill="none" rx="11.4583" ry="11.4583" style="stroke:#1A78C2;stroke-width:1.0416666666666667;"/><path d="M42675.1139,7266.1682 L42675.1139,7268.7724 L42679.6224,7268.7724 L42679.6224,7267.8121 Q42679.6224,7267.1773 42679.8665,7266.9006 Q42680.127,7266.6239 42680.5176,7266.6239 Q42680.9082,7266.6239 42681.1523,7266.9006 Q42681.3965,7267.1773 42681.3965,7267.8121 L42681.3965,7270.5465 L42673.0632,7270.5465 Q42672.4121,7270.5465 42672.1354,7270.3023 Q42671.875,7270.0582 42671.875,7269.6513 Q42671.875,7269.2607 42672.1517,7269.0165 Q42672.4284,7268.7724 42673.0632,7268.7724 L42673.3398,7268.7724 L42673.3398,7261.8388 L42673.0632,7261.8388 Q42672.4121,7261.8388 42672.1354,7261.5946 Q42671.875,7261.3505 42671.875,7260.9436 Q42671.875,7260.553 42672.1354,7260.3088 Q42672.4121,7260.0647 42673.0632,7260.0647 L42681.0059,7260.0647 L42681.0059,7262.7665 Q42681.0059,7263.4013 42680.7617,7263.678 Q42680.5339,7263.9384 42680.127,7263.9384 Q42679.7363,7263.9384 42679.4922,7263.678 Q42679.248,7263.4013 42679.248,7262.7665 L42679.248,7261.8388 L42675.1139,7261.8388 L42675.1139,7264.3941 L42676.6602,7264.3941 Q42676.6602,7263.7105 42676.7904,7263.5152 Q42677.0671,7263.092 42677.5553,7263.092 Q42677.946,7263.092 42678.1901,7263.3687 Q42678.4342,7263.6292 42678.4342,7264.2639 L42678.4342,7266.3147 Q42678.4342,7266.8844 42678.304,7267.0797 Q42678.0273,7267.4866 42677.5553,7267.4866 Q42677.0671,7267.4866 42676.7904,7267.0634 Q42676.6602,7266.8681 42676.6602,7266.1682 L42675.1139,7266.1682 Z " fill="#FFFFFF"/><text fill="#FFFFFF" font-family="Consolas" font-size="520.8333" lengthAdjust="spacing" textLength="1432.2917" x="42905.9896" y="7436.2366">users</text><line style="stroke:#2196F3;stroke-width:1.0416666666666667;" x1="39954.1667" x2="47256.25" y1="7783.8013" y2="7783.8013"/><ellipse cx="39964.5833" cy="8302.7852" fill="none" rx="3.125" ry="3.125" style="stroke:#1A78C2;stroke-width:1.0416666666666667;"/><text fill="#FFFFFF" font-family="Consolas" font-size="520.8333" lengthAdjust="spacing" textLength="5156.25" x="40182.2917" y="8472.1212">id_user : INT &#171;PK&#187;</text><line style="stroke:#2196F3;stroke-width:1.0416666666666667;" x1="39954.1667" x2="47256.25" y1="8818.6442" y2="8818.6442"/><text fill="#FFFFFF" font-family="Consolas" font-size="520.8333" lengthAdjust="spacing" textLength="6875" x="40167.7083" y="9506.9641">nama_user : VARCHAR(100)</text><text fill="#FFFFFF" font-family="Consolas" font-size="520.8333" lengthAdjust="spacing" textLength="6302.0833" x="40167.7083" y="10533.4737">username : VARCHAR(50)</text><text fill="#FFFFFF" font-family="Consolas" font-size="520.8333" lengthAdjust="spacing" textLength="6588.5417" x="40167.7083" y="11559.9833">password : VARCHAR(255)</text><text fill="#FFFFFF" font-family="Consolas" font-size="520.8333" lengthAdjust="spacing" textLength="3151.0417" x="40167.7083" y="12586.4929">role : ENUM</text><text fill="#FFFFFF" font-family="Consolas" font-size="520.8333" lengthAdjust="spacing" textLength="5442.7083" x="40167.7083" y="13613.0025">id_store : INT &#171;FK&#187;</text><text fill="#FFFFFF" font-family="Consolas" font-size="520.8333" lengthAdjust="spacing" textLength="6015.625" x="40167.7083" y="14639.5121">id_capster : INT &#171;FK&#187;</text><text fill="#FFFFFF" font-family="Consolas" font-size="520.8333" lengthAdjust="spacing" textLength="5442.7083" x="40167.7083" y="15666.0217">id_kasir : INT &#171;FK&#187;</text><text fill="#FFFFFF" font-family="Consolas" font-size="520.8333" lengthAdjust="spacing" textLength="6015.625" x="40167.7083" y="16692.5313">created_at : DATETIME</text></g><!--class kasir--><g id="elem_kasir"><rect codeLine="85" fill="url(#glho0mkou6yxi0)" filter="url(#flho0mkou6yxi)" height="7212.6506" id="kasir" rx="4.1667" ry="4.1667" style="stroke:#2196F3;stroke-width:1.0416666666666667;" width="7590.625" x="47032.8125" y="20147.9167"/><rect fill="url(#glho0mkou6yxi1)" height="1036.9263" rx="4.1667" ry="4.1667" style="stroke:url(#glho0mkou6yxi1);stroke-width:1.0416666666666667;" width="7590.625" x="47032.8125" y="20147.9167"/><rect fill="url(#glho0mkou6yxi1)" height="4.1667" style="stroke:url(#glho0mkou6yxi1);stroke-width:1.0416666666666667;" width="7590.625" x="47032.8125" y="21180.6763"/><rect codeLine="85" fill="none" height="7212.6506" id="kasir" rx="4.1667" ry="4.1667" style="stroke:#2196F3;stroke-width:1.0416666666666667;" width="7590.625" x="47032.8125" y="20147.9167"/><ellipse cx="49899.2188" cy="20666.3798" fill="none" rx="11.4583" ry="11.4583" style="stroke:#1A78C2;stroke-width:1.0416666666666667;"/><path d="M49898.0306,20667.2099 L49898.0306,20669.814 L49902.5391,20669.814 L49902.5391,20668.8538 Q49902.5391,20668.219 49902.7832,20667.9423 Q49903.0436,20667.6656 49903.4342,20667.6656 Q49903.8249,20667.6656 49904.069,20667.9423 Q49904.3132,20668.219 49904.3132,20668.8538 L49904.3132,20671.5881 L49895.9798,20671.5881 Q49895.3288,20671.5881 49895.0521,20671.344 Q49894.7917,20671.0999 49894.7917,20670.693 Q49894.7917,20670.3023 49895.0684,20670.0582 Q49895.3451,20669.814 49895.9798,20669.814 L49896.2565,20669.814 L49896.2565,20662.8805 L49895.9798,20662.8805 Q49895.3288,20662.8805 49895.0521,20662.6363 Q49894.7917,20662.3922 49894.7917,20661.9853 Q49894.7917,20661.5946 49895.0521,20661.3505 Q49895.3288,20661.1064 49895.9798,20661.1064 L49903.9225,20661.1064 L49903.9225,20663.8082 Q49903.9225,20664.443 49903.6784,20664.7196 Q49903.4505,20664.9801 49903.0436,20664.9801 Q49902.653,20664.9801 49902.4089,20664.7196 Q49902.1647,20664.443 49902.1647,20663.8082 L49902.1647,20662.8805 L49898.0306,20662.8805 L49898.0306,20665.4358 L49899.5768,20665.4358 Q49899.5768,20664.7522 49899.707,20664.5569 Q49899.9837,20664.1337 49900.472,20664.1337 Q49900.8626,20664.1337 49901.1068,20664.4104 Q49901.3509,20664.6708 49901.3509,20665.3056 L49901.3509,20667.3564 Q49901.3509,20667.926 49901.2207,20668.1213 Q49900.944,20668.5282 49900.472,20668.5282 Q49899.9837,20668.5282 49899.707,20668.1051 Q49899.5768,20667.9097 49899.5768,20667.2099 L49898.0306,20667.2099 Z " fill="#FFFFFF"/><text fill="#FFFFFF" font-family="Consolas" font-size="520.8333" lengthAdjust="spacing" textLength="1432.2917" x="50128.9063" y="20837.2782">kasir</text><line style="stroke:#2196F3;stroke-width:1.0416666666666667;" x1="47033.8542" x2="54622.3958" y1="21184.8429" y2="21184.8429"/><ellipse cx="47044.2708" cy="21703.8269" fill="none" rx="3.125" ry="3.125" style="stroke:#1A78C2;stroke-width:1.0416666666666667;"/><text fill="#FFFFFF" font-family="Consolas" font-size="520.8333" lengthAdjust="spacing" textLength="5442.7083" x="47261.9792" y="21873.1628">id_kasir : INT &#171;PK&#187;</text><line style="stroke:#2196F3;stroke-width:1.0416666666666667;" x1="47033.8542" x2="54622.3958" y1="22219.6859" y2="22219.6859"/><text fill="#FFFFFF" font-family="Consolas" font-size="520.8333" lengthAdjust="spacing" textLength="7161.4583" x="47247.3958" y="22908.0058">nama_kasir : VARCHAR(100)</text><text fill="#FFFFFF" font-family="Consolas" font-size="520.8333" lengthAdjust="spacing" textLength="5442.7083" x="47247.3958" y="23934.5154">id_store : INT &#171;FK&#187;</text><text fill="#FFFFFF" font-family="Consolas" font-size="520.8333" lengthAdjust="spacing" textLength="5156.25" x="47247.3958" y="24961.025">id_user : INT &#171;FK&#187;</text><text fill="#FFFFFF" font-family="Consolas" font-size="520.8333" lengthAdjust="spacing" textLength="3723.9583" x="47247.3958" y="25987.5346">status : ENUM</text><text fill="#FFFFFF" font-family="Consolas" font-size="520.8333" lengthAdjust="spacing" textLength="6015.625" x="47247.3958" y="27014.0442">created_at : DATETIME</text></g><!--class capster--><g id="elem_capster"><rect codeLine="95" fill="url(#glho0mkou6yxi0)" filter="url(#flho0mkou6yxi)" height="7212.6506" id="capster" rx="4.1667" ry="4.1667" style="stroke:#2196F3;stroke-width:1.0416666666666667;" width="8163.5417" x="39516.1458" y="30982.2917"/><rect fill="url(#glho0mkou6yxi1)" height="1036.9263" rx="4.1667" ry="4.1667" style="stroke:url(#glho0mkou6yxi1);stroke-width:1.0416666666666667;" width="8163.5417" x="39516.1458" y="30982.2917"/><rect fill="url(#glho0mkou6yxi1)" height="4.1667" style="stroke:url(#glho0mkou6yxi1);stroke-width:1.0416666666666667;" width="8163.5417" x="39516.1458" y="32015.0513"/><rect codeLine="95" fill="none" height="7212.6506" id="capster" rx="4.1667" ry="4.1667" style="stroke:#2196F3;stroke-width:1.0416666666666667;" width="8163.5417" x="39516.1458" y="30982.2917"/><ellipse cx="42382.5521" cy="31500.7548" fill="none" rx="11.4583" ry="11.4583" style="stroke:#1A78C2;stroke-width:1.0416666666666667;"/><path d="M42381.3639,31501.5849 L42381.3639,31504.189 L42385.8724,31504.189 L42385.8724,31503.2288 Q42385.8724,31502.594 42386.1165,31502.3173 Q42386.377,31502.0406 42386.7676,31502.0406 Q42387.1582,31502.0406 42387.4023,31502.3173 Q42387.6465,31502.594 42387.6465,31503.2288 L42387.6465,31505.9631 L42379.3132,31505.9631 Q42378.6621,31505.9631 42378.3854,31505.719 Q42378.125,31505.4749 42378.125,31505.068 Q42378.125,31504.6773 42378.4017,31504.4332 Q42378.6784,31504.189 42379.3132,31504.189 L42379.5898,31504.189 L42379.5898,31497.2555 L42379.3132,31497.2555 Q42378.6621,31497.2555 42378.3854,31497.0113 Q42378.125,31496.7672 42378.125,31496.3603 Q42378.125,31495.9696 42378.3854,31495.7255 Q42378.6621,31495.4814 42379.3132,31495.4814 L42387.2559,31495.4814 L42387.2559,31498.1832 Q42387.2559,31498.818 42387.0117,31499.0946 Q42386.7839,31499.3551 42386.377,31499.3551 Q42385.9863,31499.3551 42385.7422,31499.0946 Q42385.498,31498.818 42385.498,31498.1832 L42385.498,31497.2555 L42381.3639,31497.2555 L42381.3639,31499.8108 L42382.9102,31499.8108 Q42382.9102,31499.1272 42383.0404,31498.9319 Q42383.3171,31498.5087 42383.8053,31498.5087 Q42384.196,31498.5087 42384.4401,31498.7854 Q42384.6842,31499.0458 42384.6842,31499.6806 L42384.6842,31501.7314 Q42384.6842,31502.301 42384.554,31502.4963 Q42384.2773,31502.9032 42383.8053,31502.9032 Q42383.3171,31502.9032 42383.0404,31502.4801 Q42382.9102,31502.2847 42382.9102,31501.5849 L42381.3639,31501.5849 Z " fill="#FFFFFF"/><text fill="#FFFFFF" font-family="Consolas" font-size="520.8333" lengthAdjust="spacing" textLength="2005.2083" x="42612.2396" y="31671.6532">capster</text><line style="stroke:#2196F3;stroke-width:1.0416666666666667;" x1="39517.1875" x2="47678.6458" y1="32019.2179" y2="32019.2179"/><ellipse cx="39527.6042" cy="32538.2019" fill="none" rx="3.125" ry="3.125" style="stroke:#1A78C2;stroke-width:1.0416666666666667;"/><text fill="#FFFFFF" font-family="Consolas" font-size="520.8333" lengthAdjust="spacing" textLength="6015.625" x="39745.3125" y="32707.5378">id_capster : INT &#171;PK&#187;</text><line style="stroke:#2196F3;stroke-width:1.0416666666666667;" x1="39517.1875" x2="47678.6458" y1="33054.0609" y2="33054.0609"/><text fill="#FFFFFF" font-family="Consolas" font-size="520.8333" lengthAdjust="spacing" textLength="7734.375" x="39730.7292" y="33742.3808">nama_capster : VARCHAR(100)</text><text fill="#FFFFFF" font-family="Consolas" font-size="520.8333" lengthAdjust="spacing" textLength="5442.7083" x="39730.7292" y="34768.8904">id_store : INT &#171;FK&#187;</text><text fill="#FFFFFF" font-family="Consolas" font-size="520.8333" lengthAdjust="spacing" textLength="5156.25" x="39730.7292" y="35795.4">id_user : INT &#171;FK&#187;</text><text fill="#FFFFFF" font-family="Consolas" font-size="520.8333" lengthAdjust="spacing" textLength="3723.9583" x="39730.7292" y="36821.9096">status : ENUM</text><text fill="#FFFFFF" font-family="Consolas" font-size="520.8333" lengthAdjust="spacing" textLength="6015.625" x="39730.7292" y="37848.4192">created_at : DATETIME</text></g><!--class transaksi--><g id="elem_transaksi"><rect codeLine="120" fill="url(#glho0mkou6yxi0)" filter="url(#flho0mkou6yxi)" height="10292.1794" id="transaksi" rx="4.1667" ry="4.1667" style="stroke:#2196F3;stroke-width:1.0416666666666667;" width="7877.0833" x="17926.0417" y="18608.3333"/><rect fill="url(#glho0mkou6yxi1)" height="1036.9263" rx="4.1667" ry="4.1667" style="stroke:url(#glho0mkou6yxi1);stroke-width:1.0416666666666667;" width="7877.0833" x="17926.0417" y="18608.3333"/><rect fill="url(#glho0mkou6yxi1)" height="4.1667" style="stroke:url(#glho0mkou6yxi1);stroke-width:1.0416666666666667;" width="7877.0833" x="17926.0417" y="19641.0929"/><rect codeLine="120" fill="none" height="10292.1794" id="transaksi" rx="4.1667" ry="4.1667" style="stroke:#2196F3;stroke-width:1.0416666666666667;" width="7877.0833" x="17926.0417" y="18608.3333"/><ellipse cx="20362.7604" cy="19126.7965" fill="none" rx="11.4583" ry="11.4583" style="stroke:#1A78C2;stroke-width:1.0416666666666667;"/><path d="M20361.5723,19127.6265 L20361.5723,19130.2307 L20366.0807,19130.2307 L20366.0807,19129.2704 Q20366.0807,19128.6357 20366.3249,19128.359 Q20366.5853,19128.0823 20366.9759,19128.0823 Q20367.3665,19128.0823 20367.6107,19128.359 Q20367.8548,19128.6357 20367.8548,19129.2704 L20367.8548,19132.0048 L20359.5215,19132.0048 Q20358.8704,19132.0048 20358.5938,19131.7607 Q20358.3333,19131.5165 20358.3333,19131.1096 Q20358.3333,19130.719 20358.61,19130.4749 Q20358.8867,19130.2307 20359.5215,19130.2307 L20359.7982,19130.2307 L20359.7982,19123.2971 L20359.5215,19123.2971 Q20358.8704,19123.2971 20358.5938,19123.053 Q20358.3333,19122.8088 20358.3333,19122.4019 Q20358.3333,19122.0113 20358.5938,19121.7672 Q20358.8704,19121.523 20359.5215,19121.523 L20367.4642,19121.523 L20367.4642,19124.2249 Q20367.4642,19124.8596 20367.2201,19125.1363 Q20366.9922,19125.3967 20366.5853,19125.3967 Q20366.1947,19125.3967 20365.9505,19125.1363 Q20365.7064,19124.8596 20365.7064,19124.2249 L20365.7064,19123.2971 L20361.5723,19123.2971 L20361.5723,19125.8525 L20363.1185,19125.8525 Q20363.1185,19125.1689 20363.2487,19124.9736 Q20363.5254,19124.5504 20364.0137,19124.5504 Q20364.4043,19124.5504 20364.6484,19124.8271 Q20364.8926,19125.0875 20364.8926,19125.7222 L20364.8926,19127.773 Q20364.8926,19128.3427 20364.7624,19128.538 Q20364.4857,19128.9449 20364.0137,19128.9449 Q20363.5254,19128.9449 20363.2487,19128.5217 Q20363.1185,19128.3264 20363.1185,19127.6265 L20361.5723,19127.6265 Z " fill="#FFFFFF"/><text fill="#FFFFFF" font-family="Consolas" font-size="520.8333" lengthAdjust="spacing" textLength="2578.125" x="20592.4479" y="19297.6949">transaksi</text><line style="stroke:#2196F3;stroke-width:1.0416666666666667;" x1="17927.0833" x2="25802.0833" y1="19645.2596" y2="19645.2596"/><ellipse cx="17937.5" cy="20164.2436" fill="none" rx="3.125" ry="3.125" style="stroke:#1A78C2;stroke-width:1.0416666666666667;"/><text fill="#FFFFFF" font-family="Consolas" font-size="520.8333" lengthAdjust="spacing" textLength="6588.5417" x="18155.2083" y="20333.5795">id_transaksi : INT &#171;PK&#187;</text><line style="stroke:#2196F3;stroke-width:1.0416666666666667;" x1="17927.0833" x2="25802.0833" y1="20680.1025" y2="20680.1025"/><text fill="#FFFFFF" font-family="Consolas" font-size="520.8333" lengthAdjust="spacing" textLength="5442.7083" x="18140.625" y="21368.4224">id_store : INT &#171;FK&#187;</text><text fill="#FFFFFF" font-family="Consolas" font-size="520.8333" lengthAdjust="spacing" textLength="5156.25" x="18140.625" y="22394.932">id_user : INT &#171;FK&#187;</text><text fill="#FFFFFF" font-family="Consolas" font-size="520.8333" lengthAdjust="spacing" textLength="6015.625" x="18140.625" y="23421.4417">tipe_transaksi : ENUM</text><text fill="#FFFFFF" font-family="Consolas" font-size="520.8333" lengthAdjust="spacing" textLength="7447.9167" x="18140.625" y="24447.9513">metode_bayar : VARCHAR(20)</text><text fill="#FFFFFF" font-family="Consolas" font-size="520.8333" lengthAdjust="spacing" textLength="5156.25" x="18140.625" y="25474.4609">subtotal : DECIMAL</text><text fill="#FFFFFF" font-family="Consolas" font-size="520.8333" lengthAdjust="spacing" textLength="6302.0833" x="18140.625" y="26500.9705">jumlah_bayar : DECIMAL</text><text fill="#FFFFFF" font-family="Consolas" font-size="520.8333" lengthAdjust="spacing" textLength="5442.7083" x="18140.625" y="27527.4801">kembalian : DECIMAL</text><text fill="#FFFFFF" font-family="Consolas" font-size="520.8333" lengthAdjust="spacing" textLength="6015.625" x="18140.625" y="28553.9897">created_at : DATETIME</text></g><!--class pengeluaran--><g id="elem_pengeluaran"><rect codeLine="133" fill="url(#glho0mkou6yxi0)" filter="url(#flho0mkou6yxi)" height="10292.1794" id="pengeluaran" rx="4.1667" ry="4.1667" style="stroke:#2196F3;stroke-width:1.0416666666666667;" width="7605.2083" x="7186.9792" y="29442.7083"/><rect fill="url(#glho0mkou6yxi1)" height="1036.9263" rx="4.1667" ry="4.1667" style="stroke:url(#glho0mkou6yxi1);stroke-width:1.0416666666666667;" width="7605.2083" x="7186.9792" y="29442.7083"/><rect fill="url(#glho0mkou6yxi1)" height="4.1667" style="stroke:url(#glho0mkou6yxi1);stroke-width:1.0416666666666667;" width="7605.2083" x="7186.9792" y="30475.4679"/><rect codeLine="133" fill="none" height="10292.1794" id="pengeluaran" rx="4.1667" ry="4.1667" style="stroke:#2196F3;stroke-width:1.0416666666666667;" width="7605.2083" x="7186.9792" y="29442.7083"/><ellipse cx="9201.3021" cy="29961.1715" fill="none" rx="11.4583" ry="11.4583" style="stroke:#1A78C2;stroke-width:1.0416666666666667;"/><path d="M9200.1139,29962.0015 L9200.1139,29964.6057 L9204.6224,29964.6057 L9204.6224,29963.6454 Q9204.6224,29963.0107 9204.8665,29962.734 Q9205.127,29962.4573 9205.5176,29962.4573 Q9205.9082,29962.4573 9206.1523,29962.734 Q9206.3965,29963.0107 9206.3965,29963.6454 L9206.3965,29966.3798 L9198.0632,29966.3798 Q9197.4121,29966.3798 9197.1354,29966.1357 Q9196.875,29965.8915 9196.875,29965.4846 Q9196.875,29965.094 9197.1517,29964.8499 Q9197.4284,29964.6057 9198.0632,29964.6057 L9198.3398,29964.6057 L9198.3398,29957.6721 L9198.0632,29957.6721 Q9197.4121,29957.6721 9197.1354,29957.428 Q9196.875,29957.1838 9196.875,29956.7769 Q9196.875,29956.3863 9197.1354,29956.1422 Q9197.4121,29955.898 9198.0632,29955.898 L9206.0059,29955.898 L9206.0059,29958.5999 Q9206.0059,29959.2346 9205.7617,29959.5113 Q9205.5339,29959.7717 9205.127,29959.7717 Q9204.7363,29959.7717 9204.4922,29959.5113 Q9204.248,29959.2346 9204.248,29958.5999 L9204.248,29957.6721 L9200.1139,29957.6721 L9200.1139,29960.2275 L9201.6602,29960.2275 Q9201.6602,29959.5439 9201.7904,29959.3486 Q9202.0671,29958.9254 9202.5553,29958.9254 Q9202.946,29958.9254 9203.1901,29959.2021 Q9203.4342,29959.4625 9203.4342,29960.0972 L9203.4342,29962.148 Q9203.4342,29962.7177 9203.304,29962.913 Q9203.0273,29963.3199 9202.5553,29963.3199 Q9202.0671,29963.3199 9201.7904,29962.8967 Q9201.6602,29962.7014 9201.6602,29962.0015 L9200.1139,29962.0015 Z " fill="#FFFFFF"/><text fill="#FFFFFF" font-family="Consolas" font-size="520.8333" lengthAdjust="spacing" textLength="3151.0417" x="9430.9896" y="30132.0699">pengeluaran</text><line style="stroke:#2196F3;stroke-width:1.0416666666666667;" x1="7188.0208" x2="14791.1458" y1="30479.6346" y2="30479.6346"/><ellipse cx="7198.4375" cy="30998.6186" fill="none" rx="3.125" ry="3.125" style="stroke:#1A78C2;stroke-width:1.0416666666666667;"/><text fill="#FFFFFF" font-family="Consolas" font-size="520.8333" lengthAdjust="spacing" textLength="7161.4583" x="7416.1458" y="31167.9545">id_pengeluaran : INT &#171;PK&#187;</text><line style="stroke:#2196F3;stroke-width:1.0416666666666667;" x1="7188.0208" x2="14791.1458" y1="31514.4775" y2="31514.4775"/><text fill="#FFFFFF" font-family="Consolas" font-size="520.8333" lengthAdjust="spacing" textLength="5442.7083" x="7401.5625" y="32202.7974">id_store : INT &#171;FK&#187;</text><text fill="#FFFFFF" font-family="Consolas" font-size="520.8333" lengthAdjust="spacing" textLength="5156.25" x="7401.5625" y="33229.307">id_user : INT &#171;FK&#187;</text><text fill="#FFFFFF" font-family="Consolas" font-size="520.8333" lengthAdjust="spacing" textLength="6588.5417" x="7401.5625" y="34255.8167">kategori : VARCHAR(100)</text><text fill="#FFFFFF" font-family="Consolas" font-size="520.8333" lengthAdjust="spacing" textLength="4583.3333" x="7401.5625" y="35282.3263">deskripsi : TEXT</text><text fill="#FFFFFF" font-family="Consolas" font-size="520.8333" lengthAdjust="spacing" textLength="4583.3333" x="7401.5625" y="36308.8359">jumlah : DECIMAL</text><text fill="#FFFFFF" font-family="Consolas" font-size="520.8333" lengthAdjust="spacing" textLength="4010.4167" x="7401.5625" y="37335.3455">tanggal : DATE</text><text fill="#FFFFFF" font-family="Consolas" font-size="520.8333" lengthAdjust="spacing" textLength="7161.4583" x="7401.5625" y="38361.8551">bukti_path : VARCHAR(255)</text><text fill="#FFFFFF" font-family="Consolas" font-size="520.8333" lengthAdjust="spacing" textLength="6015.625" x="7401.5625" y="39388.3647">created_at : DATETIME</text></g><!--class struk--><g id="elem_struk"><rect codeLine="146" fill="url(#glho0mkou6yxi0)" filter="url(#flho0mkou6yxi)" height="5159.6313" id="struk" rx="4.1667" ry="4.1667" style="stroke:#2196F3;stroke-width:1.0416666666666667;" width="7590.625" x="11650.5208" y="43357.2917"/><rect fill="url(#glho0mkou6yxi1)" height="1036.9263" rx="4.1667" ry="4.1667" style="stroke:url(#glho0mkou6yxi1);stroke-width:1.0416666666666667;" width="7590.625" x="11650.5208" y="43357.2917"/><rect fill="url(#glho0mkou6yxi1)" height="4.1667" style="stroke:url(#glho0mkou6yxi1);stroke-width:1.0416666666666667;" width="7590.625" x="11650.5208" y="44390.0513"/><rect codeLine="146" fill="none" height="5159.6313" id="struk" rx="4.1667" ry="4.1667" style="stroke:#2196F3;stroke-width:1.0416666666666667;" width="7590.625" x="11650.5208" y="43357.2917"/><ellipse cx="14516.9271" cy="43875.7548" fill="none" rx="11.4583" ry="11.4583" style="stroke:#1A78C2;stroke-width:1.0416666666666667;"/><path d="M14515.7389,43876.5849 L14515.7389,43879.189 L14520.2474,43879.189 L14520.2474,43878.2288 Q14520.2474,43877.594 14520.4915,43877.3173 Q14520.752,43877.0406 14521.1426,43877.0406 Q14521.5332,43877.0406 14521.7773,43877.3173 Q14522.0215,43877.594 14522.0215,43878.2288 L14522.0215,43880.9631 L14513.6882,43880.9631 Q14513.0371,43880.9631 14512.7604,43880.719 Q14512.5,43880.4749 14512.5,43880.068 Q14512.5,43879.6773 14512.7767,43879.4332 Q14513.0534,43879.189 14513.6882,43879.189 L14513.9648,43879.189 L14513.9648,43872.2555 L14513.6882,43872.2555 Q14513.0371,43872.2555 14512.7604,43872.0113 Q14512.5,43871.7672 14512.5,43871.3603 Q14512.5,43870.9696 14512.7604,43870.7255 Q14513.0371,43870.4814 14513.6882,43870.4814 L14521.6309,43870.4814 L14521.6309,43873.1832 Q14521.6309,43873.818 14521.3867,43874.0946 Q14521.1589,43874.3551 14520.752,43874.3551 Q14520.3613,43874.3551 14520.1172,43874.0946 Q14519.873,43873.818 14519.873,43873.1832 L14519.873,43872.2555 L14515.7389,43872.2555 L14515.7389,43874.8108 L14517.2852,43874.8108 Q14517.2852,43874.1272 14517.4154,43873.9319 Q14517.6921,43873.5087 14518.1803,43873.5087 Q14518.571,43873.5087 14518.8151,43873.7854 Q14519.0592,43874.0458 14519.0592,43874.6806 L14519.0592,43876.7314 Q14519.0592,43877.301 14518.929,43877.4963 Q14518.6523,43877.9032 14518.1803,43877.9032 Q14517.6921,43877.9032 14517.4154,43877.4801 Q14517.2852,43877.2847 14517.2852,43876.5849 L14515.7389,43876.5849 Z " fill="#FFFFFF"/><text fill="#FFFFFF" font-family="Consolas" font-size="520.8333" lengthAdjust="spacing" textLength="1432.2917" x="14746.6146" y="44046.6532">struk</text><line style="stroke:#2196F3;stroke-width:1.0416666666666667;" x1="11651.5625" x2="19240.1042" y1="44394.2179" y2="44394.2179"/><ellipse cx="11661.9792" cy="44913.2019" fill="none" rx="3.125" ry="3.125" style="stroke:#1A78C2;stroke-width:1.0416666666666667;"/><text fill="#FFFFFF" font-family="Consolas" font-size="520.8333" lengthAdjust="spacing" textLength="5442.7083" x="11879.6875" y="45082.5378">id_struk : INT &#171;PK&#187;</text><line style="stroke:#2196F3;stroke-width:1.0416666666666667;" x1="11651.5625" x2="19240.1042" y1="45429.0609" y2="45429.0609"/><text fill="#FFFFFF" font-family="Consolas" font-size="520.8333" lengthAdjust="spacing" textLength="6588.5417" x="11865.1042" y="46117.3808">id_transaksi : INT &#171;FK&#187;</text><text fill="#FFFFFF" font-family="Consolas" font-size="520.8333" lengthAdjust="spacing" textLength="7161.4583" x="11865.1042" y="47143.8904">nomor_struk : VARCHAR(30)</text><text fill="#FFFFFF" font-family="Consolas" font-size="520.8333" lengthAdjust="spacing" textLength="6015.625" x="11865.1042" y="48170.4">created_at : DATETIME</text></g><!--class transaksi_service_detail--><g id="elem_transaksi_service_detail"><rect codeLine="168" fill="url(#glho0mkou6yxi0)" filter="url(#flho0mkou6yxi)" height="9265.6698" id="transaksi_service_detail" rx="4.1667" ry="4.1667" style="stroke:#2196F3;stroke-width:1.0416666666666667;" width="8450" x="22496.875" y="41304.1667"/><rect fill="url(#glho0mkou6yxi1)" height="1036.9263" rx="4.1667" ry="4.1667" style="stroke:url(#glho0mkou6yxi1);stroke-width:1.0416666666666667;" width="8450" x="22496.875" y="41304.1667"/><rect fill="url(#glho0mkou6yxi1)" height="4.1667" style="stroke:url(#glho0mkou6yxi1);stroke-width:1.0416666666666667;" width="8450" x="22496.875" y="42336.9263"/><rect codeLine="168" fill="none" height="9265.6698" id="transaksi_service_detail" rx="4.1667" ry="4.1667" style="stroke:#2196F3;stroke-width:1.0416666666666667;" width="8450" x="22496.875" y="41304.1667"/><ellipse cx="23071.6146" cy="41822.6298" fill="none" rx="11.4583" ry="11.4583" style="stroke:#1A78C2;stroke-width:1.0416666666666667;"/><path d="M23070.4264,41823.4599 L23070.4264,41826.064 L23074.9349,41826.064 L23074.9349,41825.1038 Q23074.9349,41824.469 23075.179,41824.1923 Q23075.4395,41823.9156 23075.8301,41823.9156 Q23076.2207,41823.9156 23076.4648,41824.1923 Q23076.709,41824.469 23076.709,41825.1038 L23076.709,41827.8381 L23068.3757,41827.8381 Q23067.7246,41827.8381 23067.4479,41827.594 Q23067.1875,41827.3499 23067.1875,41826.943 Q23067.1875,41826.5523 23067.4642,41826.3082 Q23067.7409,41826.064 23068.3757,41826.064 L23068.6523,41826.064 L23068.6523,41819.1305 L23068.3757,41819.1305 Q23067.7246,41819.1305 23067.4479,41818.8863 Q23067.1875,41818.6422 23067.1875,41818.2353 Q23067.1875,41817.8446 23067.4479,41817.6005 Q23067.7246,41817.3564 23068.3757,41817.3564 L23076.3184,41817.3564 L23076.3184,41820.0582 Q23076.3184,41820.693 23076.0742,41820.9696 Q23075.8464,41821.2301 23075.4395,41821.2301 Q23075.0488,41821.2301 23074.8047,41820.9696 Q23074.5605,41820.693 23074.5605,41820.0582 L23074.5605,41819.1305 L23070.4264,41819.1305 L23070.4264,41821.6858 L23071.9727,41821.6858 Q23071.9727,41821.0022 23072.1029,41820.8069 Q23072.3796,41820.3837 23072.8678,41820.3837 Q23073.2585,41820.3837 23073.5026,41820.6604 Q23073.7467,41820.9208 23073.7467,41821.5556 L23073.7467,41823.6064 Q23073.7467,41824.176 23073.6165,41824.3713 Q23073.3398,41824.7782 23072.8678,41824.7782 Q23072.3796,41824.7782 23072.1029,41824.3551 Q23071.9727,41824.1597 23071.9727,41823.4599 L23070.4264,41823.4599 Z " fill="#FFFFFF"/><text fill="#FFFFFF" font-family="Consolas" font-size="520.8333" lengthAdjust="spacing" textLength="6875" x="23301.3021" y="41993.5282">transaksi_service_detail</text><line style="stroke:#2196F3;stroke-width:1.0416666666666667;" x1="22497.9167" x2="30945.8333" y1="42341.0929" y2="42341.0929"/><ellipse cx="22508.3333" cy="42860.0769" fill="none" rx="3.125" ry="3.125" style="stroke:#1A78C2;stroke-width:1.0416666666666667;"/><text fill="#FFFFFF" font-family="Consolas" font-size="520.8333" lengthAdjust="spacing" textLength="5729.1667" x="22726.0417" y="43029.4128">id_detail : INT &#171;PK&#187;</text><line style="stroke:#2196F3;stroke-width:1.0416666666666667;" x1="22497.9167" x2="30945.8333" y1="43375.9359" y2="43375.9359"/><text fill="#FFFFFF" font-family="Consolas" font-size="520.8333" lengthAdjust="spacing" textLength="6588.5417" x="22711.4583" y="44064.2558">id_transaksi : INT &#171;FK&#187;</text><text fill="#FFFFFF" font-family="Consolas" font-size="520.8333" lengthAdjust="spacing" textLength="6588.5417" x="22711.4583" y="45090.7654">id_pricelist : INT &#171;FK&#187;</text><text fill="#FFFFFF" font-family="Consolas" font-size="520.8333" lengthAdjust="spacing" textLength="6015.625" x="22711.4583" y="46117.275">id_capster : INT &#171;FK&#187;</text><text fill="#FFFFFF" font-family="Consolas" font-size="520.8333" lengthAdjust="spacing" textLength="4296.875" x="22711.4583" y="47143.7846">harga : DECIMAL</text><text fill="#FFFFFF" font-family="Consolas" font-size="520.8333" lengthAdjust="spacing" textLength="8020.8333" x="22711.4583" y="48170.2942">persentase_capster : DECIMAL</text><text fill="#FFFFFF" font-family="Consolas" font-size="520.8333" lengthAdjust="spacing" textLength="6875" x="22711.4583" y="49196.8038">komisi_capster : DECIMAL</text><text fill="#FFFFFF" font-family="Consolas" font-size="520.8333" lengthAdjust="spacing" textLength="6015.625" x="22711.4583" y="50223.3134">created_at : DATETIME</text></g><!--class transaksi_produk_detail--><g id="elem_transaksi_produk_detail"><rect codeLine="180" fill="url(#glho0mkou6yxi0)" filter="url(#flho0mkou6yxi)" height="11318.689" id="transaksi_produk_detail" rx="4.1667" ry="4.1667" style="stroke:#2196F3;stroke-width:1.0416666666666667;" width="7590.625" x="22926.5625" y="52139.5833"/><rect fill="url(#glho0mkou6yxi1)" height="1036.9263" rx="4.1667" ry="4.1667" style="stroke:url(#glho0mkou6yxi1);stroke-width:1.0416666666666667;" width="7590.625" x="22926.5625" y="52139.5833"/><rect fill="url(#glho0mkou6yxi1)" height="4.1667" style="stroke:url(#glho0mkou6yxi1);stroke-width:1.0416666666666667;" width="7590.625" x="22926.5625" y="53172.3429"/><rect codeLine="180" fill="none" height="11318.689" id="transaksi_produk_detail" rx="4.1667" ry="4.1667" style="stroke:#2196F3;stroke-width:1.0416666666666667;" width="7590.625" x="22926.5625" y="52139.5833"/><ellipse cx="23214.8438" cy="52658.0465" fill="none" rx="11.4583" ry="11.4583" style="stroke:#1A78C2;stroke-width:1.0416666666666667;"/><path d="M23213.6556,52658.8765 L23213.6556,52661.4807 L23218.1641,52661.4807 L23218.1641,52660.5204 Q23218.1641,52659.8857 23218.4082,52659.609 Q23218.6686,52659.3323 23219.0592,52659.3323 Q23219.4499,52659.3323 23219.694,52659.609 Q23219.9382,52659.8857 23219.9382,52660.5204 L23219.9382,52663.2548 L23211.6048,52663.2548 Q23210.9538,52663.2548 23210.6771,52663.0107 Q23210.4167,52662.7665 23210.4167,52662.3596 Q23210.4167,52661.969 23210.6934,52661.7249 Q23210.9701,52661.4807 23211.6048,52661.4807 L23211.8815,52661.4807 L23211.8815,52654.5471 L23211.6048,52654.5471 Q23210.9538,52654.5471 23210.6771,52654.303 Q23210.4167,52654.0588 23210.4167,52653.6519 Q23210.4167,52653.2613 23210.6771,52653.0172 Q23210.9538,52652.773 23211.6048,52652.773 L23219.5475,52652.773 L23219.5475,52655.4749 Q23219.5475,52656.1096 23219.3034,52656.3863 Q23219.0755,52656.6467 23218.6686,52656.6467 Q23218.278,52656.6467 23218.0339,52656.3863 Q23217.7897,52656.1096 23217.7897,52655.4749 L23217.7897,52654.5471 L23213.6556,52654.5471 L23213.6556,52657.1025 L23215.2018,52657.1025 Q23215.2018,52656.4189 23215.332,52656.2236 Q23215.6087,52655.8004 23216.097,52655.8004 Q23216.4876,52655.8004 23216.7318,52656.0771 Q23216.9759,52656.3375 23216.9759,52656.9722 L23216.9759,52659.023 Q23216.9759,52659.5927 23216.8457,52659.788 Q23216.569,52660.1949 23216.097,52660.1949 Q23215.6087,52660.1949 23215.332,52659.7717 Q23215.2018,52659.5764 23215.2018,52658.8765 L23213.6556,52658.8765 Z " fill="#FFFFFF"/><text fill="#FFFFFF" font-family="Consolas" font-size="520.8333" lengthAdjust="spacing" textLength="6588.5417" x="23444.5313" y="52828.9449">transaksi_produk_detail</text><line style="stroke:#2196F3;stroke-width:1.0416666666666667;" x1="22927.6042" x2="30516.1458" y1="53176.5096" y2="53176.5096"/><ellipse cx="22938.0208" cy="53695.4936" fill="none" rx="3.125" ry="3.125" style="stroke:#1A78C2;stroke-width:1.0416666666666667;"/><text fill="#FFFFFF" font-family="Consolas" font-size="520.8333" lengthAdjust="spacing" textLength="5729.1667" x="23155.7292" y="53864.8295">id_detail : INT &#171;PK&#187;</text><line style="stroke:#2196F3;stroke-width:1.0416666666666667;" x1="22927.6042" x2="30516.1458" y1="54211.3525" y2="54211.3525"/><text fill="#FFFFFF" font-family="Consolas" font-size="520.8333" lengthAdjust="spacing" textLength="6588.5417" x="23141.1458" y="54899.6724">id_transaksi : INT &#171;FK&#187;</text><text fill="#FFFFFF" font-family="Consolas" font-size="520.8333" lengthAdjust="spacing" textLength="5729.1667" x="23141.1458" y="55926.182">id_produk : INT &#171;FK&#187;</text><text fill="#FFFFFF" font-family="Consolas" font-size="520.8333" lengthAdjust="spacing" textLength="3437.5" x="23141.1458" y="56952.6917">jumlah : INT</text><text fill="#FFFFFF" font-family="Consolas" font-size="520.8333" lengthAdjust="spacing" textLength="5729.1667" x="23141.1458" y="57979.2013">harga_awal : DECIMAL</text><text fill="#FFFFFF" font-family="Consolas" font-size="520.8333" lengthAdjust="spacing" textLength="5729.1667" x="23141.1458" y="59005.7109">harga_jual : DECIMAL</text><text fill="#FFFFFF" font-family="Consolas" font-size="520.8333" lengthAdjust="spacing" textLength="7161.4583" x="23141.1458" y="60032.2205">total_penjualan : DECIMAL</text><text fill="#FFFFFF" font-family="Consolas" font-size="520.8333" lengthAdjust="spacing" textLength="6015.625" x="23141.1458" y="61058.7301">total_modal : DECIMAL</text><text fill="#FFFFFF" font-family="Consolas" font-size="520.8333" lengthAdjust="spacing" textLength="5442.7083" x="23141.1458" y="62085.2397">laba_rugi : DECIMAL</text><text fill="#FFFFFF" font-family="Consolas" font-size="520.8333" lengthAdjust="spacing" textLength="6015.625" x="23141.1458" y="63111.7493">created_at : DATETIME</text></g><!--class produk--><g id="elem_produk"><rect codeLine="205" fill="url(#glho0mkou6yxi0)" filter="url(#flho0mkou6yxi)" height="6186.141" id="produk" rx="4.1667" ry="4.1667" style="stroke:#2196F3;stroke-width:1.0416666666666667;" width="7877.0833" x="30685.4167" y="20660.9375"/><rect fill="url(#glho0mkou6yxi1)" height="1036.9263" rx="4.1667" ry="4.1667" style="stroke:url(#glho0mkou6yxi1);stroke-width:1.0416666666666667;" width="7877.0833" x="30685.4167" y="20660.9375"/><rect fill="url(#glho0mkou6yxi1)" height="4.1667" style="stroke:url(#glho0mkou6yxi1);stroke-width:1.0416666666666667;" width="7877.0833" x="30685.4167" y="21693.6971"/><rect codeLine="205" fill="none" height="6186.141" id="produk" rx="4.1667" ry="4.1667" style="stroke:#2196F3;stroke-width:1.0416666666666667;" width="7877.0833" x="30685.4167" y="20660.9375"/><ellipse cx="33551.8229" cy="21179.4006" fill="none" rx="11.4583" ry="11.4583" style="stroke:#1A78C2;stroke-width:1.0416666666666667;"/><path d="M33550.6348,21180.2307 L33550.6348,21182.8349 L33555.1432,21182.8349 L33555.1432,21181.8746 Q33555.1432,21181.2398 33555.3874,21180.9631 Q33555.6478,21180.6864 33556.0384,21180.6864 Q33556.429,21180.6864 33556.6732,21180.9631 Q33556.9173,21181.2398 33556.9173,21181.8746 L33556.9173,21184.609 L33548.584,21184.609 Q33547.9329,21184.609 33547.6563,21184.3648 Q33547.3958,21184.1207 33547.3958,21183.7138 Q33547.3958,21183.3232 33547.6725,21183.079 Q33547.9492,21182.8349 33548.584,21182.8349 L33548.8607,21182.8349 L33548.8607,21175.9013 L33548.584,21175.9013 Q33547.9329,21175.9013 33547.6563,21175.6571 Q33547.3958,21175.413 33547.3958,21175.0061 Q33547.3958,21174.6155 33547.6563,21174.3713 Q33547.9329,21174.1272 33548.584,21174.1272 L33556.5267,21174.1272 L33556.5267,21176.829 Q33556.5267,21177.4638 33556.2826,21177.7405 Q33556.0547,21178.0009 33555.6478,21178.0009 Q33555.2572,21178.0009 33555.013,21177.7405 Q33554.7689,21177.4638 33554.7689,21176.829 L33554.7689,21175.9013 L33550.6348,21175.9013 L33550.6348,21178.4566 L33552.181,21178.4566 Q33552.181,21177.773 33552.3112,21177.5777 Q33552.5879,21177.1545 33553.0762,21177.1545 Q33553.4668,21177.1545 33553.7109,21177.4312 Q33553.9551,21177.6917 33553.9551,21178.3264 L33553.9551,21180.3772 Q33553.9551,21180.9469 33553.8249,21181.1422 Q33553.5482,21181.5491 33553.0762,21181.5491 Q33552.5879,21181.5491 33552.3112,21181.1259 Q33552.181,21180.9306 33552.181,21180.2307 L33550.6348,21180.2307 Z " fill="#FFFFFF"/><text fill="#FFFFFF" font-family="Consolas" font-size="520.8333" lengthAdjust="spacing" textLength="1718.75" x="33781.5104" y="21350.2991">produk</text><line style="stroke:#2196F3;stroke-width:1.0416666666666667;" x1="30686.4583" x2="38561.4583" y1="21697.8638" y2="21697.8638"/><ellipse cx="30696.875" cy="22216.8477" fill="none" rx="3.125" ry="3.125" style="stroke:#1A78C2;stroke-width:1.0416666666666667;"/><text fill="#FFFFFF" font-family="Consolas" font-size="520.8333" lengthAdjust="spacing" textLength="5729.1667" x="30914.5833" y="22386.1837">id_produk : INT &#171;PK&#187;</text><line style="stroke:#2196F3;stroke-width:1.0416666666666667;" x1="30686.4583" x2="38561.4583" y1="22732.7067" y2="22732.7067"/><text fill="#FFFFFF" font-family="Consolas" font-size="520.8333" lengthAdjust="spacing" textLength="7447.9167" x="30900" y="23421.0266">nama_produk : VARCHAR(100)</text><text fill="#FFFFFF" font-family="Consolas" font-size="520.8333" lengthAdjust="spacing" textLength="5729.1667" x="30900" y="24447.5362">harga_awal : DECIMAL</text><text fill="#FFFFFF" font-family="Consolas" font-size="520.8333" lengthAdjust="spacing" textLength="5729.1667" x="30900" y="25474.0458">harga_jual : DECIMAL</text><text fill="#FFFFFF" font-family="Consolas" font-size="520.8333" lengthAdjust="spacing" textLength="6015.625" x="30900" y="26500.5554">created_at : DATETIME</text></g><!--class pricelist--><g id="elem_pricelist"><rect codeLine="214" fill="url(#glho0mkou6yxi0)" filter="url(#flho0mkou6yxi)" height="6186.141" id="pricelist" rx="4.1667" ry="4.1667" style="stroke:#2196F3;stroke-width:1.0416666666666667;" width="7032.2917" x="26716.1458" y="31495.3125"/><rect fill="url(#glho0mkou6yxi1)" height="1036.9263" rx="4.1667" ry="4.1667" style="stroke:url(#glho0mkou6yxi1);stroke-width:1.0416666666666667;" width="7032.2917" x="26716.1458" y="31495.3125"/><rect fill="url(#glho0mkou6yxi1)" height="4.1667" style="stroke:url(#glho0mkou6yxi1);stroke-width:1.0416666666666667;" width="7032.2917" x="26716.1458" y="32528.0721"/><rect codeLine="214" fill="none" height="6186.141" id="pricelist" rx="4.1667" ry="4.1667" style="stroke:#2196F3;stroke-width:1.0416666666666667;" width="7032.2917" x="26716.1458" y="31495.3125"/><ellipse cx="28730.4688" cy="32013.7756" fill="none" rx="11.4583" ry="11.4583" style="stroke:#1A78C2;stroke-width:1.0416666666666667;"/><path d="M28729.2806,32014.6057 L28729.2806,32017.2099 L28733.7891,32017.2099 L28733.7891,32016.2496 Q28733.7891,32015.6148 28734.0332,32015.3381 Q28734.2936,32015.0614 28734.6842,32015.0614 Q28735.0749,32015.0614 28735.319,32015.3381 Q28735.5632,32015.6148 28735.5632,32016.2496 L28735.5632,32018.984 L28727.2298,32018.984 Q28726.5788,32018.984 28726.3021,32018.7398 Q28726.0417,32018.4957 28726.0417,32018.0888 Q28726.0417,32017.6982 28726.3184,32017.454 Q28726.5951,32017.2099 28727.2298,32017.2099 L28727.5065,32017.2099 L28727.5065,32010.2763 L28727.2298,32010.2763 Q28726.5788,32010.2763 28726.3021,32010.0321 Q28726.0417,32009.788 28726.0417,32009.3811 Q28726.0417,32008.9905 28726.3021,32008.7463 Q28726.5788,32008.5022 28727.2298,32008.5022 L28735.1725,32008.5022 L28735.1725,32011.204 Q28735.1725,32011.8388 28734.9284,32012.1155 Q28734.7005,32012.3759 28734.2936,32012.3759 Q28733.903,32012.3759 28733.6589,32012.1155 Q28733.4147,32011.8388 28733.4147,32011.204 L28733.4147,32010.2763 L28729.2806,32010.2763 L28729.2806,32012.8316 L28730.8268,32012.8316 Q28730.8268,32012.148 28730.957,32011.9527 Q28731.2337,32011.5295 28731.722,32011.5295 Q28732.1126,32011.5295 28732.3568,32011.8062 Q28732.6009,32012.0667 28732.6009,32012.7014 L28732.6009,32014.7522 Q28732.6009,32015.3219 28732.4707,32015.5172 Q28732.194,32015.9241 28731.722,32015.9241 Q28731.2337,32015.9241 28730.957,32015.5009 Q28730.8268,32015.3056 28730.8268,32014.6057 L28729.2806,32014.6057 Z " fill="#FFFFFF"/><text fill="#FFFFFF" font-family="Consolas" font-size="520.8333" lengthAdjust="spacing" textLength="2578.125" x="28960.1563" y="32184.6741">pricelist</text><line style="stroke:#2196F3;stroke-width:1.0416666666666667;" x1="26717.1875" x2="33747.3958" y1="32532.2388" y2="32532.2388"/><ellipse cx="26727.6042" cy="33051.2227" fill="none" rx="3.125" ry="3.125" style="stroke:#1A78C2;stroke-width:1.0416666666666667;"/><text fill="#FFFFFF" font-family="Consolas" font-size="520.8333" lengthAdjust="spacing" textLength="6588.5417" x="26945.3125" y="33220.5587">id_pricelist : INT &#171;PK&#187;</text><line style="stroke:#2196F3;stroke-width:1.0416666666666667;" x1="26717.1875" x2="33747.3958" y1="33567.0817" y2="33567.0817"/><text fill="#FFFFFF" font-family="Consolas" font-size="520.8333" lengthAdjust="spacing" textLength="6302.0833" x="26930.7292" y="34255.4016">service : VARCHAR(100)</text><text fill="#FFFFFF" font-family="Consolas" font-size="520.8333" lengthAdjust="spacing" textLength="4869.7917" x="26930.7292" y="35281.9112">keterangan : TEXT</text><text fill="#FFFFFF" font-family="Consolas" font-size="520.8333" lengthAdjust="spacing" textLength="4296.875" x="26930.7292" y="36308.4208">harga : DECIMAL</text><text fill="#FFFFFF" font-family="Consolas" font-size="520.8333" lengthAdjust="spacing" textLength="6015.625" x="26930.7292" y="37334.9304">created_at : DATETIME</text></g><!--class stok_produk--><g id="elem_stok_produk"><rect codeLine="223" fill="url(#glho0mkou6yxi0)" filter="url(#flho0mkou6yxi)" height="7212.6506" id="stok_produk" rx="4.1667" ry="4.1667" style="stroke:#2196F3;stroke-width:1.0416666666666667;" width="6444.7917" x="31384.8958" y="42330.7292"/><rect fill="url(#glho0mkou6yxi1)" height="1036.9263" rx="4.1667" ry="4.1667" style="stroke:url(#glho0mkou6yxi1);stroke-width:1.0416666666666667;" width="6444.7917" x="31384.8958" y="42330.7292"/><rect fill="url(#glho0mkou6yxi1)" height="4.1667" style="stroke:url(#glho0mkou6yxi1);stroke-width:1.0416666666666667;" width="6444.7917" x="31384.8958" y="43363.4888"/><rect codeLine="223" fill="none" height="7212.6506" id="stok_produk" rx="4.1667" ry="4.1667" style="stroke:#2196F3;stroke-width:1.0416666666666667;" width="6444.7917" x="31384.8958" y="42330.7292"/><ellipse cx="32819.0104" cy="42849.1923" fill="none" rx="11.4583" ry="11.4583" style="stroke:#1A78C2;stroke-width:1.0416666666666667;"/><path d="M32817.8223,42850.0224 L32817.8223,42852.6265 L32822.3307,42852.6265 L32822.3307,42851.6663 Q32822.3307,42851.0315 32822.5749,42850.7548 Q32822.8353,42850.4781 32823.2259,42850.4781 Q32823.6165,42850.4781 32823.8607,42850.7548 Q32824.1048,42851.0315 32824.1048,42851.6663 L32824.1048,42854.4006 L32815.7715,42854.4006 Q32815.1204,42854.4006 32814.8438,42854.1565 Q32814.5833,42853.9124 32814.5833,42853.5055 Q32814.5833,42853.1148 32814.86,42852.8707 Q32815.1367,42852.6265 32815.7715,42852.6265 L32816.0482,42852.6265 L32816.0482,42845.693 L32815.7715,42845.693 Q32815.1204,42845.693 32814.8438,42845.4488 Q32814.5833,42845.2047 32814.5833,42844.7978 Q32814.5833,42844.4071 32814.8438,42844.163 Q32815.1204,42843.9189 32815.7715,42843.9189 L32823.7142,42843.9189 L32823.7142,42846.6207 Q32823.7142,42847.2555 32823.4701,42847.5321 Q32823.2422,42847.7926 32822.8353,42847.7926 Q32822.4447,42847.7926 32822.2005,42847.5321 Q32821.9564,42847.2555 32821.9564,42846.6207 L32821.9564,42845.693 L32817.8223,42845.693 L32817.8223,42848.2483 L32819.3685,42848.2483 Q32819.3685,42847.5647 32819.4987,42847.3694 Q32819.7754,42846.9462 32820.2637,42846.9462 Q32820.6543,42846.9462 32820.8984,42847.2229 Q32821.1426,42847.4833 32821.1426,42848.1181 L32821.1426,42850.1689 Q32821.1426,42850.7385 32821.0124,42850.9338 Q32820.7357,42851.3407 32820.2637,42851.3407 Q32819.7754,42851.3407 32819.4987,42850.9176 Q32819.3685,42850.7222 32819.3685,42850.0224 L32817.8223,42850.0224 Z " fill="#FFFFFF"/><text fill="#FFFFFF" font-family="Consolas" font-size="520.8333" lengthAdjust="spacing" textLength="3151.0417" x="33048.6979" y="43020.0907">stok_produk</text><line style="stroke:#2196F3;stroke-width:1.0416666666666667;" x1="31385.9375" x2="37828.6458" y1="43367.6554" y2="43367.6554"/><ellipse cx="31396.3542" cy="43886.6394" fill="none" rx="3.125" ry="3.125" style="stroke:#1A78C2;stroke-width:1.0416666666666667;"/><text fill="#FFFFFF" font-family="Consolas" font-size="520.8333" lengthAdjust="spacing" textLength="5156.25" x="31614.0625" y="44055.9753">id_stok : INT &#171;PK&#187;</text><line style="stroke:#2196F3;stroke-width:1.0416666666666667;" x1="31385.9375" x2="37828.6458" y1="44402.4984" y2="44402.4984"/><text fill="#FFFFFF" font-family="Consolas" font-size="520.8333" lengthAdjust="spacing" textLength="5729.1667" x="31599.4792" y="45090.8183">id_produk : INT &#171;FK&#187;</text><text fill="#FFFFFF" font-family="Consolas" font-size="520.8333" lengthAdjust="spacing" textLength="5442.7083" x="31599.4792" y="46117.3279">id_store : INT &#171;FK&#187;</text><text fill="#FFFFFF" font-family="Consolas" font-size="520.8333" lengthAdjust="spacing" textLength="4869.7917" x="31599.4792" y="47143.8375">jumlah_stok : INT</text><text fill="#FFFFFF" font-family="Consolas" font-size="520.8333" lengthAdjust="spacing" textLength="4583.3333" x="31599.4792" y="48170.3471">stok_akhir : INT</text><text fill="#FFFFFF" font-family="Consolas" font-size="520.8333" lengthAdjust="spacing" textLength="6015.625" x="31599.4792" y="49196.8567">updated_at : DATETIME</text></g><!--class komisi_setting--><g id="elem_komisi_setting"><rect codeLine="245" fill="url(#glho0mkou6yxi0)" filter="url(#flho0mkou6yxi)" height="5159.6313" id="komisi_setting" rx="4.1667" ry="4.1667" style="stroke:#2196F3;stroke-width:1.0416666666666667;" width="8450" x="44834.375" y="43357.2917"/><rect fill="url(#glho0mkou6yxi1)" height="1036.9263" rx="4.1667" ry="4.1667" style="stroke:url(#glho0mkou6yxi1);stroke-width:1.0416666666666667;" width="8450" x="44834.375" y="43357.2917"/><rect fill="url(#glho0mkou6yxi1)" height="4.1667" style="stroke:url(#glho0mkou6yxi1);stroke-width:1.0416666666666667;" width="8450" x="44834.375" y="44390.0513"/><rect codeLine="245" fill="none" height="5159.6313" id="komisi_setting" rx="4.1667" ry="4.1667" style="stroke:#2196F3;stroke-width:1.0416666666666667;" width="8450" x="44834.375" y="43357.2917"/><ellipse cx="46841.4063" cy="43875.7548" fill="none" rx="11.4583" ry="11.4583" style="stroke:#1A78C2;stroke-width:1.0416666666666667;"/><path d="M46840.2181,43876.5849 L46840.2181,43879.189 L46844.7266,43879.189 L46844.7266,43878.2288 Q46844.7266,43877.594 46844.9707,43877.3173 Q46845.2311,43877.0406 46845.6217,43877.0406 Q46846.0124,43877.0406 46846.2565,43877.3173 Q46846.5007,43877.594 46846.5007,43878.2288 L46846.5007,43880.9631 L46838.1673,43880.9631 Q46837.5163,43880.9631 46837.2396,43880.719 Q46836.9792,43880.4749 46836.9792,43880.068 Q46836.9792,43879.6773 46837.2559,43879.4332 Q46837.5326,43879.189 46838.1673,43879.189 L46838.444,43879.189 L46838.444,43872.2555 L46838.1673,43872.2555 Q46837.5163,43872.2555 46837.2396,43872.0113 Q46836.9792,43871.7672 46836.9792,43871.3603 Q46836.9792,43870.9696 46837.2396,43870.7255 Q46837.5163,43870.4814 46838.1673,43870.4814 L46846.11,43870.4814 L46846.11,43873.1832 Q46846.11,43873.818 46845.8659,43874.0946 Q46845.638,43874.3551 46845.2311,43874.3551 Q46844.8405,43874.3551 46844.5964,43874.0946 Q46844.3522,43873.818 46844.3522,43873.1832 L46844.3522,43872.2555 L46840.2181,43872.2555 L46840.2181,43874.8108 L46841.7643,43874.8108 Q46841.7643,43874.1272 46841.8945,43873.9319 Q46842.1712,43873.5087 46842.6595,43873.5087 Q46843.0501,43873.5087 46843.2943,43873.7854 Q46843.5384,43874.0458 46843.5384,43874.6806 L46843.5384,43876.7314 Q46843.5384,43877.301 46843.4082,43877.4963 Q46843.1315,43877.9032 46842.6595,43877.9032 Q46842.1712,43877.9032 46841.8945,43877.4801 Q46841.7643,43877.2847 46841.7643,43876.5849 L46840.2181,43876.5849 Z " fill="#FFFFFF"/><text fill="#FFFFFF" font-family="Consolas" font-size="520.8333" lengthAdjust="spacing" textLength="4010.4167" x="47071.0938" y="44046.6532">komisi_setting</text><line style="stroke:#2196F3;stroke-width:1.0416666666666667;" x1="44835.4167" x2="53283.3333" y1="44394.2179" y2="44394.2179"/><ellipse cx="44845.8333" cy="44913.2019" fill="none" rx="3.125" ry="3.125" style="stroke:#1A78C2;stroke-width:1.0416666666666667;"/><text fill="#FFFFFF" font-family="Consolas" font-size="520.8333" lengthAdjust="spacing" textLength="6015.625" x="45063.5417" y="45082.5378">id_setting : INT &#171;PK&#187;</text><line style="stroke:#2196F3;stroke-width:1.0416666666666667;" x1="44835.4167" x2="53283.3333" y1="45429.0609" y2="45429.0609"/><text fill="#FFFFFF" font-family="Consolas" font-size="520.8333" lengthAdjust="spacing" textLength="6015.625" x="45048.9583" y="46117.3808">id_capster : INT &#171;FK&#187;</text><text fill="#FFFFFF" font-family="Consolas" font-size="520.8333" lengthAdjust="spacing" textLength="8020.8333" x="45048.9583" y="47143.8904">persentase_capster : DECIMAL</text><text fill="#FFFFFF" font-family="Consolas" font-size="520.8333" lengthAdjust="spacing" textLength="6015.625" x="45048.9583" y="48170.4">updated_at : DATETIME</text></g><!--class gaji_setting--><g id="elem_gaji_setting"><rect codeLine="253" fill="url(#glho0mkou6yxi0)" filter="url(#flho0mkou6yxi)" height="8239.1602" id="gaji_setting" rx="4.1667" ry="4.1667" style="stroke:#2196F3;stroke-width:1.0416666666666667;" width="7891.6667" x="48546.875" y="53679.1667"/><rect fill="url(#glho0mkou6yxi1)" height="1036.9263" rx="4.1667" ry="4.1667" style="stroke:url(#glho0mkou6yxi1);stroke-width:1.0416666666666667;" width="7891.6667" x="48546.875" y="53679.1667"/><rect fill="url(#glho0mkou6yxi1)" height="4.1667" style="stroke:url(#glho0mkou6yxi1);stroke-width:1.0416666666666667;" width="7891.6667" x="48546.875" y="54711.9263"/><rect codeLine="253" fill="none" height="8239.1602" id="gaji_setting" rx="4.1667" ry="4.1667" style="stroke:#2196F3;stroke-width:1.0416666666666667;" width="7891.6667" x="48546.875" y="53679.1667"/><ellipse cx="50561.1979" cy="54197.6298" fill="none" rx="11.4583" ry="11.4583" style="stroke:#1A78C2;stroke-width:1.0416666666666667;"/><path d="M50560.0098,54198.4599 L50560.0098,54201.064 L50564.5182,54201.064 L50564.5182,54200.1038 Q50564.5182,54199.469 50564.7624,54199.1923 Q50565.0228,54198.9156 50565.4134,54198.9156 Q50565.804,54198.9156 50566.0482,54199.1923 Q50566.2923,54199.469 50566.2923,54200.1038 L50566.2923,54202.8381 L50557.959,54202.8381 Q50557.3079,54202.8381 50557.0313,54202.594 Q50556.7708,54202.3499 50556.7708,54201.943 Q50556.7708,54201.5523 50557.0475,54201.3082 Q50557.3242,54201.064 50557.959,54201.064 L50558.2357,54201.064 L50558.2357,54194.1305 L50557.959,54194.1305 Q50557.3079,54194.1305 50557.0313,54193.8863 Q50556.7708,54193.6422 50556.7708,54193.2353 Q50556.7708,54192.8446 50557.0313,54192.6005 Q50557.3079,54192.3564 50557.959,54192.3564 L50565.9017,54192.3564 L50565.9017,54195.0582 Q50565.9017,54195.693 50565.6576,54195.9696 Q50565.4297,54196.2301 50565.0228,54196.2301 Q50564.6322,54196.2301 50564.388,54195.9696 Q50564.1439,54195.693 50564.1439,54195.0582 L50564.1439,54194.1305 L50560.0098,54194.1305 L50560.0098,54196.6858 L50561.556,54196.6858 Q50561.556,54196.0022 50561.6862,54195.8069 Q50561.9629,54195.3837 50562.4512,54195.3837 Q50562.8418,54195.3837 50563.0859,54195.6604 Q50563.3301,54195.9208 50563.3301,54196.5556 L50563.3301,54198.6064 Q50563.3301,54199.176 50563.1999,54199.3713 Q50562.9232,54199.7782 50562.4512,54199.7782 Q50561.9629,54199.7782 50561.6862,54199.3551 Q50561.556,54199.1597 50561.556,54198.4599 L50560.0098,54198.4599 Z " fill="#FFFFFF"/><text fill="#FFFFFF" font-family="Consolas" font-size="520.8333" lengthAdjust="spacing" textLength="3437.5" x="50790.8854" y="54368.5282">gaji_setting</text><line style="stroke:#2196F3;stroke-width:1.0416666666666667;" x1="48547.9167" x2="56437.5" y1="54716.0929" y2="54716.0929"/><ellipse cx="48558.3333" cy="55235.0769" fill="none" rx="3.125" ry="3.125" style="stroke:#1A78C2;stroke-width:1.0416666666666667;"/><text fill="#FFFFFF" font-family="Consolas" font-size="520.8333" lengthAdjust="spacing" textLength="7447.9167" x="48776.0417" y="55404.4128">id_gaji_setting : INT &#171;PK&#187;</text><line style="stroke:#2196F3;stroke-width:1.0416666666666667;" x1="48547.9167" x2="56437.5" y1="55750.9359" y2="55750.9359"/><text fill="#FFFFFF" font-family="Consolas" font-size="520.8333" lengthAdjust="spacing" textLength="6015.625" x="48761.4583" y="56439.2558">id_capster : INT &#171;FK&#187;</text><text fill="#FFFFFF" font-family="Consolas" font-size="520.8333" lengthAdjust="spacing" textLength="5442.7083" x="48761.4583" y="57465.7654">id_kasir : INT &#171;FK&#187;</text><text fill="#FFFFFF" font-family="Consolas" font-size="520.8333" lengthAdjust="spacing" textLength="5156.25" x="48761.4583" y="58492.275">id_user : INT &#171;FK&#187;</text><text fill="#FFFFFF" font-family="Consolas" font-size="520.8333" lengthAdjust="spacing" textLength="5729.1667" x="48761.4583" y="59518.7846">gaji_pokok : DECIMAL</text><text fill="#FFFFFF" font-family="Consolas" font-size="520.8333" lengthAdjust="spacing" textLength="4010.4167" x="48761.4583" y="60545.2942">periode : ENUM</text><text fill="#FFFFFF" font-family="Consolas" font-size="520.8333" lengthAdjust="spacing" textLength="6015.625" x="48761.4583" y="61571.8038">updated_at : DATETIME</text></g><!--class bonus--><g id="elem_bonus"><rect codeLine="264" fill="url(#glho0mkou6yxi0)" filter="url(#flho0mkou6yxi)" height="12345.1986" id="bonus" rx="4.1667" ry="4.1667" style="stroke:#2196F3;stroke-width:1.0416666666666667;" width="7877.0833" x="48554.1667" y="65028.125"/><rect fill="url(#glho0mkou6yxi1)" height="1036.9263" rx="4.1667" ry="4.1667" style="stroke:url(#glho0mkou6yxi1);stroke-width:1.0416666666666667;" width="7877.0833" x="48554.1667" y="65028.125"/><rect fill="url(#glho0mkou6yxi1)" height="4.1667" style="stroke:url(#glho0mkou6yxi1);stroke-width:1.0416666666666667;" width="7877.0833" x="48554.1667" y="66060.8846"/><rect codeLine="264" fill="none" height="12345.1986" id="bonus" rx="4.1667" ry="4.1667" style="stroke:#2196F3;stroke-width:1.0416666666666667;" width="7877.0833" x="48554.1667" y="65028.125"/><ellipse cx="51563.8021" cy="65546.5881" fill="none" rx="11.4583" ry="11.4583" style="stroke:#1A78C2;stroke-width:1.0416666666666667;"/><path d="M51562.6139,65547.4182 L51562.6139,65550.0224 L51567.1224,65550.0224 L51567.1224,65549.0621 Q51567.1224,65548.4273 51567.3665,65548.1506 Q51567.627,65547.8739 51568.0176,65547.8739 Q51568.4082,65547.8739 51568.6523,65548.1506 Q51568.8965,65548.4273 51568.8965,65549.0621 L51568.8965,65551.7965 L51560.5632,65551.7965 Q51559.9121,65551.7965 51559.6354,65551.5523 Q51559.375,65551.3082 51559.375,65550.9013 Q51559.375,65550.5107 51559.6517,65550.2665 Q51559.9284,65550.0224 51560.5632,65550.0224 L51560.8398,65550.0224 L51560.8398,65543.0888 L51560.5632,65543.0888 Q51559.9121,65543.0888 51559.6354,65542.8446 Q51559.375,65542.6005 51559.375,65542.1936 Q51559.375,65541.803 51559.6354,65541.5588 Q51559.9121,65541.3147 51560.5632,65541.3147 L51568.5059,65541.3147 L51568.5059,65544.0165 Q51568.5059,65544.6513 51568.2617,65544.928 Q51568.0339,65545.1884 51567.627,65545.1884 Q51567.2363,65545.1884 51566.9922,65544.928 Q51566.748,65544.6513 51566.748,65544.0165 L51566.748,65543.0888 L51562.6139,65543.0888 L51562.6139,65545.6441 L51564.1602,65545.6441 Q51564.1602,65544.9605 51564.2904,65544.7652 Q51564.5671,65544.342 51565.0553,65544.342 Q51565.446,65544.342 51565.6901,65544.6187 Q51565.9342,65544.8792 51565.9342,65545.5139 L51565.9342,65547.5647 Q51565.9342,65548.1344 51565.804,65548.3297 Q51565.5273,65548.7366 51565.0553,65548.7366 Q51564.5671,65548.7366 51564.2904,65548.3134 Q51564.1602,65548.1181 51564.1602,65547.4182 L51562.6139,65547.4182 Z " fill="#FFFFFF"/><text fill="#FFFFFF" font-family="Consolas" font-size="520.8333" lengthAdjust="spacing" textLength="1432.2917" x="51793.4896" y="65717.4866">bonus</text><line style="stroke:#2196F3;stroke-width:1.0416666666666667;" x1="48555.2083" x2="56430.2083" y1="66065.0513" y2="66065.0513"/><ellipse cx="48565.625" cy="66584.0352" fill="none" rx="3.125" ry="3.125" style="stroke:#1A78C2;stroke-width:1.0416666666666667;"/><text fill="#FFFFFF" font-family="Consolas" font-size="520.8333" lengthAdjust="spacing" textLength="5442.7083" x="48783.3333" y="66753.3712">id_bonus : INT &#171;PK&#187;</text><line style="stroke:#2196F3;stroke-width:1.0416666666666667;" x1="48555.2083" x2="56430.2083" y1="67099.8942" y2="67099.8942"/><text fill="#FFFFFF" font-family="Consolas" font-size="520.8333" lengthAdjust="spacing" textLength="6015.625" x="48768.75" y="67788.2141">id_capster : INT &#171;FK&#187;</text><text fill="#FFFFFF" font-family="Consolas" font-size="520.8333" lengthAdjust="spacing" textLength="5442.7083" x="48768.75" y="68814.7237">id_kasir : INT &#171;FK&#187;</text><text fill="#FFFFFF" font-family="Consolas" font-size="520.8333" lengthAdjust="spacing" textLength="5156.25" x="48768.75" y="69841.2333">id_user : INT &#171;FK&#187;</text><text fill="#FFFFFF" font-family="Consolas" font-size="520.8333" lengthAdjust="spacing" textLength="7447.9167" x="48768.75" y="70867.7429">judul_bonus : VARCHAR(100)</text><text fill="#FFFFFF" font-family="Consolas" font-size="520.8333" lengthAdjust="spacing" textLength="4583.3333" x="48768.75" y="71894.2525">jumlah : DECIMAL</text><text fill="#FFFFFF" font-family="Consolas" font-size="520.8333" lengthAdjust="spacing" textLength="4869.7917" x="48768.75" y="72920.7621">keterangan : TEXT</text><text fill="#FFFFFF" font-family="Consolas" font-size="520.8333" lengthAdjust="spacing" textLength="6875" x="48768.75" y="73947.2717">tanggal_diberikan : DATE</text><text fill="#FFFFFF" font-family="Consolas" font-size="520.8333" lengthAdjust="spacing" textLength="4869.7917" x="48768.75" y="74973.7813">periode : CHAR(7)</text><text fill="#FFFFFF" font-family="Consolas" font-size="520.8333" lengthAdjust="spacing" textLength="3723.9583" x="48768.75" y="76000.2909">status : ENUM</text><text fill="#FFFFFF" font-family="Consolas" font-size="520.8333" lengthAdjust="spacing" textLength="6015.625" x="48768.75" y="77026.8005">created_at : DATETIME</text></g><!--class kasbon--><g id="elem_kasbon"><rect codeLine="279" fill="url(#glho0mkou6yxi0)" filter="url(#flho0mkou6yxi)" height="13371.7082" id="kasbon" rx="4.1667" ry="4.1667" style="stroke:#2196F3;stroke-width:1.0416666666666667;" width="7590.625" x="48697.3958" y="77915.625"/><rect fill="url(#glho0mkou6yxi1)" height="1036.9263" rx="4.1667" ry="4.1667" style="stroke:url(#glho0mkou6yxi1);stroke-width:1.0416666666666667;" width="7590.625" x="48697.3958" y="77915.625"/><rect fill="url(#glho0mkou6yxi1)" height="4.1667" style="stroke:url(#glho0mkou6yxi1);stroke-width:1.0416666666666667;" width="7590.625" x="48697.3958" y="78948.3846"/><rect codeLine="279" fill="none" height="13371.7082" id="kasbon" rx="4.1667" ry="4.1667" style="stroke:#2196F3;stroke-width:1.0416666666666667;" width="7590.625" x="48697.3958" y="77915.625"/><ellipse cx="51420.5729" cy="78434.0881" fill="none" rx="11.4583" ry="11.4583" style="stroke:#1A78C2;stroke-width:1.0416666666666667;"/><path d="M51419.3848,78434.9182 L51419.3848,78437.5224 L51423.8932,78437.5224 L51423.8932,78436.5621 Q51423.8932,78435.9273 51424.1374,78435.6506 Q51424.3978,78435.3739 51424.7884,78435.3739 Q51425.179,78435.3739 51425.4232,78435.6506 Q51425.6673,78435.9273 51425.6673,78436.5621 L51425.6673,78439.2965 L51417.334,78439.2965 Q51416.6829,78439.2965 51416.4063,78439.0523 Q51416.1458,78438.8082 51416.1458,78438.4013 Q51416.1458,78438.0107 51416.4225,78437.7665 Q51416.6992,78437.5224 51417.334,78437.5224 L51417.6107,78437.5224 L51417.6107,78430.5888 L51417.334,78430.5888 Q51416.6829,78430.5888 51416.4063,78430.3446 Q51416.1458,78430.1005 51416.1458,78429.6936 Q51416.1458,78429.303 51416.4063,78429.0588 Q51416.6829,78428.8147 51417.334,78428.8147 L51425.2767,78428.8147 L51425.2767,78431.5165 Q51425.2767,78432.1513 51425.0326,78432.428 Q51424.8047,78432.6884 51424.3978,78432.6884 Q51424.0072,78432.6884 51423.763,78432.428 Q51423.5189,78432.1513 51423.5189,78431.5165 L51423.5189,78430.5888 L51419.3848,78430.5888 L51419.3848,78433.1441 L51420.931,78433.1441 Q51420.931,78432.4605 51421.0612,78432.2652 Q51421.3379,78431.842 51421.8262,78431.842 Q51422.2168,78431.842 51422.4609,78432.1187 Q51422.7051,78432.3792 51422.7051,78433.0139 L51422.7051,78435.0647 Q51422.7051,78435.6344 51422.5749,78435.8297 Q51422.2982,78436.2366 51421.8262,78436.2366 Q51421.3379,78436.2366 51421.0612,78435.8134 Q51420.931,78435.6181 51420.931,78434.9182 L51419.3848,78434.9182 Z " fill="#FFFFFF"/><text fill="#FFFFFF" font-family="Consolas" font-size="520.8333" lengthAdjust="spacing" textLength="1718.75" x="51650.2604" y="78604.9866">kasbon</text><line style="stroke:#2196F3;stroke-width:1.0416666666666667;" x1="48698.4375" x2="56286.9792" y1="78952.5513" y2="78952.5513"/><ellipse cx="48708.8542" cy="79471.5352" fill="none" rx="3.125" ry="3.125" style="stroke:#1A78C2;stroke-width:1.0416666666666667;"/><text fill="#FFFFFF" font-family="Consolas" font-size="520.8333" lengthAdjust="spacing" textLength="5729.1667" x="48926.5625" y="79640.8712">id_kasbon : INT &#171;PK&#187;</text><line style="stroke:#2196F3;stroke-width:1.0416666666666667;" x1="48698.4375" x2="56286.9792" y1="79987.3942" y2="79987.3942"/><text fill="#FFFFFF" font-family="Consolas" font-size="520.8333" lengthAdjust="spacing" textLength="6015.625" x="48911.9792" y="80675.7141">id_capster : INT &#171;FK&#187;</text><text fill="#FFFFFF" font-family="Consolas" font-size="520.8333" lengthAdjust="spacing" textLength="5442.7083" x="48911.9792" y="81702.2237">id_kasir : INT &#171;FK&#187;</text><text fill="#FFFFFF" font-family="Consolas" font-size="520.8333" lengthAdjust="spacing" textLength="6302.0833" x="48911.9792" y="82728.7333">jumlah_total : DECIMAL</text><text fill="#FFFFFF" font-family="Consolas" font-size="520.8333" lengthAdjust="spacing" textLength="6015.625" x="48911.9792" y="83755.2429">sisa_kasbon : DECIMAL</text><text fill="#FFFFFF" font-family="Consolas" font-size="520.8333" lengthAdjust="spacing" textLength="5729.1667" x="48911.9792" y="84781.7525">jumlah_cicilan : INT</text><text fill="#FFFFFF" font-family="Consolas" font-size="520.8333" lengthAdjust="spacing" textLength="6302.0833" x="48911.9792" y="85808.2621">cicilan_terbayar : INT</text><text fill="#FFFFFF" font-family="Consolas" font-size="520.8333" lengthAdjust="spacing" textLength="7161.4583" x="48911.9792" y="86834.7717">keterangan : VARCHAR(255)</text><text fill="#FFFFFF" font-family="Consolas" font-size="520.8333" lengthAdjust="spacing" textLength="3723.9583" x="48911.9792" y="87861.2813">status : ENUM</text><text fill="#FFFFFF" font-family="Consolas" font-size="520.8333" lengthAdjust="spacing" textLength="6015.625" x="48911.9792" y="88887.7909">tanggal_pinjam : DATE</text><text fill="#FFFFFF" font-family="Consolas" font-size="520.8333" lengthAdjust="spacing" textLength="6015.625" x="48911.9792" y="89914.3005">created_at : DATETIME</text><text fill="#FFFFFF" font-family="Consolas" font-size="520.8333" lengthAdjust="spacing" textLength="6015.625" x="48911.9792" y="90940.8101">updated_at : DATETIME</text></g><!--class potongan_kasbon--><g id="elem_potongan_kasbon"><rect codeLine="295" fill="url(#glho0mkou6yxi0)" filter="url(#flho0mkou6yxi)" height="10292.1794" id="potongan_kasbon" rx="4.1667" ry="4.1667" style="stroke:#2196F3;stroke-width:1.0416666666666667;" width="7590.625" x="48696.3542" y="92857.2917"/><rect fill="url(#glho0mkou6yxi1)" height="1036.9263" rx="4.1667" ry="4.1667" style="stroke:url(#glho0mkou6yxi1);stroke-width:1.0416666666666667;" width="7590.625" x="48696.3542" y="92857.2917"/><rect fill="url(#glho0mkou6yxi1)" height="4.1667" style="stroke:url(#glho0mkou6yxi1);stroke-width:1.0416666666666667;" width="7590.625" x="48696.3542" y="93890.0513"/><rect codeLine="295" fill="none" height="10292.1794" id="potongan_kasbon" rx="4.1667" ry="4.1667" style="stroke:#2196F3;stroke-width:1.0416666666666667;" width="7590.625" x="48696.3542" y="92857.2917"/><ellipse cx="50130.4688" cy="93375.7548" fill="none" rx="11.4583" ry="11.4583" style="stroke:#1A78C2;stroke-width:1.0416666666666667;"/><path d="M50129.2806,93376.5849 L50129.2806,93379.189 L50133.7891,93379.189 L50133.7891,93378.2288 Q50133.7891,93377.594 50134.0332,93377.3173 Q50134.2936,93377.0406 50134.6842,93377.0406 Q50135.0749,93377.0406 50135.319,93377.3173 Q50135.5632,93377.594 50135.5632,93378.2288 L50135.5632,93380.9631 L50127.2298,93380.9631 Q50126.5788,93380.9631 50126.3021,93380.719 Q50126.0417,93380.4749 50126.0417,93380.068 Q50126.0417,93379.6773 50126.3184,93379.4332 Q50126.5951,93379.189 50127.2298,93379.189 L50127.5065,93379.189 L50127.5065,93372.2555 L50127.2298,93372.2555 Q50126.5788,93372.2555 50126.3021,93372.0113 Q50126.0417,93371.7672 50126.0417,93371.3603 Q50126.0417,93370.9696 50126.3021,93370.7255 Q50126.5788,93370.4814 50127.2298,93370.4814 L50135.1725,93370.4814 L50135.1725,93373.1832 Q50135.1725,93373.818 50134.9284,93374.0946 Q50134.7005,93374.3551 50134.2936,93374.3551 Q50133.903,93374.3551 50133.6589,93374.0946 Q50133.4147,93373.818 50133.4147,93373.1832 L50133.4147,93372.2555 L50129.2806,93372.2555 L50129.2806,93374.8108 L50130.8268,93374.8108 Q50130.8268,93374.1272 50130.957,93373.9319 Q50131.2337,93373.5087 50131.722,93373.5087 Q50132.1126,93373.5087 50132.3568,93373.7854 Q50132.6009,93374.0458 50132.6009,93374.6806 L50132.6009,93376.7314 Q50132.6009,93377.301 50132.4707,93377.4963 Q50132.194,93377.9032 50131.722,93377.9032 Q50131.2337,93377.9032 50130.957,93377.4801 Q50130.8268,93377.2847 50130.8268,93376.5849 L50129.2806,93376.5849 Z " fill="#FFFFFF"/><text fill="#FFFFFF" font-family="Consolas" font-size="520.8333" lengthAdjust="spacing" textLength="4296.875" x="50360.1563" y="93546.6532">potongan_kasbon</text><line style="stroke:#2196F3;stroke-width:1.0416666666666667;" x1="48697.3958" x2="56285.9375" y1="93894.2179" y2="93894.2179"/><ellipse cx="48707.8125" cy="94413.2019" fill="none" rx="3.125" ry="3.125" style="stroke:#1A78C2;stroke-width:1.0416666666666667;"/><text fill="#FFFFFF" font-family="Consolas" font-size="520.8333" lengthAdjust="spacing" textLength="6302.0833" x="48925.5208" y="94582.5378">id_potongan : INT &#171;PK&#187;</text><line style="stroke:#2196F3;stroke-width:1.0416666666666667;" x1="48697.3958" x2="56285.9375" y1="94929.0609" y2="94929.0609"/><text fill="#FFFFFF" font-family="Consolas" font-size="520.8333" lengthAdjust="spacing" textLength="5729.1667" x="48910.9375" y="95617.3808">id_kasbon : INT &#171;FK&#187;</text><text fill="#FFFFFF" font-family="Consolas" font-size="520.8333" lengthAdjust="spacing" textLength="6015.625" x="48910.9375" y="96643.8904">id_capster : INT &#171;FK&#187;</text><text fill="#FFFFFF" font-family="Consolas" font-size="520.8333" lengthAdjust="spacing" textLength="5442.7083" x="48910.9375" y="97670.4">id_kasir : INT &#171;FK&#187;</text><text fill="#FFFFFF" font-family="Consolas" font-size="520.8333" lengthAdjust="spacing" textLength="4869.7917" x="48910.9375" y="98696.9096">periode : CHAR(7)</text><text fill="#FFFFFF" font-family="Consolas" font-size="520.8333" lengthAdjust="spacing" textLength="7161.4583" x="48910.9375" y="99723.4192">jumlah_potongan : DECIMAL</text><text fill="#FFFFFF" font-family="Consolas" font-size="520.8333" lengthAdjust="spacing" textLength="7161.4583" x="48910.9375" y="100749.9288">keterangan : VARCHAR(255)</text><text fill="#FFFFFF" font-family="Consolas" font-size="520.8333" lengthAdjust="spacing" textLength="6015.625" x="48910.9375" y="101776.4384">tanggal_potong : DATE</text><text fill="#FFFFFF" font-family="Consolas" font-size="520.8333" lengthAdjust="spacing" textLength="5729.1667" x="48910.9375" y="102802.948">tipe_potongan : ENUM</text></g><!--link store to profil--><!--link store to users--><g id="link_store_users"><path codeLine="105" d="M37493.625,4024.7187 C38250.2708,4414.6458 39002.5625,4887.7292 39625,5447.9167 C40054.125,5834.125 40453.1354,6277.4062 40819.7396,6746.8125 " fill="none" id="store-users" style="stroke:#FFFFFF;stroke-width:46.875;"/><text fill="#FFFFFF" font-family="Consolas" font-size="520.8333" lengthAdjust="spacing" textLength="2864.5833" x="40689.5833" y="6133.1116">bekerja_di</text></g><!--link store to kasir--><g id="link_store_kasir"><path codeLine="106" d="M37493.4896,3268.5938 C41103.6979,3986.0833 46172.0625,5228.875 47476.0417,6746.875 C50679,10475.5417 51159.3021,16369.5937 51087.3854,20147.7188 " fill="none" id="store-kasir" style="stroke:#FFFFFF;stroke-width:46.875;"/><text fill="#FFFFFF" font-family="Consolas" font-size="520.8333" lengthAdjust="spacing" textLength="2291.6667" x="51211.4583" y="12063.8407">memiliki</text></g><!--link store to capster--><g id="link_store_capster"><path codeLine="107" d="M36021.7604,5177.1146 C36386.3958,5673.2917 36728.6563,6207.2708 36990.625,6746.875 C37524.2396,7846.0313 41140.9583,23702.9375 42786.0833,30982.1667 " fill="none" id="store-capster" style="stroke:#FFFFFF;stroke-width:46.875;"/><text fill="#FFFFFF" font-family="Consolas" font-size="520.8333" lengthAdjust="spacing" textLength="2291.6667" x="40098.9583" y="17994.5699">memiliki</text></g><!--link users to kasir--><g id="link_users_kasir"><path codeLine="109" d="M45665.7083,17038.9896 C45701.0938,17129.7917 45736.1667,17219.9792 45770.8333,17309.375 C45947.3438,17764.5 45829.8438,17975.4479 46157.2917,18337.5 C46339.2292,18538.6563 46492.8333,18438.3229 46704.1667,18608.3333 C47261.7604,19056.9063 47792.9583,19593.1979 48277.3958,20147.625 " fill="none" id="users-kasir" style="stroke:#FFFFFF;stroke-width:46.875;"/><text fill="#FFFFFF" font-family="Consolas" font-size="520.8333" lengthAdjust="spacing" textLength="2578.125" x="46366.6667" y="17994.5699">terhubung</text></g><!--link users to kasir--><!--link users to capster--><g id="link_users_capster"><path codeLine="110" d="M43603.5521,17038.8854 C43602.1875,21291.3542 43600.2813,27221.25 43599.0729,30982.2604 " fill="none" id="users-capster" style="stroke:#FFFFFF;stroke-width:46.875;"/><text fill="#FFFFFF" font-family="Consolas" font-size="520.8333" lengthAdjust="spacing" textLength="2578.125" x="43811.4583" y="23925.2991">terhubung</text></g><!--link kasir to capster--><!--link store to transaksi--><g id="link_store_transaksi"><path codeLine="154" d="M32255.4271,5177.2083 C30396.0833,8501.1979 27119.9896,14357.9167 24742.4583,18608.2917 " fill="none" id="store-transaksi" style="stroke:#FFFFFF;stroke-width:46.875;"/><text fill="#FFFFFF" font-family="Consolas" font-size="520.8333" lengthAdjust="spacing" textLength="5156.25" x="31515.625" y="12063.8407">melayani_transaksi</text></g><!--link store to pengeluaran--><g id="link_store_pengeluaran"><path codeLine="155" d="M29902.4583,3628.0313 C24309.5729,5377.0937 14070.9271,9521.2604 9937.5,17309.375 C7966.2604,21023.5417 8464.0833,25839.0729 9320.8646,29442.5521 " fill="none" id="store-pengeluaran" style="stroke:#FFFFFF;stroke-width:46.875;"/><text fill="#FFFFFF" font-family="Consolas" font-size="520.8333" lengthAdjust="spacing" textLength="5729.1667" x="10146.875" y="17994.5699">memiliki_pengeluaran</text></g><!--link users to transaksi--><g id="link_users_transaksi"><path codeLine="156" d="M39952.7813,13678.7604 C37297.2917,14996.25 33629.0313,16857.1042 30466.6667,18608.3333 C28924.8542,19462.1458 27256.5938,20445.6458 25803.2604,21322.5833 " fill="none" id="users-transaksi" style="stroke:#FFFFFF;stroke-width:46.875;"/><text fill="#FFFFFF" font-family="Consolas" font-size="520.8333" lengthAdjust="spacing" textLength="3437.5" x="32797.9167" y="17994.5699">dicatat_oleh</text></g><!--link users to pengeluaran--><g id="link_users_pengeluaran"><path codeLine="157" d="M39953.0625,15364.3958 C39048.1042,16037.5833 38036.1042,16652.9792 36990.625,17038.5417 C36371.0104,17267.0521 31712.2188,17267.6979 31053.125,17309.375 C30159.9792,17365.8542 15679.6771,18029.8229 14996.875,18608.3333 C11904.8021,21228.1354 11007.9896,25843.3854 10823.5729,29442.4271 " fill="none" id="users-pengeluaran" style="stroke:#FFFFFF;stroke-width:46.875;"/><text fill="#FFFFFF" font-family="Consolas" font-size="520.8333" lengthAdjust="spacing" textLength="2291.6667" x="15206.25" y="23925.2991">mencatat</text></g><!--reverse link transaksi to struk--><g id="link_transaksi_struk"><path codeLine="158" d="M17919.4214,28666.2311 C17811.411,28749.1582 17708.6042,28823.8646 17597.9167,28900 C16978.5208,29326.0521 16444.0417,28839.1458 15995.8333,29442.7083 C15189.0208,30529.1563 15273.5417,38995.7708 15373.1875,43357.0833 " fill="none" id="transaksi-backto-struk" style="stroke:#FFFFFF;stroke-width:46.875;"/><line style="stroke:#FFFFFF;stroke-width:46.875;" x1="17920.1889" x2="17925.2637" y1="28660.3887" y2="28666.9986"/><line style="stroke:#FFFFFF;stroke-width:46.875;" x1="17917.7102" x2="17922.785" y1="28662.2918" y2="28668.9017"/><line style="stroke:#FFFFFF;stroke-width:46.875;" x1="17919.4214" x2="17926.0313" y1="28666.2311" y2="28661.1563"/><text fill="#FFFFFF" font-family="Consolas" font-size="520.8333" lengthAdjust="spacing" textLength="4010.4167" x="16205.2083" y="34759.6741">memiliki_struk</text></g><!--link transaksi to pengeluaran--><!--link pengeluaran to struk--><!--link transaksi to transaksi_service_detail--><g id="link_transaksi_transaksi_service_detail"><path codeLine="194" d="M21593.875,28900.1771 C21418.5313,33265.6042 21340.4271,38944.3229 22067.7083,39734.375 C22495.6146,40199.2188 24408.1979,39606.0104 24897.9167,40005.2083 C25329.0938,40356.6875 25660.5417,40807.6979 25914.9479,41303.7813 " fill="none" id="transaksi-transaksi_service_detail" style="stroke:#FFFFFF;stroke-width:46.875;"/><text fill="#FFFFFF" font-family="Consolas" font-size="520.8333" lengthAdjust="spacing" textLength="4010.4167" x="22277.0833" y="34759.6741">detail_service</text></g><!--link transaksi to transaksi_produk_detail--><g id="link_transaksi_transaksi_produk_detail"><path codeLine="195" d="M21408.6979,28900.125 C21393.9167,29083.2188 21379.5104,29264.5208 21365.625,29442.7083 C21165.125,32015.5625 20427.3542,38461.9375 20645.8333,41033.3333 C21009.875,45317.9583 20761.8333,46545.9375 22278.125,50569.7917 C22475.4688,51093.4896 22712.1146,51620.9479 22972.0417,52139.5104 " fill="none" id="transaksi-transaksi_produk_detail" style="stroke:#FFFFFF;stroke-width:46.875;"/><text fill="#FFFFFF" font-family="Consolas" font-size="520.8333" lengthAdjust="spacing" textLength="3723.9583" x="20855.2083" y="40690.4032">detail_produk</text></g><!--link capster to transaksi_service_detail--><g id="link_capster_transaksi_service_detail"><path codeLine="196" d="M40570.6771,38195.0313 C39887.7708,38804.375 39120.6667,39359.9583 38303.125,39734.375 C37056.5938,40305.2604 36554.7083,39651.0521 35230.2083,40005.2083 C34181.8854,40285.5208 34055.4688,40723.0313 33015.625,41033.3333 C32219.3333,41270.9583 31904.3333,40923.5833 31165.625,41304.1667 C31092.2604,41341.9688 31019.4167,41381.4583 30947.125,41422.5 " fill="none" id="capster-transaksi_service_detail" style="stroke:#FFFFFF;stroke-width:46.875;"/><text fill="#FFFFFF" font-family="Consolas" font-size="520.8333" lengthAdjust="spacing" textLength="2291.6667" x="35439.5833" y="40690.4032">melayani</text></g><!--link transaksi_service_detail to transaksi_produk_detail--><!--link produk to stok_produk--><g id="link_produk_stok_produk"><path codeLine="233" d="M34621.6354,26847.7292 C34618.5833,30909.5 34613.2292,38028.7396 34610,42330.5729 " fill="none" id="produk-stok_produk" style="stroke:#FFFFFF;stroke-width:46.875;"/><text fill="#FFFFFF" font-family="Consolas" font-size="520.8333" lengthAdjust="spacing" textLength="3151.0417" x="34829.1667" y="34759.6741">tersedia_di</text></g><!--link produk to transaksi_produk_detail--><g id="link_produk_transaksi_produk_detail"><path codeLine="234" d="M37071.3854,26847.7812 C37575.4688,27649.3958 38033.2396,28541.875 38298.9583,29442.7083 C38465,30005.6354 38336.9792,50058.4167 38048.9583,50569.7917 C36428.4479,53446.9896 33136.7813,55352.3125 30517.5521,56480.8542 " fill="none" id="produk-transaksi_produk_detail" style="stroke:#FFFFFF;stroke-width:46.875;"/><text fill="#FFFFFF" font-family="Consolas" font-size="520.8333" lengthAdjust="spacing" textLength="3723.9583" x="38553.125" y="40690.4032">terjual_dalam</text></g><!--link pricelist to transaksi_service_detail--><g id="link_pricelist_transaksi_service_detail"><path codeLine="235" d="M29275.5208,37682.0625 C28930.1042,38798.5 28532.2708,40084.3958 28154.9896,41303.8333 " fill="none" id="pricelist-transaksi_service_detail" style="stroke:#FFFFFF;stroke-width:46.875;"/><text fill="#FFFFFF" font-family="Consolas" font-size="520.8333" lengthAdjust="spacing" textLength="4010.4167" x="28686.4583" y="40690.4032">digunakan_pada</text></g><!--link produk to pricelist--><!--link pricelist to stok_produk--><!--link capster to komisi_setting--><g id="link_capster_komisi_setting"><path codeLine="308" d="M45333.4583,38195.2292 C46141.1146,39873.1458 47083.3125,41830.6042 47818.1563,43357.2708 " fill="none" id="capster-komisi_setting" style="stroke:#FFFFFF;stroke-width:46.875;"/><text fill="#FFFFFF" font-family="Consolas" font-size="520.8333" lengthAdjust="spacing" textLength="4296.875" x="46864.5833" y="40690.4032">memiliki_komisi</text></g><!--link capster to gaji_setting--><g id="link_capster_gaji_setting"><path codeLine="309" d="M47679.75,36216.9583 C49829.3542,37308.9583 52269.5729,38977.6979 53503.125,41304.1667 C54599.4688,43371.8646 53887.9271,49503.5208 53227.6146,53679.1042 " fill="none" id="capster-gaji_setting" style="stroke:#FFFFFF;stroke-width:46.875;"/><text fill="#FFFFFF" font-family="Consolas" font-size="520.8333" lengthAdjust="spacing" textLength="3723.9583" x="54280.2083" y="46108.1116">memiliki_gaji</text></g><!--link capster to bonus--><g id="link_capster_bonus"><path codeLine="310" d="M43697.0938,38194.9583 C43837.4583,42560.6146 44132.2396,49469.1458 44615.625,50569.7917 C45004.1771,51454.5 45674.9896,51281.7813 46119.7917,52139.5833 C48479.1771,56689.6458 46603.7708,58631.6979 48328.125,63458.3333 C48513.8021,63978.0625 48730.125,64505.4271 48964.7396,65027.9063 " fill="none" id="capster-bonus" style="stroke:#FFFFFF;stroke-width:46.875;"/><text fill="#FFFFFF" font-family="Consolas" font-size="520.8333" lengthAdjust="spacing" textLength="4010.4167" x="46155.2083" y="51525.8199">mendapat_bonus</text></g><!--link capster to kasbon--><g id="link_capster_kasbon"><path codeLine="311" d="M43436.5208,38195.125 C43116.3021,45726.1042 42497.75,62510.5 43300,63458.3333 C43770.6771,64014.4167 44381.4479,63234.9063 44916.6667,63729.1667 C49509.2813,67970.3125 45994.9063,71576.2396 48335.4167,77372.9167 C48447.75,77651.125 48569.1354,77931.6563 48697.3958,78212.3229 " fill="none" id="capster-kasbon" style="stroke:#FFFFFF;stroke-width:46.875;"/><text fill="#FFFFFF" font-family="Consolas" font-size="520.8333" lengthAdjust="spacing" textLength="2291.6667" x="43509.375" y="57970.0907">meminjam</text></g><!--link capster to potongan_kasbon--><g id="link_capster_potongan_kasbon"><path codeLine="312" d="M43175.6667,38195.0313 C43070.4167,39200.2708 42967.5625,40293.7188 42896.875,41304.1667 C42200.8854,51252.8542 42274.6771,53757.75 42096.875,63729.1667 C42092.8125,63957.1354 42096.875,64014.1771 42096.875,64242.1875 C42096.875,64242.1875 42096.875,64242.1875 42205.2083,84602.6042 C42205.2083,89019.1146 45764.8021,92876.375 48696.0729,95304.0417 " fill="none" id="capster-potongan_kasbon" style="stroke:#FFFFFF;stroke-width:46.875;"/><text fill="#FFFFFF" font-family="Consolas" font-size="520.8333" lengthAdjust="spacing" textLength="2291.6667" x="42306.25" y="64414.3616">dipotong</text></g><!--link kasir to bonus--><g id="link_kasir_bonus"><path codeLine="314" d="M54623.5625,26546.1771 C56829.1667,28513.1875 59177.0833,31364.1042 59177.0833,34587.5 C59177.0833,34587.5 59177.0833,34587.5 59177.0833,57800 C59177.0833,60729.7292 57881.7188,63676.7188 56431.4688,66058.0208 " fill="none" id="kasir-bonus" style="stroke:#FFFFFF;stroke-width:46.875;"/><text fill="#FFFFFF" font-family="Consolas" font-size="520.8333" lengthAdjust="spacing" textLength="2864.5833" x="59386.4583" y="46108.1116">memberikan</text></g><!--link kasir to kasbon--><g id="link_kasir_kasbon"><path codeLine="315" d="M54623.5521,25219.5833 C58233.75,26889.8333 63117.7083,29997.5938 63117.7083,34587.5 C63117.7083,34587.5 63117.7083,34587.5 63117.7083,71201.5625 C63117.7083,75734.1042 59338.7917,79625.9688 56288.2604,82029.2708 " fill="none" id="kasir-kasbon" style="stroke:#FFFFFF;stroke-width:46.875;"/><text fill="#FFFFFF" font-family="Consolas" font-size="520.8333" lengthAdjust="spacing" textLength="2291.6667" x="63327.0833" y="51525.8199">mencatat</text></g><!--link kasir to potongan_kasbon--><g id="link_kasir_potongan_kasbon"><path codeLine="316" d="M54623.7188,24672.6146 C59133.0938,26015.6458 66053.125,28988.7396 66053.125,34587.5 C66053.125,34587.5 66053.125,34587.5 66053.125,84602.6042 C66053.125,90121.875 60299.0104,94136.2188 56287.0417,96264.3854 " fill="none" id="kasir-potongan_kasbon" style="stroke:#FFFFFF;stroke-width:46.875;"/><text fill="#FFFFFF" font-family="Consolas" font-size="520.8333" lengthAdjust="spacing" textLength="4869.7917" x="66262.5" y="57970.0907">mencatat_potongan</text></g><!--link kasbon to potongan_kasbon--><g id="link_kasbon_potongan_kasbon"><path codeLine="318" d="M49491.3229,91287.6354 C49483.3438,91724.3646 49525.5313,92159.9375 49631.25,92586.4583 C49653.5938,92676.6042 49677.7396,92766.9063 49703.5521,92857.2396 " fill="none" id="kasbon-potongan_kasbon" style="stroke:#FFFFFF;stroke-width:46.875;"/><text fill="#FFFFFF" font-family="Consolas" font-size="520.8333" lengthAdjust="spacing" textLength="4869.7917" x="49840.625" y="92243.5282">memiliki_potongan</text></g><!--link kasbon to potongan_kasbon--><!--link komisi_setting to gaji_setting--><!--link gaji_setting to bonus--><!--link bonus to kasbon--><!--SRC=[lHXTRzisy5s_WiiUscu8a2PnLXHT0SLHKYs9RLXAkcuO3DfYRKQoQ4ZKYdOPi1_HzptjZ-qNx2Vi-26Hagmw7zxya8Xtn-FTyJxv5L-G9K5Bp4b6iUCuJz3t3_h1Hl4R3OFG6wFBuOc7_lxZCmgkHcBf1e5_xI5t3_M7WrF_x6hiXlvmyF3JyfYcAvpX9PhYMJpFM956VPQm37sz9tyMHKJUuoBXfopb0mpAxlHPchC4vplhYJIVz_AtdYIWdmZgxUsXwlS4_VFdvx_GwN0GQgMFlS0TMnP5eNjyuQ70_yb3JpM9V_OCjJGQuIYYwHpjrxHumpBw2Ox6IOL_OUElISRfpC8UxLbd1oEtxm_EoeFV-YVUcfF7E8rpiaAzVPlpW4L4G0y1Qh7q1g4VlaD1-0wqQh4YAQVy8_hDGUYuUKFxHmVx1oy0KxDs5FLwWffb4Sd21Pt5ASbpT0ImiTgSfIG3hPtVM-Uud6TqMd3IvlX5ql8UMrHAYigZ20PFi8Xmbh4FKhcwio1a13_ibPvnXZEQeod9SORm7Fv0i87ROXG10jtWOW4gEPoj46TeoZXdu6mq8pDEMUeyBYZ7mxVekGh5S3ZsqBTeD1wU-XSFvwblTYVdB2Cx2ET8VabhV4EZYLgzH3v4mgjNe_FNhm6nkmj_Khp45VhQ7VVVkEEdp_VsdW4E9u3a5JRqVWm1Eii8PAPeWZd0JjpG2_rBJnYh56ALiVSqaLAepqeClUoKOugpASdo1LZT4gOdXKdOd5dG_LvFG3b9o8gbDa9IqpJdU2xSegKLfp5dSHlUgPVIV_Vd1OqYalwo-rghjGKls9TUS1Luum3TedCtyCVml- -EHCP-l3iKELXJNeJygkv1hBflGMCRvX7GLAHgWr4Niy9v_W52itqv6Ki4kJUukXHNqdJ3KtKmm6TubNDB98E9SKvRy8qUA7T9lTN-KkywjvRY9RgX-HS4hnbIWy7nU94RlJTAgxMNyfQMA2LkMgObio7udwJMqR2hNUebvD2OP3Tu4b63Aosv94kQqDZ267ahdACuMTk0O55CYtHkK6QVGPPOAp8b1qVniU5w-nP2za26R3Xs1u5x7lWYUNk3C-_YoWKGh89mV7N- -D3b6Kvp7ETKkaMrgXp3GDQvnZqldzCLgN7KJh0a7FeCICiVSTPAiNanvGnQ7-4VNj-_T2y0U5Ci4xoeTXX4J9PJd52Srg2RQmb9voGfeC2dgg2OjQag5cmBneX1eZaqTksGWfOhpkXAMaWNGwLlJIUEq_bScGKK0i2qY3cTh31Vj5FaHWFaF2jYNT7XowheOjMXRjivj6ufMxAisblASd2d-hUBRBPBai0TfzISPUZg5rB6kNrF9gvjdX7qof269b0s5eQYoIsLH8xPU7iBLALErMaIu5XajG9kYMBpjsaqWqSdZ4EPC4wyqFKl45JwQxylMZuDWCxlPAlvOW9s-vNEo2GY7Eish0jPUPDUtjUTP4i7x1AQyxkNzGNEvhWMCYkuQb04vyJQO-KEjgGW-phKnlWngaFJ5XNnUhFKS5knYk3NH5J90g2b7IRuGoE5Al1DqG3BN2jYI60QQLJXbYngx4dm54-oOaxlPZChLdQxVGRYL7wKyAvjTPjMknJOAI_pooULMSQIhKbaXsp7uLi8ufuCOXMiSbw38BxmWr0M_E7vri9OoLtEJf6Ly1ikrMe4AtoZQDtFo-umtEburpAMqM_4REO3Mr9zTsqfOmBE08LJEhQkhUqySOTgoUA9PKDhRS_2dOLpVTnsDH2wsJ4CPHyD9-9uKSuPOd9QHUkbrgV9wcNab1rkJY8gMsf3qnrPG2ykSXA9WTqnDx0XYkcyI76CKsXD8coagSsvcfNDj5OYAx6t46D7CiREXvS-jDMtwCpzGVmx7Wwkz70Cd_0n6eR3mPaxU7omwRgI4yvfEbVpOWraV4QlEzocez1jA6kTVb7ADyStTUbiG2LR3NW_0Ri6x8xEM9wqOh5qzrhrfZ0ccB5Xes9JbXRgNK9-LQgerN-gmqqH5KbrK2CBhUdcroKctU53U4v1zLWLOzNh6rj8ljyzUyY30EW30fRl5_1fFs1CMReb2-dqrHxYSffZSrHhk9lH6KtAMKleezOJ-OAgvZw5gDckCVWqZLBQT4NJ6_bgfmswtbXtyB4LuqmSFR6isO2PegNXNOPjcFt13rVhl4CRrHAXm_cQBv-bmUH6Op0vorlSf7t1BbR3rKXorj2aC3Pj8xjKb09kqvKH1VDPX67MLI5MExKqek0XBjb6Dcz6b2S5SyhN7FkCfGuyWxEuwm6nGhLvbpILdUGX0jT1NawmXhnkGhiesXPpQkQpgPHvb4QD1om0LkBOnRWkb_Cl]--></g></svg>