<?xml version="1.0" encoding="us-ascii" standalone="no"?><svg xmlns="http://www.w3.org/2000/svg" xmlns:xlink="http://www.w3.org/1999/xlink" contentStyleType="text/css" height="64028.125px" preserveAspectRatio="none" style="width:56821px;height:64028px;background:#000000;" version="1.1" viewBox="0 0 56821 64028" width="56821.875px" zoomAndPan="magnify"><defs><linearGradient id="glocw1pkts96n0" x1="50%" x2="50%" y1="0%" y2="100%"><stop offset="0%" stop-color="#4DABF5"/><stop offset="100%" stop-color="#2196F3"/></linearGradient><linearGradient id="glocw1pkts96n1" x1="50%" x2="50%" y1="0%" y2="100%"><stop offset="0%" stop-color="#2196F3"/><stop offset="100%" stop-color="#1A78C2"/></linearGradient></defs><g><!--class users--><g id="elem_users"><rect codeLine="60" fill="url(#glocw1pkts96n0)" height="9480.0537" id="users" rx="12.5" ry="12.5" style="stroke:#2196F3;stroke-width:3.125;" width="8600" x="53.125" y="31026.5625"/><rect fill="url(#glocw1pkts96n1)" height="1075.5615" rx="12.5" ry="12.5" style="stroke:url(#glocw1pkts96n1);stroke-width:3.125;" width="8600" x="53.125" y="31026.5625"/><rect fill="url(#glocw1pkts96n1)" height="12.5" style="stroke:url(#glocw1pkts96n1);stroke-width:3.125;" width="8600" x="53.125" y="32089.624"/><rect codeLine="60" fill="none" height="9480.0537" id="users" rx="12.5" ry="12.5" style="stroke:#2196F3;stroke-width:3.125;" width="8600" x="53.125" y="31026.5625"/><ellipse cx="3276.5625" cy="31564.3433" fill="none" rx="225" ry="225" style="stroke:#1A78C2;stroke-width:3.125;"/><path d="M3355.3223,31441.1499 L3355.3223,31533.0444 L3514.9414,31533.0444 L3514.9414,31499.1577 Q3514.9414,31476.5503 3523.6328,31466.98 Q3532.3242,31457.3608 3546.3867,31457.3608 Q3560.1074,31457.3608 3568.7988,31466.98 Q3577.4902,31476.5503 3577.4902,31499.1577 L3577.4902,31595.5933 L3283.0078,31595.5933 Q3260.4004,31595.5933 3250.7813,31586.9019 Q3241.2109,31578.2104 3241.2109,31564.1479 Q3241.2109,31550.4272 3250.9766,31541.7358 Q3260.7422,31533.0444 3283.0078,31533.0444 L3292.7734,31533.0444 L3292.7734,31288.269 L3283.0078,31288.269 Q3260.4004,31288.269 3250.7813,31279.5776 Q3241.2109,31270.8862 3241.2109,31256.8237 Q3241.2109,31242.8101 3250.7813,31234.1187 Q3260.4004,31225.4272 3283.0078,31225.4272 L3563.7695,31225.7202 L3563.7695,31320.9351 Q3563.7695,31343.2007 3555.2246,31352.8198 Q3546.6797,31362.439 3532.6172,31362.439 Q3518.6035,31362.439 3509.9121,31352.9663 Q3501.2207,31343.4937 3501.2207,31320.9351 L3501.2207,31288.269 L3355.3223,31288.269 L3355.3223,31378.6011 L3410.2539,31378.6011 Q3410.2539,31354.187 3414.8438,31347.1558 Q3424.3164,31332.2144 3441.6992,31332.2144 Q3455.4199,31332.2144 3464.1113,31341.8335 Q3472.8027,31351.4526 3472.8027,31374.0112 L3472.8027,31446.0327 Q3472.8027,31466.4917 3467.9199,31473.5229 Q3458.1543,31487.8784 3441.6992,31487.8784 Q3424.3164,31487.8784 3414.8438,31472.8882 Q3410.2539,31465.9058 3410.2539,31441.1499 L3355.3223,31441.1499 Z " fill="#FFFFFF"/><text fill="#FFFFFF" font-family="Consolas" font-size="625" lengthAdjust="spacing" textLength="1718.75" x="3782.8125" y="31769.4214">users</text><line style="stroke:#2196F3;stroke-width:3.125;" x1="56.25" x2="8650" y1="32102.124" y2="32102.124"/><ellipse cx="87.5" cy="32641.4673" fill="none" rx="9.375" ry="9.375" style="stroke:#1A78C2;stroke-width:3.125;"/><text fill="#FFFFFF" font-family="Consolas" font-size="625" lengthAdjust="spacing" textLength="6187.5" x="462.5" y="32841.8579">id_user : INT &#171;PK&#187;</text><line style="stroke:#2196F3;stroke-width:3.125;" x1="56.25" x2="8650" y1="33171.4355" y2="33171.4355"/><text fill="#FFFFFF" font-family="Consolas" font-size="625" lengthAdjust="spacing" textLength="8250" x="228.125" y="33911.1694">nama_user : VARCHAR(100)</text><text fill="#FFFFFF" font-family="Consolas" font-size="625" lengthAdjust="spacing" textLength="7562.5" x="228.125" y="34955.481">username : VARCHAR(50)</text><text fill="#FFFFFF" font-family="Consolas" font-size="625" lengthAdjust="spacing" textLength="7906.25" x="228.125" y="35999.7925">password : VARCHAR(255)</text><text fill="#FFFFFF" font-family="Consolas" font-size="625" lengthAdjust="spacing" textLength="3781.25" x="228.125" y="37044.104">role : ENUM</text><text fill="#FFFFFF" font-family="Consolas" font-size="625" lengthAdjust="spacing" textLength="6531.25" x="228.125" y="38088.4155">id_store : INT &#171;FK&#187;</text><text fill="#FFFFFF" font-family="Consolas" font-size="625" lengthAdjust="spacing" textLength="7218.75" x="228.125" y="39132.7271">id_capster : INT &#171;FK&#187;</text><text fill="#FFFFFF" font-family="Consolas" font-size="625" lengthAdjust="spacing" textLength="7218.75" x="228.125" y="40177.0386">created_at : DATETIME</text></g><!--class store--><g id="elem_store"><rect codeLine="72" fill="url(#glocw1pkts96n0)" height="5302.8076" id="store" rx="12.5" ry="12.5" style="stroke:#2196F3;stroke-width:3.125;" width="8943.75" x="13518.75" y="36040.625"/><rect fill="url(#glocw1pkts96n1)" height="1075.5615" rx="12.5" ry="12.5" style="stroke:url(#glocw1pkts96n1);stroke-width:3.125;" width="8943.75" x="13518.75" y="36040.625"/><rect fill="url(#glocw1pkts96n1)" height="12.5" style="stroke:url(#glocw1pkts96n1);stroke-width:3.125;" width="8943.75" x="13518.75" y="37103.6865"/><rect codeLine="72" fill="none" height="5302.8076" id="store" rx="12.5" ry="12.5" style="stroke:#2196F3;stroke-width:3.125;" width="8943.75" x="13518.75" y="36040.625"/><ellipse cx="16914.0625" cy="36578.4058" fill="none" rx="225" ry="225" style="stroke:#1A78C2;stroke-width:3.125;"/><path d="M16992.8223,36455.2124 L16992.8223,36547.1069 L17152.4414,36547.1069 L17152.4414,36513.2202 Q17152.4414,36490.6128 17161.1328,36481.0425 Q17169.8242,36471.4233 17183.8867,36471.4233 Q17197.6074,36471.4233 17206.2988,36481.0425 Q17214.9902,36490.6128 17214.9902,36513.2202 L17214.9902,36609.6558 L16920.5078,36609.6558 Q16897.9004,36609.6558 16888.2813,36600.9644 Q16878.7109,36592.2729 16878.7109,36578.2104 Q16878.7109,36564.4897 16888.4766,36555.7983 Q16898.2422,36547.1069 16920.5078,36547.1069 L16930.2734,36547.1069 L16930.2734,36302.3315 L16920.5078,36302.3315 Q16897.9004,36302.3315 16888.2813,36293.6401 Q16878.7109,36284.9487 16878.7109,36270.8862 Q16878.7109,36256.8726 16888.2813,36248.1812 Q16897.9004,36239.4897 16920.5078,36239.4897 L17201.2695,36239.7827 L17201.2695,36334.9976 Q17201.2695,36357.2632 17192.7246,36366.8823 Q17184.1797,36376.5015 17170.1172,36376.5015 Q17156.1035,36376.5015 17147.4121,36367.0288 Q17138.7207,36357.5562 17138.7207,36334.9976 L17138.7207,36302.3315 L16992.8223,36302.3315 L16992.8223,36392.6636 L17047.7539,36392.6636 Q17047.7539,36368.2495 17052.3438,36361.2183 Q17061.8164,36346.2769 17079.1992,36346.2769 Q17092.9199,36346.2769 17101.6113,36355.896 Q17110.3027,36365.5151 17110.3027,36388.0737 L17110.3027,36460.0952 Q17110.3027,36480.5542 17105.4199,36487.5854 Q17095.6543,36501.9409 17079.1992,36501.9409 Q17061.8164,36501.9409 17052.3438,36486.9507 Q17047.7539,36479.9683 17047.7539,36455.2124 L16992.8223,36455.2124 Z " fill="#FFFFFF"/><text fill="#FFFFFF" font-family="Consolas" font-size="625" lengthAdjust="spacing" textLength="1718.75" x="17420.3125" y="36783.4839">store</text><line style="stroke:#2196F3;stroke-width:3.125;" x1="13521.875" x2="22459.375" y1="37116.1865" y2="37116.1865"/><ellipse cx="13553.125" cy="37655.5298" fill="none" rx="9.375" ry="9.375" style="stroke:#1A78C2;stroke-width:3.125;"/><text fill="#FFFFFF" font-family="Consolas" font-size="625" lengthAdjust="spacing" textLength="6531.25" x="13928.125" y="37855.9204">id_store : INT &#171;PK&#187;</text><line style="stroke:#2196F3;stroke-width:3.125;" x1="13521.875" x2="22459.375" y1="38185.498" y2="38185.498"/><text fill="#FFFFFF" font-family="Consolas" font-size="625" lengthAdjust="spacing" textLength="8593.75" x="13693.75" y="38925.2319">nama_store : VARCHAR(100)</text><text fill="#FFFFFF" font-family="Consolas" font-size="625" lengthAdjust="spacing" textLength="6531.25" x="13693.75" y="39969.5435">alamat_store : TEXT</text><text fill="#FFFFFF" font-family="Consolas" font-size="625" lengthAdjust="spacing" textLength="7218.75" x="13693.75" y="41013.855">created_at : DATETIME</text></g><!--class capster--><g id="elem_capster"><rect codeLine="80" fill="url(#glocw1pkts96n0)" height="7391.4307" id="capster" rx="12.5" ry="12.5" style="stroke:#2196F3;stroke-width:3.125;" width="9631.25" x="30765.625" y="14537.5"/><rect fill="url(#glocw1pkts96n1)" height="1075.5615" rx="12.5" ry="12.5" style="stroke:url(#glocw1pkts96n1);stroke-width:3.125;" width="9631.25" x="30765.625" y="14537.5"/><rect fill="url(#glocw1pkts96n1)" height="12.5" style="stroke:url(#glocw1pkts96n1);stroke-width:3.125;" width="9631.25" x="30765.625" y="15600.5615"/><rect codeLine="80" fill="none" height="7391.4307" id="capster" rx="12.5" ry="12.5" style="stroke:#2196F3;stroke-width:3.125;" width="9631.25" x="30765.625" y="14537.5"/><ellipse cx="34160.9375" cy="15075.2808" fill="none" rx="225" ry="225" style="stroke:#1A78C2;stroke-width:3.125;"/><path d="M34239.6973,14952.0874 L34239.6973,15043.9819 L34399.3164,15043.9819 L34399.3164,15010.0952 Q34399.3164,14987.4878 34408.0078,14977.9175 Q34416.6992,14968.2983 34430.7617,14968.2983 Q34444.4824,14968.2983 34453.1738,14977.9175 Q34461.8652,14987.4878 34461.8652,15010.0952 L34461.8652,15106.5308 L34167.3828,15106.5308 Q34144.7754,15106.5308 34135.1563,15097.8394 Q34125.5859,15089.1479 34125.5859,15075.0854 Q34125.5859,15061.3647 34135.3516,15052.6733 Q34145.1172,15043.9819 34167.3828,15043.9819 L34177.1484,15043.9819 L34177.1484,14799.2065 L34167.3828,14799.2065 Q34144.7754,14799.2065 34135.1563,14790.5151 Q34125.5859,14781.8237 34125.5859,14767.7612 Q34125.5859,14753.7476 34135.1563,14745.0562 Q34144.7754,14736.3647 34167.3828,14736.3647 L34448.1445,14736.6577 L34448.1445,14831.8726 Q34448.1445,14854.1382 34439.5996,14863.7573 Q34431.0547,14873.3765 34416.9922,14873.3765 Q34402.9785,14873.3765 34394.2871,14863.9038 Q34385.5957,14854.4312 34385.5957,14831.8726 L34385.5957,14799.2065 L34239.6973,14799.2065 L34239.6973,14889.5386 L34294.6289,14889.5386 Q34294.6289,14865.1245 34299.2188,14858.0933 Q34308.6914,14843.1519 34326.0742,14843.1519 Q34339.7949,14843.1519 34348.4863,14852.771 Q34357.1777,14862.3901 34357.1777,14884.9487 L34357.1777,14956.9702 Q34357.1777,14977.4292 34352.2949,14984.4604 Q34342.5293,14998.8159 34326.0742,14998.8159 Q34308.6914,14998.8159 34299.2188,14983.8257 Q34294.6289,14976.8433 34294.6289,14952.0874 L34239.6973,14952.0874 Z " fill="#FFFFFF"/><text fill="#FFFFFF" font-family="Consolas" font-size="625" lengthAdjust="spacing" textLength="2406.25" x="34667.1875" y="15280.3589">capster</text><line style="stroke:#2196F3;stroke-width:3.125;" x1="30768.75" x2="40393.75" y1="15613.0615" y2="15613.0615"/><ellipse cx="30800" cy="16152.4048" fill="none" rx="9.375" ry="9.375" style="stroke:#1A78C2;stroke-width:3.125;"/><text fill="#FFFFFF" font-family="Consolas" font-size="625" lengthAdjust="spacing" textLength="7218.75" x="31175" y="16352.7954">id_capster : INT &#171;PK&#187;</text><line style="stroke:#2196F3;stroke-width:3.125;" x1="30768.75" x2="40393.75" y1="16682.373" y2="16682.373"/><text fill="#FFFFFF" font-family="Consolas" font-size="625" lengthAdjust="spacing" textLength="9281.25" x="30940.625" y="17422.1069">nama_capster : VARCHAR(100)</text><text fill="#FFFFFF" font-family="Consolas" font-size="625" lengthAdjust="spacing" textLength="6531.25" x="30940.625" y="18466.4185">id_store : INT &#171;FK&#187;</text><text fill="#FFFFFF" font-family="Consolas" font-size="625" lengthAdjust="spacing" textLength="6187.5" x="30940.625" y="19510.73">id_user : INT &#171;FK&#187;</text><text fill="#FFFFFF" font-family="Consolas" font-size="625" lengthAdjust="spacing" textLength="4468.75" x="30940.625" y="20555.0415">status : ENUM</text><text fill="#FFFFFF" font-family="Consolas" font-size="625" lengthAdjust="spacing" textLength="7218.75" x="30940.625" y="21599.353">created_at : DATETIME</text></g><!--class produk--><g id="elem_produk"><rect codeLine="90" fill="url(#glocw1pkts96n0)" height="6347.1191" id="produk" rx="12.5" ry="12.5" style="stroke:#2196F3;stroke-width:3.125;" width="9287.5" x="13346.875" y="56137.5"/><rect fill="url(#glocw1pkts96n1)" height="1075.5615" rx="12.5" ry="12.5" style="stroke:url(#glocw1pkts96n1);stroke-width:3.125;" width="9287.5" x="13346.875" y="56137.5"/><rect fill="url(#glocw1pkts96n1)" height="12.5" style="stroke:url(#glocw1pkts96n1);stroke-width:3.125;" width="9287.5" x="13346.875" y="57200.5615"/><rect codeLine="90" fill="none" height="6347.1191" id="produk" rx="12.5" ry="12.5" style="stroke:#2196F3;stroke-width:3.125;" width="9287.5" x="13346.875" y="56137.5"/><ellipse cx="16742.1875" cy="56675.2808" fill="none" rx="225" ry="225" style="stroke:#1A78C2;stroke-width:3.125;"/><path d="M16820.9473,56552.0874 L16820.9473,56643.9819 L16980.5664,56643.9819 L16980.5664,56610.0952 Q16980.5664,56587.4878 16989.2578,56577.9175 Q16997.9492,56568.2983 17012.0117,56568.2983 Q17025.7324,56568.2983 17034.4238,56577.9175 Q17043.1152,56587.4878 17043.1152,56610.0952 L17043.1152,56706.5308 L16748.6328,56706.5308 Q16726.0254,56706.5308 16716.4063,56697.8394 Q16706.8359,56689.1479 16706.8359,56675.0854 Q16706.8359,56661.3647 16716.6016,56652.6733 Q16726.3672,56643.9819 16748.6328,56643.9819 L16758.3984,56643.9819 L16758.3984,56399.2065 L16748.6328,56399.2065 Q16726.0254,56399.2065 16716.4063,56390.5151 Q16706.8359,56381.8237 16706.8359,56367.7612 Q16706.8359,56353.7476 16716.4063,56345.0562 Q16726.0254,56336.3647 16748.6328,56336.3647 L17029.3945,56336.6577 L17029.3945,56431.8726 Q17029.3945,56454.1382 17020.8496,56463.7573 Q17012.3047,56473.3765 16998.2422,56473.3765 Q16984.2285,56473.3765 16975.5371,56463.9038 Q16966.8457,56454.4312 16966.8457,56431.8726 L16966.8457,56399.2065 L16820.9473,56399.2065 L16820.9473,56489.5386 L16875.8789,56489.5386 Q16875.8789,56465.1245 16880.4688,56458.0933 Q16889.9414,56443.1519 16907.3242,56443.1519 Q16921.0449,56443.1519 16929.7363,56452.771 Q16938.4277,56462.3901 16938.4277,56484.9487 L16938.4277,56556.9702 Q16938.4277,56577.4292 16933.5449,56584.4604 Q16923.7793,56598.8159 16907.3242,56598.8159 Q16889.9414,56598.8159 16880.4688,56583.8257 Q16875.8789,56576.8433 16875.8789,56552.0874 L16820.9473,56552.0874 Z " fill="#FFFFFF"/><text fill="#FFFFFF" font-family="Consolas" font-size="625" lengthAdjust="spacing" textLength="2062.5" x="17248.4375" y="56880.3589">produk</text><line style="stroke:#2196F3;stroke-width:3.125;" x1="13350" x2="22631.25" y1="57213.0615" y2="57213.0615"/><ellipse cx="13381.25" cy="57752.4048" fill="none" rx="9.375" ry="9.375" style="stroke:#1A78C2;stroke-width:3.125;"/><text fill="#FFFFFF" font-family="Consolas" font-size="625" lengthAdjust="spacing" textLength="6875" x="13756.25" y="57952.7954">id_produk : INT &#171;PK&#187;</text><line style="stroke:#2196F3;stroke-width:3.125;" x1="13350" x2="22631.25" y1="58282.373" y2="58282.373"/><text fill="#FFFFFF" font-family="Consolas" font-size="625" lengthAdjust="spacing" textLength="8937.5" x="13521.875" y="59022.1069">nama_produk : VARCHAR(100)</text><text fill="#FFFFFF" font-family="Consolas" font-size="625" lengthAdjust="spacing" textLength="6875" x="13521.875" y="60066.4185">harga_awal : DECIMAL</text><text fill="#FFFFFF" font-family="Consolas" font-size="625" lengthAdjust="spacing" textLength="6875" x="13521.875" y="61110.73">harga_jual : DECIMAL</text><text fill="#FFFFFF" font-family="Consolas" font-size="625" lengthAdjust="spacing" textLength="7218.75" x="13521.875" y="62155.0415">created_at : DATETIME</text></g><!--class pengeluaran--><g id="elem_pengeluaran"><rect codeLine="99" fill="url(#glocw1pkts96n0)" height="10524.3652" id="pengeluaran" rx="12.5" ry="12.5" style="stroke:#2196F3;stroke-width:3.125;" width="9178.125" x="30992.1875" y="29526.5625"/><rect fill="url(#glocw1pkts96n1)" height="1075.5615" rx="12.5" ry="12.5" style="stroke:url(#glocw1pkts96n1);stroke-width:3.125;" width="9178.125" x="30992.1875" y="29526.5625"/><rect fill="url(#glocw1pkts96n1)" height="12.5" style="stroke:url(#glocw1pkts96n1);stroke-width:3.125;" width="9178.125" x="30992.1875" y="30589.624"/><rect codeLine="99" fill="none" height="10524.3652" id="pengeluaran" rx="12.5" ry="12.5" style="stroke:#2196F3;stroke-width:3.125;" width="9178.125" x="30992.1875" y="29526.5625"/><ellipse cx="33473.4375" cy="30064.3433" fill="none" rx="225" ry="225" style="stroke:#1A78C2;stroke-width:3.125;"/><path d="M33552.1973,29941.1499 L33552.1973,30033.0444 L33711.8164,30033.0444 L33711.8164,29999.1577 Q33711.8164,29976.5503 33720.5078,29966.98 Q33729.1992,29957.3608 33743.2617,29957.3608 Q33756.9824,29957.3608 33765.6738,29966.98 Q33774.3652,29976.5503 33774.3652,29999.1577 L33774.3652,30095.5933 L33479.8828,30095.5933 Q33457.2754,30095.5933 33447.6563,30086.9019 Q33438.0859,30078.2104 33438.0859,30064.1479 Q33438.0859,30050.4272 33447.8516,30041.7358 Q33457.6172,30033.0444 33479.8828,30033.0444 L33489.6484,30033.0444 L33489.6484,29788.269 L33479.8828,29788.269 Q33457.2754,29788.269 33447.6563,29779.5776 Q33438.0859,29770.8862 33438.0859,29756.8237 Q33438.0859,29742.8101 33447.6563,29734.1187 Q33457.2754,29725.4272 33479.8828,29725.4272 L33760.6445,29725.7202 L33760.6445,29820.9351 Q33760.6445,29843.2007 33752.0996,29852.8198 Q33743.5547,29862.439 33729.4922,29862.439 Q33715.4785,29862.439 33706.7871,29852.9663 Q33698.0957,29843.4937 33698.0957,29820.9351 L33698.0957,29788.269 L33552.1973,29788.269 L33552.1973,29878.6011 L33607.1289,29878.6011 Q33607.1289,29854.187 33611.7188,29847.1558 Q33621.1914,29832.2144 33638.5742,29832.2144 Q33652.2949,29832.2144 33660.9863,29841.8335 Q33669.6777,29851.4526 33669.6777,29874.0112 L33669.6777,29946.0327 Q33669.6777,29966.4917 33664.7949,29973.5229 Q33655.0293,29987.8784 33638.5742,29987.8784 Q33621.1914,29987.8784 33611.7188,29972.8882 Q33607.1289,29965.9058 33607.1289,29941.1499 L33552.1973,29941.1499 Z " fill="#FFFFFF"/><text fill="#FFFFFF" font-family="Consolas" font-size="625" lengthAdjust="spacing" textLength="3781.25" x="33979.6875" y="30269.4214">pengeluaran</text><line style="stroke:#2196F3;stroke-width:3.125;" x1="30995.3125" x2="40167.1875" y1="30602.124" y2="30602.124"/><ellipse cx="31026.5625" cy="31141.4673" fill="none" rx="9.375" ry="9.375" style="stroke:#1A78C2;stroke-width:3.125;"/><text fill="#FFFFFF" font-family="Consolas" font-size="625" lengthAdjust="spacing" textLength="8593.75" x="31401.5625" y="31341.8579">id_pengeluaran : INT &#171;PK&#187;</text><line style="stroke:#2196F3;stroke-width:3.125;" x1="30995.3125" x2="40167.1875" y1="31671.4355" y2="31671.4355"/><text fill="#FFFFFF" font-family="Consolas" font-size="625" lengthAdjust="spacing" textLength="6531.25" x="31167.1875" y="32411.1694">id_store : INT &#171;FK&#187;</text><text fill="#FFFFFF" font-family="Consolas" font-size="625" lengthAdjust="spacing" textLength="6187.5" x="31167.1875" y="33455.481">id_user : INT &#171;FK&#187;</text><text fill="#FFFFFF" font-family="Consolas" font-size="625" lengthAdjust="spacing" textLength="7906.25" x="31167.1875" y="34499.7925">kategori : VARCHAR(100)</text><text fill="#FFFFFF" font-family="Consolas" font-size="625" lengthAdjust="spacing" textLength="5500" x="31167.1875" y="35544.104">deskripsi : TEXT</text><text fill="#FFFFFF" font-family="Consolas" font-size="625" lengthAdjust="spacing" textLength="5500" x="31167.1875" y="36588.4155">jumlah : DECIMAL</text><text fill="#FFFFFF" font-family="Consolas" font-size="625" lengthAdjust="spacing" textLength="4812.5" x="31167.1875" y="37632.7271">tanggal : DATE</text><text fill="#FFFFFF" font-family="Consolas" font-size="625" lengthAdjust="spacing" textLength="8593.75" x="31167.1875" y="38677.0386">bukti_path : VARCHAR(255)</text><text fill="#FFFFFF" font-family="Consolas" font-size="625" lengthAdjust="spacing" textLength="7218.75" x="31167.1875" y="39721.3501">created_at : DATETIME</text></g><!--class stok_produk--><g id="elem_stok_produk"><rect codeLine="112" fill="url(#glocw1pkts96n0)" height="7391.4307" id="stok_produk" rx="12.5" ry="12.5" style="stroke:#2196F3;stroke-width:3.125;" width="7568.75" x="31796.875" y="51828.125"/><rect fill="url(#glocw1pkts96n1)" height="1075.5615" rx="12.5" ry="12.5" style="stroke:url(#glocw1pkts96n1);stroke-width:3.125;" width="7568.75" x="31796.875" y="51828.125"/><rect fill="url(#glocw1pkts96n1)" height="12.5" style="stroke:url(#glocw1pkts96n1);stroke-width:3.125;" width="7568.75" x="31796.875" y="52891.1865"/><rect codeLine="112" fill="none" height="7391.4307" id="stok_produk" rx="12.5" ry="12.5" style="stroke:#2196F3;stroke-width:3.125;" width="7568.75" x="31796.875" y="51828.125"/><ellipse cx="33473.4375" cy="52365.9058" fill="none" rx="225" ry="225" style="stroke:#1A78C2;stroke-width:3.125;"/><path d="M33552.1973,52242.7124 L33552.1973,52334.6069 L33711.8164,52334.6069 L33711.8164,52300.7202 Q33711.8164,52278.1128 33720.5078,52268.5425 Q33729.1992,52258.9233 33743.2617,52258.9233 Q33756.9824,52258.9233 33765.6738,52268.5425 Q33774.3652,52278.1128 33774.3652,52300.7202 L33774.3652,52397.1558 L33479.8828,52397.1558 Q33457.2754,52397.1558 33447.6563,52388.4644 Q33438.0859,52379.7729 33438.0859,52365.7104 Q33438.0859,52351.9897 33447.8516,52343.2983 Q33457.6172,52334.6069 33479.8828,52334.6069 L33489.6484,52334.6069 L33489.6484,52089.8315 L33479.8828,52089.8315 Q33457.2754,52089.8315 33447.6563,52081.1401 Q33438.0859,52072.4487 33438.0859,52058.3862 Q33438.0859,52044.3726 33447.6563,52035.6812 Q33457.2754,52026.9897 33479.8828,52026.9897 L33760.6445,52027.2827 L33760.6445,52122.4976 Q33760.6445,52144.7632 33752.0996,52154.3823 Q33743.5547,52164.0015 33729.4922,52164.0015 Q33715.4785,52164.0015 33706.7871,52154.5288 Q33698.0957,52145.0562 33698.0957,52122.4976 L33698.0957,52089.8315 L33552.1973,52089.8315 L33552.1973,52180.1636 L33607.1289,52180.1636 Q33607.1289,52155.7495 33611.7188,52148.7183 Q33621.1914,52133.7769 33638.5742,52133.7769 Q33652.2949,52133.7769 33660.9863,52143.396 Q33669.6777,52153.0151 33669.6777,52175.5737 L33669.6777,52247.5952 Q33669.6777,52268.0542 33664.7949,52275.0854 Q33655.0293,52289.4409 33638.5742,52289.4409 Q33621.1914,52289.4409 33611.7188,52274.4507 Q33607.1289,52267.4683 33607.1289,52242.7124 L33552.1973,52242.7124 Z " fill="#FFFFFF"/><text fill="#FFFFFF" font-family="Consolas" font-size="625" lengthAdjust="spacing" textLength="3781.25" x="33979.6875" y="52570.9839">stok_produk</text><line style="stroke:#2196F3;stroke-width:3.125;" x1="31800" x2="39362.5" y1="52903.6865" y2="52903.6865"/><ellipse cx="31831.25" cy="53443.0298" fill="none" rx="9.375" ry="9.375" style="stroke:#1A78C2;stroke-width:3.125;"/><text fill="#FFFFFF" font-family="Consolas" font-size="625" lengthAdjust="spacing" textLength="6187.5" x="32206.25" y="53643.4204">id_stok : INT &#171;PK&#187;</text><line style="stroke:#2196F3;stroke-width:3.125;" x1="31800" x2="39362.5" y1="53972.998" y2="53972.998"/><text fill="#FFFFFF" font-family="Consolas" font-size="625" lengthAdjust="spacing" textLength="6875" x="31971.875" y="54712.7319">id_produk : INT &#171;FK&#187;</text><text fill="#FFFFFF" font-family="Consolas" font-size="625" lengthAdjust="spacing" textLength="6531.25" x="31971.875" y="55757.0435">id_store : INT &#171;FK&#187;</text><text fill="#FFFFFF" font-family="Consolas" font-size="625" lengthAdjust="spacing" textLength="5843.75" x="31971.875" y="56801.355">jumlah_stok : INT</text><text fill="#FFFFFF" font-family="Consolas" font-size="625" lengthAdjust="spacing" textLength="5500" x="31971.875" y="57845.6665">stok_akhir : INT</text><text fill="#FFFFFF" font-family="Consolas" font-size="625" lengthAdjust="spacing" textLength="7218.75" x="31971.875" y="58889.978">updated_at : DATETIME</text></g><!--class transaksi--><g id="elem_transaksi"><rect codeLine="122" fill="url(#glocw1pkts96n0)" height="10524.3652" id="transaksi" rx="12.5" ry="12.5" style="stroke:#2196F3;stroke-width:3.125;" width="9287.5" x="30937.5" y="40676.5625"/><rect fill="url(#glocw1pkts96n1)" height="1075.5615" rx="12.5" ry="12.5" style="stroke:url(#glocw1pkts96n1);stroke-width:3.125;" width="9287.5" x="30937.5" y="40676.5625"/><rect fill="url(#glocw1pkts96n1)" height="12.5" style="stroke:url(#glocw1pkts96n1);stroke-width:3.125;" width="9287.5" x="30937.5" y="41739.624"/><rect codeLine="122" fill="none" height="10524.3652" id="transaksi" rx="12.5" ry="12.5" style="stroke:#2196F3;stroke-width:3.125;" width="9287.5" x="30937.5" y="40676.5625"/><ellipse cx="33817.1875" cy="41214.3433" fill="none" rx="225" ry="225" style="stroke:#1A78C2;stroke-width:3.125;"/><path d="M33895.9473,41091.1499 L33895.9473,41183.0444 L34055.5664,41183.0444 L34055.5664,41149.1577 Q34055.5664,41126.5503 34064.2578,41116.98 Q34072.9492,41107.3608 34087.0117,41107.3608 Q34100.7324,41107.3608 34109.4238,41116.98 Q34118.1152,41126.5503 34118.1152,41149.1577 L34118.1152,41245.5933 L33823.6328,41245.5933 Q33801.0254,41245.5933 33791.4063,41236.9019 Q33781.8359,41228.2104 33781.8359,41214.1479 Q33781.8359,41200.4272 33791.6016,41191.7358 Q33801.3672,41183.0444 33823.6328,41183.0444 L33833.3984,41183.0444 L33833.3984,40938.269 L33823.6328,40938.269 Q33801.0254,40938.269 33791.4063,40929.5776 Q33781.8359,40920.8862 33781.8359,40906.8237 Q33781.8359,40892.8101 33791.4063,40884.1187 Q33801.0254,40875.4272 33823.6328,40875.4272 L34104.3945,40875.7202 L34104.3945,40970.9351 Q34104.3945,40993.2007 34095.8496,41002.8198 Q34087.3047,41012.439 34073.2422,41012.439 Q34059.2285,41012.439 34050.5371,41002.9663 Q34041.8457,40993.4937 34041.8457,40970.9351 L34041.8457,40938.269 L33895.9473,40938.269 L33895.9473,41028.6011 L33950.8789,41028.6011 Q33950.8789,41004.187 33955.4688,40997.1558 Q33964.9414,40982.2144 33982.3242,40982.2144 Q33996.0449,40982.2144 34004.7363,40991.8335 Q34013.4277,41001.4526 34013.4277,41024.0112 L34013.4277,41096.0327 Q34013.4277,41116.4917 34008.5449,41123.5229 Q33998.7793,41137.8784 33982.3242,41137.8784 Q33964.9414,41137.8784 33955.4688,41122.8882 Q33950.8789,41115.9058 33950.8789,41091.1499 L33895.9473,41091.1499 Z " fill="#FFFFFF"/><text fill="#FFFFFF" font-family="Consolas" font-size="625" lengthAdjust="spacing" textLength="3093.75" x="34323.4375" y="41419.4214">transaksi</text><line style="stroke:#2196F3;stroke-width:3.125;" x1="30940.625" x2="40221.875" y1="41752.124" y2="41752.124"/><ellipse cx="30971.875" cy="42291.4673" fill="none" rx="9.375" ry="9.375" style="stroke:#1A78C2;stroke-width:3.125;"/><text fill="#FFFFFF" font-family="Consolas" font-size="625" lengthAdjust="spacing" textLength="7906.25" x="31346.875" y="42491.8579">id_transaksi : INT &#171;PK&#187;</text><line style="stroke:#2196F3;stroke-width:3.125;" x1="30940.625" x2="40221.875" y1="42821.4355" y2="42821.4355"/><text fill="#FFFFFF" font-family="Consolas" font-size="625" lengthAdjust="spacing" textLength="6531.25" x="31112.5" y="43561.1694">id_store : INT &#171;FK&#187;</text><text fill="#FFFFFF" font-family="Consolas" font-size="625" lengthAdjust="spacing" textLength="6187.5" x="31112.5" y="44605.481">id_user : INT &#171;FK&#187;</text><text fill="#FFFFFF" font-family="Consolas" font-size="625" lengthAdjust="spacing" textLength="7218.75" x="31112.5" y="45649.7925">tipe_transaksi : ENUM</text><text fill="#FFFFFF" font-family="Consolas" font-size="625" lengthAdjust="spacing" textLength="8937.5" x="31112.5" y="46694.104">metode_bayar : VARCHAR(20)</text><text fill="#FFFFFF" font-family="Consolas" font-size="625" lengthAdjust="spacing" textLength="6187.5" x="31112.5" y="47738.4155">subtotal : DECIMAL</text><text fill="#FFFFFF" font-family="Consolas" font-size="625" lengthAdjust="spacing" textLength="7562.5" x="31112.5" y="48782.7271">jumlah_bayar : DECIMAL</text><text fill="#FFFFFF" font-family="Consolas" font-size="625" lengthAdjust="spacing" textLength="6531.25" x="31112.5" y="49827.0386">kembalian : DECIMAL</text><text fill="#FFFFFF" font-family="Consolas" font-size="625" lengthAdjust="spacing" textLength="7218.75" x="31112.5" y="50871.3501">created_at : DATETIME</text></g><!--class struk--><g id="elem_struk"><rect codeLine="135" fill="url(#glocw1pkts96n0)" height="6347.1191" id="struk" rx="12.5" ry="12.5" style="stroke:#2196F3;stroke-width:3.125;" width="8943.75" x="47325" y="42765.625"/><rect fill="url(#glocw1pkts96n1)" height="1075.5615" rx="12.5" ry="12.5" style="stroke:url(#glocw1pkts96n1);stroke-width:3.125;" width="8943.75" x="47325" y="42765.625"/><rect fill="url(#glocw1pkts96n1)" height="12.5" style="stroke:url(#glocw1pkts96n1);stroke-width:3.125;" width="8943.75" x="47325" y="43828.6865"/><rect codeLine="135" fill="none" height="6347.1191" id="struk" rx="12.5" ry="12.5" style="stroke:#2196F3;stroke-width:3.125;" width="8943.75" x="47325" y="42765.625"/><ellipse cx="50720.3125" cy="43303.4058" fill="none" rx="225" ry="225" style="stroke:#1A78C2;stroke-width:3.125;"/><path d="M50799.0723,43180.2124 L50799.0723,43272.1069 L50958.6914,43272.1069 L50958.6914,43238.2202 Q50958.6914,43215.6128 50967.3828,43206.0425 Q50976.0742,43196.4233 50990.1367,43196.4233 Q51003.8574,43196.4233 51012.5488,43206.0425 Q51021.2402,43215.6128 51021.2402,43238.2202 L51021.2402,43334.6558 L50726.7578,43334.6558 Q50704.1504,43334.6558 50694.5313,43325.9644 Q50684.9609,43317.2729 50684.9609,43303.2104 Q50684.9609,43289.4897 50694.7266,43280.7983 Q50704.4922,43272.1069 50726.7578,43272.1069 L50736.5234,43272.1069 L50736.5234,43027.3315 L50726.7578,43027.3315 Q50704.1504,43027.3315 50694.5313,43018.6401 Q50684.9609,43009.9487 50684.9609,42995.8862 Q50684.9609,42981.8726 50694.5313,42973.1812 Q50704.1504,42964.4897 50726.7578,42964.4897 L51007.5195,42964.7827 L51007.5195,43059.9976 Q51007.5195,43082.2632 50998.9746,43091.8823 Q50990.4297,43101.5015 50976.3672,43101.5015 Q50962.3535,43101.5015 50953.6621,43092.0288 Q50944.9707,43082.5562 50944.9707,43059.9976 L50944.9707,43027.3315 L50799.0723,43027.3315 L50799.0723,43117.6636 L50854.0039,43117.6636 Q50854.0039,43093.2495 50858.5938,43086.2183 Q50868.0664,43071.2769 50885.4492,43071.2769 Q50899.1699,43071.2769 50907.8613,43080.896 Q50916.5527,43090.5151 50916.5527,43113.0737 L50916.5527,43185.0952 Q50916.5527,43205.5542 50911.6699,43212.5854 Q50901.9043,43226.9409 50885.4492,43226.9409 Q50868.0664,43226.9409 50858.5938,43211.9507 Q50854.0039,43204.9683 50854.0039,43180.2124 L50799.0723,43180.2124 Z " fill="#FFFFFF"/><text fill="#FFFFFF" font-family="Consolas" font-size="625" lengthAdjust="spacing" textLength="1718.75" x="51226.5625" y="43508.4839">struk</text><line style="stroke:#2196F3;stroke-width:3.125;" x1="47328.125" x2="56265.625" y1="43841.1865" y2="43841.1865"/><ellipse cx="47359.375" cy="44380.5298" fill="none" rx="9.375" ry="9.375" style="stroke:#1A78C2;stroke-width:3.125;"/><text fill="#FFFFFF" font-family="Consolas" font-size="625" lengthAdjust="spacing" textLength="6531.25" x="47734.375" y="44580.9204">id_struk : INT &#171;PK&#187;</text><line style="stroke:#2196F3;stroke-width:3.125;" x1="47328.125" x2="56265.625" y1="44910.498" y2="44910.498"/><text fill="#FFFFFF" font-family="Consolas" font-size="625" lengthAdjust="spacing" textLength="7906.25" x="47500" y="45650.2319">id_transaksi : INT &#171;FK&#187;</text><text fill="#FFFFFF" font-family="Consolas" font-size="625" lengthAdjust="spacing" textLength="8593.75" x="47500" y="46694.5435">nomor_struk : VARCHAR(30)</text><text fill="#FFFFFF" font-family="Consolas" font-size="625" lengthAdjust="spacing" textLength="8250" x="47500" y="47738.855">file_path : VARCHAR(255)</text><text fill="#FFFFFF" font-family="Consolas" font-size="625" lengthAdjust="spacing" textLength="7218.75" x="47500" y="48783.1665">created_at : DATETIME</text></g><!--class transaksi_service_detail--><g id="elem_transaksi_service_detail"><rect codeLine="144" fill="url(#glocw1pkts96n0)" height="9480.0537" id="transaksi_service_detail" rx="12.5" ry="12.5" style="stroke:#2196F3;stroke-width:3.125;" width="9975" x="46809.375" y="25148.4375"/><rect fill="url(#glocw1pkts96n1)" height="1075.5615" rx="12.5" ry="12.5" style="stroke:url(#glocw1pkts96n1);stroke-width:3.125;" width="9975" x="46809.375" y="25148.4375"/><rect fill="url(#glocw1pkts96n1)" height="12.5" style="stroke:url(#glocw1pkts96n1);stroke-width:3.125;" width="9975" x="46809.375" y="26211.499"/><rect codeLine="144" fill="none" height="9480.0537" id="transaksi_service_detail" rx="12.5" ry="12.5" style="stroke:#2196F3;stroke-width:3.125;" width="9975" x="46809.375" y="25148.4375"/><ellipse cx="47465.9375" cy="25686.2183" fill="none" rx="225" ry="225" style="stroke:#1A78C2;stroke-width:3.125;"/><path d="M47544.6973,25563.0249 L47544.6973,25654.9194 L47704.3164,25654.9194 L47704.3164,25621.0327 Q47704.3164,25598.4253 47713.0078,25588.855 Q47721.6992,25579.2358 47735.7617,25579.2358 Q47749.4824,25579.2358 47758.1738,25588.855 Q47766.8652,25598.4253 47766.8652,25621.0327 L47766.8652,25717.4683 L47472.3828,25717.4683 Q47449.7754,25717.4683 47440.1563,25708.7769 Q47430.5859,25700.0854 47430.5859,25686.0229 Q47430.5859,25672.3022 47440.3516,25663.6108 Q47450.1172,25654.9194 47472.3828,25654.9194 L47482.1484,25654.9194 L47482.1484,25410.144 L47472.3828,25410.144 Q47449.7754,25410.144 47440.1563,25401.4526 Q47430.5859,25392.7612 47430.5859,25378.6987 Q47430.5859,25364.6851 47440.1563,25355.9937 Q47449.7754,25347.3022 47472.3828,25347.3022 L47753.1445,25347.5952 L47753.1445,25442.8101 Q47753.1445,25465.0757 47744.5996,25474.6948 Q47736.0547,25484.314 47721.9922,25484.314 Q47707.9785,25484.314 47699.2871,25474.8413 Q47690.5957,25465.3687 47690.5957,25442.8101 L47690.5957,25410.144 L47544.6973,25410.144 L47544.6973,25500.4761 L47599.6289,25500.4761 Q47599.6289,25476.062 47604.2188,25469.0308 Q47613.6914,25454.0894 47631.0742,25454.0894 Q47644.7949,25454.0894 47653.4863,25463.7085 Q47662.1777,25473.3276 47662.1777,25495.8862 L47662.1777,25567.9077 Q47662.1777,25588.3667 47657.2949,25595.3979 Q47647.5293,25609.7534 47631.0742,25609.7534 Q47613.6914,25609.7534 47604.2188,25594.7632 Q47599.6289,25587.7808 47599.6289,25563.0249 L47544.6973,25563.0249 Z " fill="#FFFFFF"/><text fill="#FFFFFF" font-family="Consolas" font-size="625" lengthAdjust="spacing" textLength="8250" x="47949.6875" y="25891.2964">transaksi_service_detail</text><line style="stroke:#2196F3;stroke-width:3.125;" x1="46812.5" x2="56781.25" y1="26223.999" y2="26223.999"/><ellipse cx="46843.75" cy="26763.3423" fill="none" rx="9.375" ry="9.375" style="stroke:#1A78C2;stroke-width:3.125;"/><text fill="#FFFFFF" font-family="Consolas" font-size="625" lengthAdjust="spacing" textLength="6875" x="47218.75" y="26963.7329">id_detail : INT &#171;PK&#187;</text><line style="stroke:#2196F3;stroke-width:3.125;" x1="46812.5" x2="56781.25" y1="27293.3105" y2="27293.3105"/><text fill="#FFFFFF" font-family="Consolas" font-size="625" lengthAdjust="spacing" textLength="7906.25" x="46984.375" y="28033.0444">id_transaksi : INT &#171;FK&#187;</text><text fill="#FFFFFF" font-family="Consolas" font-size="625" lengthAdjust="spacing" textLength="7906.25" x="46984.375" y="29077.356">id_pricelist : INT &#171;FK&#187;</text><text fill="#FFFFFF" font-family="Consolas" font-size="625" lengthAdjust="spacing" textLength="7218.75" x="46984.375" y="30121.6675">id_capster : INT &#171;FK&#187;</text><text fill="#FFFFFF" font-family="Consolas" font-size="625" lengthAdjust="spacing" textLength="5156.25" x="46984.375" y="31165.979">harga : DECIMAL</text><text fill="#FFFFFF" font-family="Consolas" font-size="625" lengthAdjust="spacing" textLength="9625" x="46984.375" y="32210.2905">persentase_capster : DECIMAL</text><text fill="#FFFFFF" font-family="Consolas" font-size="625" lengthAdjust="spacing" textLength="8250" x="46984.375" y="33254.6021">komisi_capster : DECIMAL</text><text fill="#FFFFFF" font-family="Consolas" font-size="625" lengthAdjust="spacing" textLength="7218.75" x="46984.375" y="34298.9136">created_at : DATETIME</text></g><!--class transaksi_produk_detail--><g id="elem_transaksi_produk_detail"><rect codeLine="156" fill="url(#glocw1pkts96n0)" height="11568.6768" id="transaksi_produk_detail" rx="12.5" ry="12.5" style="stroke:#2196F3;stroke-width:3.125;" width="8943.75" x="47325" y="52423.4375"/><rect fill="url(#glocw1pkts96n1)" height="1075.5615" rx="12.5" ry="12.5" style="stroke:url(#glocw1pkts96n1);stroke-width:3.125;" width="8943.75" x="47325" y="52423.4375"/><rect fill="url(#glocw1pkts96n1)" height="12.5" style="stroke:url(#glocw1pkts96n1);stroke-width:3.125;" width="8943.75" x="47325" y="53486.499"/><rect codeLine="156" fill="none" height="11568.6768" id="transaksi_produk_detail" rx="12.5" ry="12.5" style="stroke:#2196F3;stroke-width:3.125;" width="8943.75" x="47325" y="52423.4375"/><ellipse cx="47672.1875" cy="52961.2183" fill="none" rx="225" ry="225" style="stroke:#1A78C2;stroke-width:3.125;"/><path d="M47750.9473,52838.0249 L47750.9473,52929.9194 L47910.5664,52929.9194 L47910.5664,52896.0327 Q47910.5664,52873.4253 47919.2578,52863.855 Q47927.9492,52854.2358 47942.0117,52854.2358 Q47955.7324,52854.2358 47964.4238,52863.855 Q47973.1152,52873.4253 47973.1152,52896.0327 L47973.1152,52992.4683 L47678.6328,52992.4683 Q47656.0254,52992.4683 47646.4063,52983.7769 Q47636.8359,52975.0854 47636.8359,52961.0229 Q47636.8359,52947.3022 47646.6016,52938.6108 Q47656.3672,52929.9194 47678.6328,52929.9194 L47688.3984,52929.9194 L47688.3984,52685.144 L47678.6328,52685.144 Q47656.0254,52685.144 47646.4063,52676.4526 Q47636.8359,52667.7612 47636.8359,52653.6987 Q47636.8359,52639.6851 47646.4063,52630.9937 Q47656.0254,52622.3022 47678.6328,52622.3022 L47959.3945,52622.5952 L47959.3945,52717.8101 Q47959.3945,52740.0757 47950.8496,52749.6948 Q47942.3047,52759.314 47928.2422,52759.314 Q47914.2285,52759.314 47905.5371,52749.8413 Q47896.8457,52740.3687 47896.8457,52717.8101 L47896.8457,52685.144 L47750.9473,52685.144 L47750.9473,52775.4761 L47805.8789,52775.4761 Q47805.8789,52751.062 47810.4688,52744.0308 Q47819.9414,52729.0894 47837.3242,52729.0894 Q47851.0449,52729.0894 47859.7363,52738.7085 Q47868.4277,52748.3276 47868.4277,52770.8862 L47868.4277,52842.9077 Q47868.4277,52863.3667 47863.5449,52870.3979 Q47853.7793,52884.7534 47837.3242,52884.7534 Q47819.9414,52884.7534 47810.4688,52869.7632 Q47805.8789,52862.7808 47805.8789,52838.0249 L47750.9473,52838.0249 Z " fill="#FFFFFF"/><text fill="#FFFFFF" font-family="Consolas" font-size="625" lengthAdjust="spacing" textLength="7906.25" x="48087.1875" y="53166.2964">transaksi_produk_detail</text><line style="stroke:#2196F3;stroke-width:3.125;" x1="47328.125" x2="56265.625" y1="53498.999" y2="53498.999"/><ellipse cx="47359.375" cy="54038.3423" fill="none" rx="9.375" ry="9.375" style="stroke:#1A78C2;stroke-width:3.125;"/><text fill="#FFFFFF" font-family="Consolas" font-size="625" lengthAdjust="spacing" textLength="6875" x="47734.375" y="54238.7329">id_detail : INT &#171;PK&#187;</text><line style="stroke:#2196F3;stroke-width:3.125;" x1="47328.125" x2="56265.625" y1="54568.3105" y2="54568.3105"/><text fill="#FFFFFF" font-family="Consolas" font-size="625" lengthAdjust="spacing" textLength="7906.25" x="47500" y="55308.0444">id_transaksi : INT &#171;FK&#187;</text><text fill="#FFFFFF" font-family="Consolas" font-size="625" lengthAdjust="spacing" textLength="6875" x="47500" y="56352.356">id_produk : INT &#171;FK&#187;</text><text fill="#FFFFFF" font-family="Consolas" font-size="625" lengthAdjust="spacing" textLength="4125" x="47500" y="57396.6675">jumlah : INT</text><text fill="#FFFFFF" font-family="Consolas" font-size="625" lengthAdjust="spacing" textLength="6875" x="47500" y="58440.979">harga_awal : DECIMAL</text><text fill="#FFFFFF" font-family="Consolas" font-size="625" lengthAdjust="spacing" textLength="6875" x="47500" y="59485.2905">harga_jual : DECIMAL</text><text fill="#FFFFFF" font-family="Consolas" font-size="625" lengthAdjust="spacing" textLength="8593.75" x="47500" y="60529.6021">total_penjualan : DECIMAL</text><text fill="#FFFFFF" font-family="Consolas" font-size="625" lengthAdjust="spacing" textLength="7218.75" x="47500" y="61573.9136">total_modal : DECIMAL</text><text fill="#FFFFFF" font-family="Consolas" font-size="625" lengthAdjust="spacing" textLength="6531.25" x="47500" y="62618.2251">laba_rugi : DECIMAL</text><text fill="#FFFFFF" font-family="Consolas" font-size="625" lengthAdjust="spacing" textLength="7218.75" x="47500" y="63662.5366">created_at : DATETIME</text></g><!--class pricelist--><g id="elem_pricelist"><rect codeLine="170" fill="url(#glocw1pkts96n0)" height="6347.1191" id="pricelist" rx="12.5" ry="12.5" style="stroke:#2196F3;stroke-width:3.125;" width="8490.625" x="31335.9375" y="22553.125"/><rect fill="url(#glocw1pkts96n1)" height="1075.5615" rx="12.5" ry="12.5" style="stroke:url(#glocw1pkts96n1);stroke-width:3.125;" width="8490.625" x="31335.9375" y="22553.125"/><rect fill="url(#glocw1pkts96n1)" height="12.5" style="stroke:url(#glocw1pkts96n1);stroke-width:3.125;" width="8490.625" x="31335.9375" y="23616.1865"/><rect codeLine="170" fill="none" height="6347.1191" id="pricelist" rx="12.5" ry="12.5" style="stroke:#2196F3;stroke-width:3.125;" width="8490.625" x="31335.9375" y="22553.125"/><ellipse cx="33817.1875" cy="23090.9058" fill="none" rx="225" ry="225" style="stroke:#1A78C2;stroke-width:3.125;"/><path d="M33895.9473,22967.7124 L33895.9473,23059.6069 L34055.5664,23059.6069 L34055.5664,23025.7202 Q34055.5664,23003.1128 34064.2578,22993.5425 Q34072.9492,22983.9233 34087.0117,22983.9233 Q34100.7324,22983.9233 34109.4238,22993.5425 Q34118.1152,23003.1128 34118.1152,23025.7202 L34118.1152,23122.1558 L33823.6328,23122.1558 Q33801.0254,23122.1558 33791.4063,23113.4644 Q33781.8359,23104.7729 33781.8359,23090.7104 Q33781.8359,23076.9897 33791.6016,23068.2983 Q33801.3672,23059.6069 33823.6328,23059.6069 L33833.3984,23059.6069 L33833.3984,22814.8315 L33823.6328,22814.8315 Q33801.0254,22814.8315 33791.4063,22806.1401 Q33781.8359,22797.4487 33781.8359,22783.3862 Q33781.8359,22769.3726 33791.4063,22760.6812 Q33801.0254,22751.9897 33823.6328,22751.9897 L34104.3945,22752.2827 L34104.3945,22847.4976 Q34104.3945,22869.7632 34095.8496,22879.3823 Q34087.3047,22889.0015 34073.2422,22889.0015 Q34059.2285,22889.0015 34050.5371,22879.5288 Q34041.8457,22870.0562 34041.8457,22847.4976 L34041.8457,22814.8315 L33895.9473,22814.8315 L33895.9473,22905.1636 L33950.8789,22905.1636 Q33950.8789,22880.7495 33955.4688,22873.7183 Q33964.9414,22858.7769 33982.3242,22858.7769 Q33996.0449,22858.7769 34004.7363,22868.396 Q34013.4277,22878.0151 34013.4277,22900.5737 L34013.4277,22972.5952 Q34013.4277,22993.0542 34008.5449,23000.0854 Q33998.7793,23014.4409 33982.3242,23014.4409 Q33964.9414,23014.4409 33955.4688,22999.4507 Q33950.8789,22992.4683 33950.8789,22967.7124 L33895.9473,22967.7124 Z " fill="#FFFFFF"/><text fill="#FFFFFF" font-family="Consolas" font-size="625" lengthAdjust="spacing" textLength="3093.75" x="34323.4375" y="23295.9839">pricelist</text><line style="stroke:#2196F3;stroke-width:3.125;" x1="31339.0625" x2="39823.4375" y1="23628.6865" y2="23628.6865"/><ellipse cx="31370.3125" cy="24168.0298" fill="none" rx="9.375" ry="9.375" style="stroke:#1A78C2;stroke-width:3.125;"/><text fill="#FFFFFF" font-family="Consolas" font-size="625" lengthAdjust="spacing" textLength="7906.25" x="31745.3125" y="24368.4204">id_pricelist : INT &#171;PK&#187;</text><line style="stroke:#2196F3;stroke-width:3.125;" x1="31339.0625" x2="39823.4375" y1="24697.998" y2="24697.998"/><text fill="#FFFFFF" font-family="Consolas" font-size="625" lengthAdjust="spacing" textLength="7562.5" x="31510.9375" y="25437.7319">service : VARCHAR(100)</text><text fill="#FFFFFF" font-family="Consolas" font-size="625" lengthAdjust="spacing" textLength="5843.75" x="31510.9375" y="26482.0435">keterangan : TEXT</text><text fill="#FFFFFF" font-family="Consolas" font-size="625" lengthAdjust="spacing" textLength="5156.25" x="31510.9375" y="27526.355">harga : DECIMAL</text><text fill="#FFFFFF" font-family="Consolas" font-size="625" lengthAdjust="spacing" textLength="7218.75" x="31510.9375" y="28570.6665">created_at : DATETIME</text></g><!--class komisi_setting--><g id="elem_komisi_setting"><rect codeLine="179" fill="url(#glocw1pkts96n0)" height="5302.8076" id="komisi_setting" rx="12.5" ry="12.5" style="stroke:#2196F3;stroke-width:3.125;" width="9975" x="46809.375" y="53.125"/><rect fill="url(#glocw1pkts96n1)" height="1075.5615" rx="12.5" ry="12.5" style="stroke:url(#glocw1pkts96n1);stroke-width:3.125;" width="9975" x="46809.375" y="53.125"/><rect fill="url(#glocw1pkts96n1)" height="12.5" style="stroke:url(#glocw1pkts96n1);stroke-width:3.125;" width="9975" x="46809.375" y="1116.1865"/><rect codeLine="179" fill="none" height="5302.8076" id="komisi_setting" rx="12.5" ry="12.5" style="stroke:#2196F3;stroke-width:3.125;" width="9975" x="46809.375" y="53.125"/><ellipse cx="49173.4375" cy="590.9058" fill="none" rx="225" ry="225" style="stroke:#1A78C2;stroke-width:3.125;"/><path d="M49252.1973,467.7124 L49252.1973,559.6069 L49411.8164,559.6069 L49411.8164,525.7202 Q49411.8164,503.1128 49420.5078,493.5425 Q49429.1992,483.9233 49443.2617,483.9233 Q49456.9824,483.9233 49465.6738,493.5425 Q49474.3652,503.1128 49474.3652,525.7202 L49474.3652,622.1558 L49179.8828,622.1558 Q49157.2754,622.1558 49147.6563,613.4644 Q49138.0859,604.7729 49138.0859,590.7104 Q49138.0859,576.9897 49147.8516,568.2983 Q49157.6172,559.6069 49179.8828,559.6069 L49189.6484,559.6069 L49189.6484,314.8315 L49179.8828,314.8315 Q49157.2754,314.8315 49147.6563,306.1401 Q49138.0859,297.4487 49138.0859,283.3862 Q49138.0859,269.3726 49147.6563,260.6812 Q49157.2754,251.9897 49179.8828,251.9897 L49460.6445,252.2827 L49460.6445,347.4976 Q49460.6445,369.7632 49452.0996,379.3823 Q49443.5547,389.0015 49429.4922,389.0015 Q49415.4785,389.0015 49406.7871,379.5288 Q49398.0957,370.0562 49398.0957,347.4976 L49398.0957,314.8315 L49252.1973,314.8315 L49252.1973,405.1636 L49307.1289,405.1636 Q49307.1289,380.7495 49311.7188,373.7183 Q49321.1914,358.7769 49338.5742,358.7769 Q49352.2949,358.7769 49360.9863,368.396 Q49369.6777,378.0151 49369.6777,400.5737 L49369.6777,472.5952 Q49369.6777,493.0542 49364.7949,500.0854 Q49355.0293,514.4409 49338.5742,514.4409 Q49321.1914,514.4409 49311.7188,499.4507 Q49307.1289,492.4683 49307.1289,467.7124 L49252.1973,467.7124 Z " fill="#FFFFFF"/><text fill="#FFFFFF" font-family="Consolas" font-size="625" lengthAdjust="spacing" textLength="4812.5" x="49679.6875" y="795.9839">komisi_setting</text><line style="stroke:#2196F3;stroke-width:3.125;" x1="46812.5" x2="56781.25" y1="1128.6865" y2="1128.6865"/><ellipse cx="46843.75" cy="1668.0298" fill="none" rx="9.375" ry="9.375" style="stroke:#1A78C2;stroke-width:3.125;"/><text fill="#FFFFFF" font-family="Consolas" font-size="625" lengthAdjust="spacing" textLength="7218.75" x="47218.75" y="1868.4204">id_setting : INT &#171;PK&#187;</text><line style="stroke:#2196F3;stroke-width:3.125;" x1="46812.5" x2="56781.25" y1="2197.998" y2="2197.998"/><text fill="#FFFFFF" font-family="Consolas" font-size="625" lengthAdjust="spacing" textLength="7218.75" x="46984.375" y="2937.7319">id_capster : INT &#171;FK&#187;</text><text fill="#FFFFFF" font-family="Consolas" font-size="625" lengthAdjust="spacing" textLength="9625" x="46984.375" y="3982.0435">persentase_capster : DECIMAL</text><text fill="#FFFFFF" font-family="Consolas" font-size="625" lengthAdjust="spacing" textLength="7218.75" x="46984.375" y="5026.355">updated_at : DATETIME</text></g><!--class gaji_setting--><g id="elem_gaji_setting"><rect codeLine="187" fill="url(#glocw1pkts96n0)" height="7391.4307" id="gaji_setting" rx="12.5" ry="12.5" style="stroke:#2196F3;stroke-width:3.125;" width="9521.875" x="47035.9375" y="5981.25"/><rect fill="url(#glocw1pkts96n1)" height="1075.5615" rx="12.5" ry="12.5" style="stroke:url(#glocw1pkts96n1);stroke-width:3.125;" width="9521.875" x="47035.9375" y="5981.25"/><rect fill="url(#glocw1pkts96n1)" height="12.5" style="stroke:url(#glocw1pkts96n1);stroke-width:3.125;" width="9521.875" x="47035.9375" y="7044.3115"/><rect codeLine="187" fill="none" height="7391.4307" id="gaji_setting" rx="12.5" ry="12.5" style="stroke:#2196F3;stroke-width:3.125;" width="9521.875" x="47035.9375" y="5981.25"/><ellipse cx="49517.1875" cy="6519.0308" fill="none" rx="225" ry="225" style="stroke:#1A78C2;stroke-width:3.125;"/><path d="M49595.9473,6395.8374 L49595.9473,6487.7319 L49755.5664,6487.7319 L49755.5664,6453.8452 Q49755.5664,6431.2378 49764.2578,6421.6675 Q49772.9492,6412.0483 49787.0117,6412.0483 Q49800.7324,6412.0483 49809.4238,6421.6675 Q49818.1152,6431.2378 49818.1152,6453.8452 L49818.1152,6550.2808 L49523.6328,6550.2808 Q49501.0254,6550.2808 49491.4063,6541.5894 Q49481.8359,6532.8979 49481.8359,6518.8354 Q49481.8359,6505.1147 49491.6016,6496.4233 Q49501.3672,6487.7319 49523.6328,6487.7319 L49533.3984,6487.7319 L49533.3984,6242.9565 L49523.6328,6242.9565 Q49501.0254,6242.9565 49491.4063,6234.2651 Q49481.8359,6225.5737 49481.8359,6211.5112 Q49481.8359,6197.4976 49491.4063,6188.8062 Q49501.0254,6180.1147 49523.6328,6180.1147 L49804.3945,6180.4077 L49804.3945,6275.6226 Q49804.3945,6297.8882 49795.8496,6307.5073 Q49787.3047,6317.1265 49773.2422,6317.1265 Q49759.2285,6317.1265 49750.5371,6307.6538 Q49741.8457,6298.1812 49741.8457,6275.6226 L49741.8457,6242.9565 L49595.9473,6242.9565 L49595.9473,6333.2886 L49650.8789,6333.2886 Q49650.8789,6308.8745 49655.4688,6301.8433 Q49664.9414,6286.9019 49682.3242,6286.9019 Q49696.0449,6286.9019 49704.7363,6296.521 Q49713.4277,6306.1401 49713.4277,6328.6987 L49713.4277,6400.7202 Q49713.4277,6421.1792 49708.5449,6428.2104 Q49698.7793,6442.5659 49682.3242,6442.5659 Q49664.9414,6442.5659 49655.4688,6427.5757 Q49650.8789,6420.5933 49650.8789,6395.8374 L49595.9473,6395.8374 Z " fill="#FFFFFF"/><text fill="#FFFFFF" font-family="Consolas" font-size="625" lengthAdjust="spacing" textLength="4125" x="50023.4375" y="6724.1089">gaji_setting</text><line style="stroke:#2196F3;stroke-width:3.125;" x1="47039.0625" x2="56554.6875" y1="7056.8115" y2="7056.8115"/><ellipse cx="47070.3125" cy="7596.1548" fill="none" rx="9.375" ry="9.375" style="stroke:#1A78C2;stroke-width:3.125;"/><text fill="#FFFFFF" font-family="Consolas" font-size="625" lengthAdjust="spacing" textLength="8937.5" x="47445.3125" y="7796.5454">id_gaji_setting : INT &#171;PK&#187;</text><line style="stroke:#2196F3;stroke-width:3.125;" x1="47039.0625" x2="56554.6875" y1="8126.123" y2="8126.123"/><text fill="#FFFFFF" font-family="Consolas" font-size="625" lengthAdjust="spacing" textLength="7218.75" x="47210.9375" y="8865.8569">id_capster : INT &#171;FK&#187;</text><text fill="#FFFFFF" font-family="Consolas" font-size="625" lengthAdjust="spacing" textLength="6187.5" x="47210.9375" y="9910.1685">id_user : INT &#171;FK&#187;</text><text fill="#FFFFFF" font-family="Consolas" font-size="625" lengthAdjust="spacing" textLength="6875" x="47210.9375" y="10954.48">gaji_pokok : DECIMAL</text><text fill="#FFFFFF" font-family="Consolas" font-size="625" lengthAdjust="spacing" textLength="4812.5" x="47210.9375" y="11998.7915">periode : ENUM</text><text fill="#FFFFFF" font-family="Consolas" font-size="625" lengthAdjust="spacing" textLength="7218.75" x="47210.9375" y="13043.103">updated_at : DATETIME</text></g><!--class bonus--><g id="elem_bonus"><rect codeLine="197" fill="url(#glocw1pkts96n0)" height="10524.3652" id="bonus" rx="12.5" ry="12.5" style="stroke:#2196F3;stroke-width:3.125;" width="9287.5" x="47153.125" y="13998.4375"/><rect fill="url(#glocw1pkts96n1)" height="1075.5615" rx="12.5" ry="12.5" style="stroke:url(#glocw1pkts96n1);stroke-width:3.125;" width="9287.5" x="47153.125" y="13998.4375"/><rect fill="url(#glocw1pkts96n1)" height="12.5" style="stroke:url(#glocw1pkts96n1);stroke-width:3.125;" width="9287.5" x="47153.125" y="15061.499"/><rect codeLine="197" fill="none" height="10524.3652" id="bonus" rx="12.5" ry="12.5" style="stroke:#2196F3;stroke-width:3.125;" width="9287.5" x="47153.125" y="13998.4375"/><ellipse cx="50720.3125" cy="14536.2183" fill="none" rx="225" ry="225" style="stroke:#1A78C2;stroke-width:3.125;"/><path d="M50799.0723,14413.0249 L50799.0723,14504.9194 L50958.6914,14504.9194 L50958.6914,14471.0327 Q50958.6914,14448.4253 50967.3828,14438.855 Q50976.0742,14429.2358 50990.1367,14429.2358 Q51003.8574,14429.2358 51012.5488,14438.855 Q51021.2402,14448.4253 51021.2402,14471.0327 L51021.2402,14567.4683 L50726.7578,14567.4683 Q50704.1504,14567.4683 50694.5313,14558.7769 Q50684.9609,14550.0854 50684.9609,14536.0229 Q50684.9609,14522.3022 50694.7266,14513.6108 Q50704.4922,14504.9194 50726.7578,14504.9194 L50736.5234,14504.9194 L50736.5234,14260.144 L50726.7578,14260.144 Q50704.1504,14260.144 50694.5313,14251.4526 Q50684.9609,14242.7612 50684.9609,14228.6987 Q50684.9609,14214.6851 50694.5313,14205.9937 Q50704.1504,14197.3022 50726.7578,14197.3022 L51007.5195,14197.5952 L51007.5195,14292.8101 Q51007.5195,14315.0757 50998.9746,14324.6948 Q50990.4297,14334.314 50976.3672,14334.314 Q50962.3535,14334.314 50953.6621,14324.8413 Q50944.9707,14315.3687 50944.9707,14292.8101 L50944.9707,14260.144 L50799.0723,14260.144 L50799.0723,14350.4761 L50854.0039,14350.4761 Q50854.0039,14326.062 50858.5938,14319.0308 Q50868.0664,14304.0894 50885.4492,14304.0894 Q50899.1699,14304.0894 50907.8613,14313.7085 Q50916.5527,14323.3276 50916.5527,14345.8862 L50916.5527,14417.9077 Q50916.5527,14438.3667 50911.6699,14445.3979 Q50901.9043,14459.7534 50885.4492,14459.7534 Q50868.0664,14459.7534 50858.5938,14444.7632 Q50854.0039,14437.7808 50854.0039,14413.0249 L50799.0723,14413.0249 Z " fill="#FFFFFF"/><text fill="#FFFFFF" font-family="Consolas" font-size="625" lengthAdjust="spacing" textLength="1718.75" x="51226.5625" y="14741.2964">bonus</text><line style="stroke:#2196F3;stroke-width:3.125;" x1="47156.25" x2="56437.5" y1="15073.999" y2="15073.999"/><ellipse cx="47187.5" cy="15613.3423" fill="none" rx="9.375" ry="9.375" style="stroke:#1A78C2;stroke-width:3.125;"/><text fill="#FFFFFF" font-family="Consolas" font-size="625" lengthAdjust="spacing" textLength="6531.25" x="47562.5" y="15813.7329">id_bonus : INT &#171;PK&#187;</text><line style="stroke:#2196F3;stroke-width:3.125;" x1="47156.25" x2="56437.5" y1="16143.3105" y2="16143.3105"/><text fill="#FFFFFF" font-family="Consolas" font-size="625" lengthAdjust="spacing" textLength="7218.75" x="47328.125" y="16883.0444">id_capster : INT &#171;FK&#187;</text><text fill="#FFFFFF" font-family="Consolas" font-size="625" lengthAdjust="spacing" textLength="6187.5" x="47328.125" y="17927.356">id_user : INT &#171;FK&#187;</text><text fill="#FFFFFF" font-family="Consolas" font-size="625" lengthAdjust="spacing" textLength="8937.5" x="47328.125" y="18971.6675">judul_bonus : VARCHAR(100)</text><text fill="#FFFFFF" font-family="Consolas" font-size="625" lengthAdjust="spacing" textLength="5500" x="47328.125" y="20015.979">jumlah : DECIMAL</text><text fill="#FFFFFF" font-family="Consolas" font-size="625" lengthAdjust="spacing" textLength="5843.75" x="47328.125" y="21060.2905">keterangan : TEXT</text><text fill="#FFFFFF" font-family="Consolas" font-size="625" lengthAdjust="spacing" textLength="8250" x="47328.125" y="22104.6021">tanggal_diberikan : DATE</text><text fill="#FFFFFF" font-family="Consolas" font-size="625" lengthAdjust="spacing" textLength="5843.75" x="47328.125" y="23148.9136">periode : CHAR(7)</text><text fill="#FFFFFF" font-family="Consolas" font-size="625" lengthAdjust="spacing" textLength="7218.75" x="47328.125" y="24193.2251">created_at : DATETIME</text></g><!--link store to capster--><g id="link_store_capster"><path codeLine="213" d="M22089.9473,36024.6023 C22284.1661,35870.2586 22453.7188,35728.7813 22634.375,35570.3125 C26504.625,32175.1562 28236.6875,31601.0313 30296.875,26882.8125 C31126.9687,24981.75 29791.9688,24070.7187 30765.625,22239.0625 C30821.5938,22133.7813 30851.8142,22077.8767 30915.408,21975.9704 " fill="none" id="store-capster" style="stroke:#FFFFFF;stroke-width:93.75;"/><line style="stroke:#FFFFFF;stroke-width:93.75;" x1="22087.9381" x2="22072.3842" y1="36042.1654" y2="36022.5931"/><line style="stroke:#FFFFFF;stroke-width:93.75;" x1="22095.2777" x2="22079.7238" y1="36036.3327" y2="36016.7604"/><line style="stroke:#FFFFFF;stroke-width:93.75;" x1="22089.9473" x2="22070.375" y1="36024.6023" y2="36040.1563"/><line style="stroke:#FFFFFF;stroke-width:93.75;" x1="30931.9521" x2="30929.2807" y1="21949.4591" y2="21918.3235"/><line style="stroke:#FFFFFF;stroke-width:93.75;" x1="30931.9521" x2="30961.0943" y1="21949.4591" y2="21938.1765"/><line style="stroke:#FFFFFF;stroke-width:93.75;" x1="30931.9521" x2="30945.1875" y1="21949.4591" y2="21928.25"/><ellipse cx="30922.0256" cy="21965.3659" fill="none" rx="12.5" ry="12.5" style="stroke:#FFFFFF;stroke-width:93.75;"/><text fill="#FFFFFF" font-family="Consolas" font-size="625" lengthAdjust="spacing" textLength="2750" x="25325" y="26563.1714">memiliki</text></g><!--link store to stok_produk--><g id="link_store_stok_produk"><path codeLine="214" d="M20506.2831,41362.531 C23030.0331,44009.406 27059.6875,48139.1875 30765.625,51514.0625 C31096.0313,51814.9375 31401.828,52085.7683 31753.828,52390.1745 " fill="none" id="store-stok_produk" style="stroke:#FFFFFF;stroke-width:93.75;"/><line style="stroke:#FFFFFF;stroke-width:93.75;" x1="20488.6104" x2="20506.7039" y1="41362.1102" y2="41344.8583"/><line style="stroke:#FFFFFF;stroke-width:93.75;" x1="20495.0799" x2="20513.1733" y1="41368.8952" y2="41351.6434"/><line style="stroke:#FFFFFF;stroke-width:93.75;" x1="20506.2831" x2="20489.0313" y1="41362.531" y2="41344.4375"/><line style="stroke:#FFFFFF;stroke-width:93.75;" x1="31777.4652" x2="31808.6397" y1="52410.6158" y2="52412.7864"/><line style="stroke:#FFFFFF;stroke-width:93.75;" x1="31777.4652" x2="31784.1103" y1="52410.6158" y2="52441.1511"/><line style="stroke:#FFFFFF;stroke-width:93.75;" x1="31777.4652" x2="31796.375" y1="52410.6158" y2="52426.9688"/><ellipse cx="31763.2829" cy="52398.351" fill="none" rx="12.5" ry="12.5" style="stroke:#FFFFFF;stroke-width:93.75;"/><text fill="#FFFFFF" font-family="Consolas" font-size="625" lengthAdjust="spacing" textLength="4468.75" x="24465.625" y="44013.1714">memiliki_stok</text></g><!--link store to transaksi--><g id="link_store_transaksi"><path codeLine="215" d="M22486.8121,40123.1146 C25849.2809,41198.3646 29917.8437,42510.75 30296.875,42685.9375 C30508.875,42783.9375 30672.7787,42863.0135 30886.8724,42972.6698 " fill="none" id="store-transaksi" style="stroke:#FFFFFF;stroke-width:93.75;"/><line style="stroke:#FFFFFF;stroke-width:93.75;" x1="22471.0987" x2="22478.7134" y1="40131.2134" y2="40107.4013"/><line style="stroke:#FFFFFF;stroke-width:93.75;" x1="22480.0283" x2="22487.6429" y1="40134.0689" y2="40110.2567"/><line style="stroke:#FFFFFF;stroke-width:93.75;" x1="22486.8121" x2="22463" y1="40123.1146" y2="40115.5"/><line style="stroke:#FFFFFF;stroke-width:93.75;" x1="30914.6864" x2="30945.4851" y1="42986.9157" y2="42981.6241"/><line style="stroke:#FFFFFF;stroke-width:93.75;" x1="30914.6864" x2="30928.3899" y1="42986.9157" y2="43015.0009"/><line style="stroke:#FFFFFF;stroke-width:93.75;" x1="30914.6864" x2="30936.9375" y1="42986.9157" y2="42998.3125"/><ellipse cx="30897.998" cy="42978.3682" fill="none" rx="12.5" ry="12.5" style="stroke:#FFFFFF;stroke-width:93.75;"/><text fill="#FFFFFF" font-family="Consolas" font-size="625" lengthAdjust="spacing" textLength="6187.5" x="23606.25" y="40025.6714">melayani_transaksi</text></g><!--link store to pengeluaran--><g id="link_store_pengeluaran"><path codeLine="216" d="M22488.3651,39079.3898 C24866.9276,39146.2335 27786.0313,39003.5938 30296.875,38207.8125 C30529.5,38134.0938 30709.9643,38069.0751 30940.1206,37971.8564 " fill="none" id="store-pengeluaran" style="stroke:#FFFFFF;stroke-width:93.75;"/><line style="stroke:#FFFFFF;stroke-width:93.75;" x1="22475.5189" x2="22476.2212" y1="39091.5337" y2="39066.5436"/><line style="stroke:#FFFFFF;stroke-width:93.75;" x1="22484.8902" x2="22485.5925" y1="39091.7971" y2="39066.8069"/><line style="stroke:#FFFFFF;stroke-width:93.75;" x1="22488.3651" x2="22463.375" y1="39079.3898" y2="39078.6875"/><line style="stroke:#FFFFFF;stroke-width:93.75;" x1="30968.9078" x2="30984.6416" y1="37959.6966" y2="37932.6964"/><line style="stroke:#FFFFFF;stroke-width:93.75;" x1="30968.9078" x2="30999.2334" y1="37959.6966" y2="37967.2411"/><line style="stroke:#FFFFFF;stroke-width:93.75;" x1="30968.9078" x2="30991.9375" y1="37959.6966" y2="37949.9688"/><ellipse cx="30951.6354" cy="37966.9925" fill="none" rx="12.5" ry="12.5" style="stroke:#FFFFFF;stroke-width:93.75;"/><text fill="#FFFFFF" font-family="Consolas" font-size="625" lengthAdjust="spacing" textLength="6875" x="23262.5" y="37888.1714">memiliki_pengeluaran</text></g><!--link users to transaksi--><g id="link_users_transaksi"><path codeLine="218" d="M8673.5241,39636.6215 C10091.4303,40756.6527 11707.4063,41883.4062 13346.875,42707.8125 C18938.25,45519.5 26198.7195,46075.6213 30880.8445,46099.3401 " fill="none" id="users-transaksi" style="stroke:#FFFFFF;stroke-width:93.75;"/><line style="stroke:#FFFFFF;stroke-width:93.75;" x1="8655.9669" x2="8671.4634" y1="39638.6822" y2="39619.0643"/><line style="stroke:#FFFFFF;stroke-width:93.75;" x1="8663.3236" x2="8678.8201" y1="39644.4933" y2="39624.8755"/><line style="stroke:#FFFFFF;stroke-width:93.75;" x1="8673.5241" x2="8653.9063" y1="39636.6215" y2="39621.125"/><line style="stroke:#FFFFFF;stroke-width:93.75;" x1="30912.0941" x2="30937.1887" y1="46099.4984" y2="46080.8752"/><line style="stroke:#FFFFFF;stroke-width:93.75;" x1="30912.0941" x2="30936.9988" y1="46099.4984" y2="46118.3748"/><line style="stroke:#FFFFFF;stroke-width:93.75;" x1="30912.0941" x2="30937.0938" y1="46099.4984" y2="46099.625"/><ellipse cx="30893.3443" cy="46099.4034" fill="none" rx="12.5" ry="12.5" style="stroke:#FFFFFF;stroke-width:93.75;"/><text fill="#FFFFFF" font-family="Consolas" font-size="625" lengthAdjust="spacing" textLength="4125" x="15928.125" y="42388.1714">dicatat_oleh</text></g><!--link users to pengeluaran--><g id="link_users_pengeluaran"><path codeLine="219" d="M8678.1399,35604.972 C8836.3587,35599.2532 8968.0313,35594.5313 9121.875,35589.0625 C15335.375,35368.0938 16888.5,35303.7813 23103.125,35117.1875 C25714.6563,35038.7813 28577.8306,34962.8663 30935.5181,34902.96 " fill="none" id="users-pengeluaran" style="stroke:#FFFFFF;stroke-width:93.75;"/><line style="stroke:#FFFFFF;stroke-width:93.75;" x1="8666.0996" x2="8665.1966" y1="35617.9153" y2="35592.9316"/><line style="stroke:#FFFFFF;stroke-width:93.75;" x1="8675.4685" x2="8674.5655" y1="35617.5767" y2="35592.593"/><line style="stroke:#FFFFFF;stroke-width:93.75;" x1="8678.1399" x2="8653.1563" y1="35604.972" y2="35605.875"/><line style="stroke:#FFFFFF;stroke-width:93.75;" x1="30966.7581" x2="30991.2737" y1="34902.1663" y2="34882.7873"/><line style="stroke:#FFFFFF;stroke-width:93.75;" x1="30966.7581" x2="30992.2263" y1="34902.1663" y2="34920.2752"/><line style="stroke:#FFFFFF;stroke-width:93.75;" x1="30966.7581" x2="30991.75" y1="34902.1663" y2="34901.5313"/><ellipse cx="30948.0141" cy="34902.6425" fill="none" rx="12.5" ry="12.5" style="stroke:#FFFFFF;stroke-width:93.75;"/><text fill="#FFFFFF" font-family="Consolas" font-size="625" lengthAdjust="spacing" textLength="2750" x="16615.625" y="34813.1714">mencatat</text></g><!--link users to capster--><g id="link_users_capster"><path codeLine="220" d="M8675.2977,33341.602 C14465.829,30089.602 24699.1085,24342.523 30743.046,20948.2105 " fill="none" id="users-capster" style="stroke:#FFFFFF;stroke-width:93.75;"/><line style="stroke:#FFFFFF;stroke-width:93.75;" x1="8670.5197" x2="8658.278" y1="33358.6217" y2="33336.824"/><line style="stroke:#FFFFFF;stroke-width:93.75;" x1="8678.6939" x2="8666.4521" y1="33354.0311" y2="33332.2334"/><line style="stroke:#FFFFFF;stroke-width:93.75;" x1="8675.2977" x2="8653.5" y1="33341.602" y2="33353.8438"/><line style="stroke:#FFFFFF;stroke-width:93.75;" x1="30747.824" x2="30760.0658" y1="20931.1908" y2="20952.9885"/><line style="stroke:#FFFFFF;stroke-width:93.75;" x1="30739.6499" x2="30751.8916" y1="20935.7814" y2="20957.5791"/><line style="stroke:#FFFFFF;stroke-width:93.75;" x1="30743.046" x2="30764.8438" y1="20948.2105" y2="20935.9688"/><text fill="#FFFFFF" font-family="Consolas" font-size="625" lengthAdjust="spacing" textLength="3093.75" x="16443.75" y="25225.6714">terhubung</text></g><!--link users to store--><g id="link_users_store"><path codeLine="221" d="M8678.5061,36694.6513 C10227.9123,37027.1201 11930.4314,37392.4737 13494.1189,37728.005 " fill="none" id="users-store" style="stroke:#FFFFFF;stroke-width:93.75;"/><line style="stroke:#FFFFFF;stroke-width:93.75;" x1="8663.6618" x2="8668.9068" y1="36704.2506" y2="36679.807"/><line style="stroke:#FFFFFF;stroke-width:93.75;" x1="8672.8281" x2="8678.0732" y1="36706.2175" y2="36681.7739"/><line style="stroke:#FFFFFF;stroke-width:93.75;" x1="8678.5061" x2="8654.0625" y1="36694.6513" y2="36689.4063"/><line style="stroke:#FFFFFF;stroke-width:93.75;" x1="13508.9632" x2="13503.7182" y1="37718.4057" y2="37742.8493"/><line style="stroke:#FFFFFF;stroke-width:93.75;" x1="13499.7969" x2="13494.5518" y1="37716.4388" y2="37740.8824"/><line style="stroke:#FFFFFF;stroke-width:93.75;" x1="13494.1189" x2="13518.5625" y1="37728.005" y2="37733.25"/><text fill="#FFFFFF" font-family="Consolas" font-size="625" lengthAdjust="spacing" textLength="3437.5" x="9281.25" y="36475.6714">bekerja_di</text></g><!--link capster to komisi_setting--><g id="link_capster_komisi_setting"><path codeLine="223" d="M38293.7652,14517.1493 C40396.5152,11816.5555 43494.0625,8215.75 46809.375,5667.1875 C46945.3125,5562.6875 47039.5057,5491.8213 47182.2557,5389.2588 " fill="none" id="capster-komisi_setting" style="stroke:#FFFFFF;stroke-width:93.75;"/><line style="stroke:#FFFFFF;stroke-width:93.75;" x1="38295.9486" x2="38276.2229" y1="14534.6916" y2="14519.3327"/><line style="stroke:#FFFFFF;stroke-width:93.75;" x1="38301.7082" x2="38281.9825" y1="14527.2945" y2="14511.9355"/><line style="stroke:#FFFFFF;stroke-width:93.75;" x1="38293.7652" x2="38278.4063" y1="14517.1493" y2="14536.875"/><line style="stroke:#FFFFFF;stroke-width:93.75;" x1="47207.6345" x2="47216.9971" y1="5371.0247" y2="5341.2102"/><line style="stroke:#FFFFFF;stroke-width:93.75;" x1="47207.6345" x2="47238.8779" y1="5371.0247" y2="5371.6648"/><line style="stroke:#FFFFFF;stroke-width:93.75;" x1="47207.6345" x2="47227.9375" y1="5371.0247" y2="5356.4375"/><ellipse cx="47192.4072" cy="5381.9652" fill="none" rx="12.5" ry="12.5" style="stroke:#FFFFFF;stroke-width:93.75;"/><text fill="#FFFFFF" font-family="Consolas" font-size="625" lengthAdjust="spacing" textLength="5156.25" x="41025" y="5913.1714">memiliki_komisi</text></g><!--link capster to gaji_setting--><g id="link_capster_gaji_setting"><path codeLine="224" d="M40419.1089,15680.7672 C42515.8589,14573.9859 44894.9428,13318.165 46985.5365,12214.6025 " fill="none" id="capster-gaji_setting" style="stroke:#FFFFFF;stroke-width:93.75;"/><line style="stroke:#FFFFFF;stroke-width:93.75;" x1="40413.8896" x2="40402.2193" y1="15697.6568" y2="15675.5479"/><line style="stroke:#FFFFFF;stroke-width:93.75;" x1="40422.1805" x2="40410.5101" y1="15693.2804" y2="15671.1715"/><line style="stroke:#FFFFFF;stroke-width:93.75;" x1="40419.1089" x2="40397" y1="15680.7672" y2="15692.4375"/><line style="stroke:#FFFFFF;stroke-width:93.75;" x1="47013.1725" x2="47026.5283" y1="12200.0143" y2="12171.7622"/><line style="stroke:#FFFFFF;stroke-width:93.75;" x1="47013.1725" x2="47044.0342" y1="12200.0143" y2="12204.9253"/><line style="stroke:#FFFFFF;stroke-width:93.75;" x1="47013.1725" x2="47035.2813" y1="12200.0143" y2="12188.3438"/><ellipse cx="46996.5909" cy="12208.7672" fill="none" rx="12.5" ry="12.5" style="stroke:#FFFFFF;stroke-width:93.75;"/><text fill="#FFFFFF" font-family="Consolas" font-size="625" lengthAdjust="spacing" textLength="4468.75" x="41368.75" y="12369.4214">memiliki_gaji</text></g><!--link capster to bonus--><g id="link_capster_bonus"><path codeLine="225" d="M40421.9499,18539.6451 C42558.0749,18675.1451 44980.7378,18828.8147 47096.5503,18963.0022 " fill="none" id="capster-bonus" style="stroke:#FFFFFF;stroke-width:93.75;"/><line style="stroke:#FFFFFF;stroke-width:93.75;" x1="40408.6836" x2="40410.2662" y1="18551.3287" y2="18526.3789"/><line style="stroke:#FFFFFF;stroke-width:93.75;" x1="40418.0398" x2="40419.6224" y1="18551.9222" y2="18526.9724"/><line style="stroke:#FFFFFF;stroke-width:93.75;" x1="40421.9499" x2="40397" y1="18539.6451" y2="18538.0625"/><line style="stroke:#FFFFFF;stroke-width:93.75;" x1="47127.7376" x2="47153.8743" y1="18964.9801" y2="18947.8501"/><line style="stroke:#FFFFFF;stroke-width:93.75;" x1="47127.7376" x2="47151.5007" y1="18964.9801" y2="18985.2749"/><line style="stroke:#FFFFFF;stroke-width:93.75;" x1="47127.7376" x2="47152.6875" y1="18964.9801" y2="18966.5625"/><ellipse cx="47109.0252" cy="18963.7934" fill="none" rx="12.5" ry="12.5" style="stroke:#FFFFFF;stroke-width:93.75;"/><text fill="#FFFFFF" font-family="Consolas" font-size="625" lengthAdjust="spacing" textLength="4812.5" x="41196.875" y="18275.6714">mendapat_bonus</text></g><!--link capster to transaksi_service_detail--><g id="link_capster_transaksi_service_detail"><path codeLine="226" d="M40417.2969,21708.1895 C42438.7969,23161.877 44723.5507,24804.8471 46763.1757,26271.5658 " fill="none" id="capster-transaksi_service_detail" style="stroke:#FFFFFF;stroke-width:93.75;"/><line style="stroke:#FFFFFF;stroke-width:93.75;" x1="40399.8506" x2="40414.4463" y1="21711.0401" y2="21690.7432"/><line style="stroke:#FFFFFF;stroke-width:93.75;" x1="40407.4619" x2="40422.0577" y1="21716.5135" y2="21696.2166"/><line style="stroke:#FFFFFF;stroke-width:93.75;" x1="40417.2969" x2="40397" y1="21708.1895" y2="21693.5938"/><line style="stroke:#FFFFFF;stroke-width:93.75;" x1="46788.5468" x2="46819.7906" y1="26289.8105" y2="26289.1836"/><line style="stroke:#FFFFFF;stroke-width:93.75;" x1="46788.5468" x2="46797.8969" y1="26289.8105" y2="26319.6289"/><line style="stroke:#FFFFFF;stroke-width:93.75;" x1="46788.5468" x2="46808.8438" y1="26289.8105" y2="26304.4063"/><ellipse cx="46773.3242" cy="26278.8637" fill="none" rx="12.5" ry="12.5" style="stroke:#FFFFFF;stroke-width:93.75;"/><text fill="#FFFFFF" font-family="Consolas" font-size="625" lengthAdjust="spacing" textLength="2750" x="42228.125" y="22016.2964">melayani</text></g><!--link produk to stok_produk--><g id="link_produk_stok_produk"><path codeLine="228" d="M22659.8457,58305.9233 C25518.7832,57690.1108 29058.1361,56927.7817 31741.8861,56349.7192 " fill="none" id="produk-stok_produk" style="stroke:#FFFFFF;stroke-width:93.75;"/><line style="stroke:#FFFFFF;stroke-width:93.75;" x1="22650.2581" x2="22644.9939" y1="58320.7751" y2="58296.3356"/><line style="stroke:#FFFFFF;stroke-width:93.75;" x1="22659.4229" x2="22654.1587" y1="58318.801" y2="58294.3616"/><line style="stroke:#FFFFFF;stroke-width:93.75;" x1="22659.8457" x2="22635.4063" y1="58305.9233" y2="58311.1875"/><line style="stroke:#FFFFFF;stroke-width:93.75;" x1="31772.4355" x2="31792.9269" y1="56343.1391" y2="56319.5454"/><line style="stroke:#FFFFFF;stroke-width:93.75;" x1="31772.4355" x2="31800.8231" y1="56343.1391" y2="56356.2046"/><line style="stroke:#FFFFFF;stroke-width:93.75;" x1="31772.4355" x2="31796.875" y1="56343.1391" y2="56337.875"/><ellipse cx="31754.1059" cy="56347.0872" fill="none" rx="12.5" ry="12.5" style="stroke:#FFFFFF;stroke-width:93.75;"/><text fill="#FFFFFF" font-family="Consolas" font-size="625" lengthAdjust="spacing" textLength="3781.25" x="24809.375" y="56428.7964">tersedia_di</text></g><!--link produk to transaksi_produk_detail--><g id="link_produk_transaksi_produk_detail"><path codeLine="229" d="M22659.7067,60007.6837 C27197.3317,60584.4649 34272.9063,61214.125 40396.875,60582.8125 C42705.4688,60344.8125 45181.2195,59855.1384 47270.1257,59373.4822 " fill="none" id="produk-transaksi_produk_detail" style="stroke:#FFFFFF;stroke-width:93.75;"/><line style="stroke:#FFFFFF;stroke-width:93.75;" x1="22645.7303" x2="22648.8827" y1="60018.5077" y2="59993.7072"/><line style="stroke:#FFFFFF;stroke-width:93.75;" x1="22655.0304" x2="22658.1828" y1="60019.6898" y2="59994.8894"/><line style="stroke:#FFFFFF;stroke-width:93.75;" x1="22659.7067" x2="22634.9063" y1="60007.6837" y2="60004.5313"/><line style="stroke:#FFFFFF;stroke-width:93.75;" x1="47300.5767" x2="47320.7247" y1="59366.4608" y2="59342.5732"/><line style="stroke:#FFFFFF;stroke-width:93.75;" x1="47300.5767" x2="47329.1503" y1="59366.4608" y2="59379.1143"/><line style="stroke:#FFFFFF;stroke-width:93.75;" x1="47300.5767" x2="47324.9375" y1="59366.4608" y2="59360.8438"/><ellipse cx="47282.3061" cy="59370.6736" fill="none" rx="12.5" ry="12.5" style="stroke:#FFFFFF;stroke-width:93.75;"/><text fill="#FFFFFF" font-family="Consolas" font-size="625" lengthAdjust="spacing" textLength="4468.75" x="33346.875" y="60263.1714">terjual_dalam</text></g><!--link pricelist to transaksi_service_detail--><g id="link_pricelist_transaksi_service_detail"><path codeLine="231" d="M39851.5268,26822.3433 C41990.8081,27371.7183 44519.8614,28021.1655 46754.2677,28594.9468 " fill="none" id="pricelist-transaksi_service_detail" style="stroke:#FFFFFF;stroke-width:93.75;"/><line style="stroke:#FFFFFF;stroke-width:93.75;" x1="39836.3105" x2="39842.5288" y1="26831.3413" y2="26807.127"/><line style="stroke:#FFFFFF;stroke-width:93.75;" x1="39845.3909" x2="39851.6092" y1="26833.6732" y2="26809.4589"/><line style="stroke:#FFFFFF;stroke-width:93.75;" x1="39851.5268" x2="39827.3125" y1="26822.3433" y2="26816.125"/><line style="stroke:#FFFFFF;stroke-width:93.75;" x1="46784.5356" x2="46813.4136" y1="28602.7194" y2="28590.7767"/><line style="stroke:#FFFFFF;stroke-width:93.75;" x1="46784.5356" x2="46804.0864" y1="28602.7194" y2="28627.0983"/><line style="stroke:#FFFFFF;stroke-width:93.75;" x1="46784.5356" x2="46808.75" y1="28602.7194" y2="28608.9375"/><ellipse cx="46766.3749" cy="28598.0558" fill="none" rx="12.5" ry="12.5" style="stroke:#FFFFFF;stroke-width:93.75;"/><text fill="#FFFFFF" font-family="Consolas" font-size="625" lengthAdjust="spacing" textLength="4812.5" x="41196.875" y="26872.5464">digunakan_pada</text></g><!--link transaksi to transaksi_service_detail--><g id="link_transaksi_transaksi_service_detail"><path codeLine="233" d="M40243.0149,41326.2225 C42367.0461,39223.0975 44824.2795,36790.0155 46965.842,34669.4843 " fill="none" id="transaksi-transaksi_service_detail" style="stroke:#FFFFFF;stroke-width:93.75;"/><line style="stroke:#FFFFFF;stroke-width:93.75;" x1="40242.9275" x2="40225.3374" y1="41343.8999" y2="41326.135"/><line style="stroke:#FFFFFF;stroke-width:93.75;" x1="40249.5893" x2="40231.9993" y1="41337.3037" y2="41319.5388"/><line style="stroke:#FFFFFF;stroke-width:93.75;" x1="40243.0149" x2="40225.25" y1="41326.2225" y2="41343.8125"/><line style="stroke:#FFFFFF;stroke-width:93.75;" x1="46988.0478" x2="46992.6198" y1="34647.4965" y2="34616.5827"/><line style="stroke:#FFFFFF;stroke-width:93.75;" x1="46988.0478" x2="47019.0052" y1="34647.4965" y2="34643.2298"/><line style="stroke:#FFFFFF;stroke-width:93.75;" x1="46988.0478" x2="47005.8125" y1="34647.4965" y2="34629.9063"/><ellipse cx="46974.7243" cy="34660.6891" fill="none" rx="12.5" ry="12.5" style="stroke:#FFFFFF;stroke-width:93.75;"/><text fill="#FFFFFF" font-family="Consolas" font-size="625" lengthAdjust="spacing" textLength="4812.5" x="41196.875" y="35216.2964">detail_service</text></g><!--link transaksi to transaksi_produk_detail--><g id="link_transaksi_transaksi_produk_detail"><path codeLine="234" d="M40245.1839,49466.8065 C42475.6214,51154.994 45072.399,53120.4585 47279.9615,54791.3647 " fill="none" id="transaksi-transaksi_produk_detail" style="stroke:#FFFFFF;stroke-width:93.75;"/><line style="stroke:#FFFFFF;stroke-width:93.75;" x1="40227.6731" x2="40242.7608" y1="49469.2296" y2="49449.2956"/><line style="stroke:#FFFFFF;stroke-width:93.75;" x1="40235.1483" x2="40250.236" y1="49474.8875" y2="49454.9535"/><line style="stroke:#FFFFFF;stroke-width:93.75;" x1="40245.1839" x2="40225.25" y1="49466.8065" y2="49451.7188"/><line style="stroke:#FFFFFF;stroke-width:93.75;" x1="47304.8787" x2="47336.1284" y1="54810.2246" y2="54810.3622"/><line style="stroke:#FFFFFF;stroke-width:93.75;" x1="47304.8787" x2="47313.4966" y1="54810.2246" y2="54840.2628"/><line style="stroke:#FFFFFF;stroke-width:93.75;" x1="47304.8787" x2="47324.8125" y1="54810.2246" y2="54825.3125"/><ellipse cx="47289.9284" cy="54798.9087" fill="none" rx="12.5" ry="12.5" style="stroke:#FFFFFF;stroke-width:93.75;"/><text fill="#FFFFFF" font-family="Consolas" font-size="625" lengthAdjust="spacing" textLength="4468.75" x="41368.75" y="49935.0464">detail_produk</text></g><!--link transaksi to struk--><g id="link_transaksi_struk"><path codeLine="235" d="M40250.25,45939.0625 C42480.6875,45939.0625 45092.25,45939.0625 47299.8125,45939.0625 " fill="none" id="transaksi-struk" style="stroke:#FFFFFF;stroke-width:93.75;"/><line style="stroke:#FFFFFF;stroke-width:93.75;" x1="40237.75" x2="40237.75" y1="45951.5625" y2="45926.5625"/><line style="stroke:#FFFFFF;stroke-width:93.75;" x1="40247.125" x2="40247.125" y1="45951.5625" y2="45926.5625"/><line style="stroke:#FFFFFF;stroke-width:93.75;" x1="40250.25" x2="40225.25" y1="45939.0625" y2="45939.0625"/><line style="stroke:#FFFFFF;stroke-width:93.75;" x1="47312.3125" x2="47312.3125" y1="45926.5625" y2="45951.5625"/><line style="stroke:#FFFFFF;stroke-width:93.75;" x1="47302.9375" x2="47302.9375" y1="45926.5625" y2="45951.5625"/><line style="stroke:#FFFFFF;stroke-width:93.75;" x1="47299.8125" x2="47324.8125" y1="45939.0625" y2="45939.0625"/><text fill="#FFFFFF" font-family="Consolas" font-size="625" lengthAdjust="spacing" textLength="4812.5" x="41196.875" y="45619.4214">memiliki_struk</text></g><!--SRC=[hLTjRzis4FwkNy5b7xeD290uSpSCNG4tTHUZZXl4Nh5-4auM8pEII84l3T9c_tqdwesKvTWUuW21UNSyFdVFyOx-GMzeJaaEcae6GV2A_BdxWzhwyzVyqxl9d2nNN-RJFNjKodW14d8ImJfDf30ylXIPaEJ7C_jnB69w1oRJ7mJN2q1O9vU2Av61EXasgltSsS-moP9zesJadN83SSnuGiQky4f8zWtj8MlKhrtrPoerMtVANrtbBV1KqO9SUCSiH4nBgN-u-fhC6KzN81EgIHXbkDTLRo0M3-K9Tv0fwiPKiDu1wEezoobNJF2bVimeqT9Gt-3TZfm71rCzNQncgoz7KasvPlgHV0y8sK8mUdqnklWTFRyY41cY3P2KRjWz6E1ex_4Qn-Dn0mJjDKqLIGqlyvFHF3AQH0maxiVQWdfpopYUBMHCvMh3rYcdIf4BbDrMK2IdafoFWd-3BTWJhIL3ttGBolEc0wLMMLKmMW8eUCLQsmodQSjkFwObNcKgz6FXugzFFPJqs-byiffzMXn9EqWf7Yph_iqanE7W37FURU52q-4wEOVohsNH3sIWJlhq8xCPlTD42o9Pij4aPfAkDLwMusf_DbtkiQ-h_SGeAjK90KNiDnlMBomEonNvWymMA_BcpSt7jszHVdgA_pZaq6W_JsulhoQtFvsVdVsCgbBAonxOQSPMKO1I3vWHHp4QZqkD55bfFbtyVOqhF5Tf8Mbxy8VgO9IleL3QWLHhrfBY68X3qAXvFrbDLxFhQPd69ZxhpyPNUMxYyy_P2h1HzoA439MwrQwc_wmE0L63jp2QG1eW_S2se7G6FJ3FPCjZhnOh3TgeBjbxKHTIn2QreAklBUPwkHDog-yXtk04WH0U82kFd5xEhYVpLdnlUkBz02bFQ6RmJl8APRVke3go8Rn79Z55H0cEtUtOS72caXMATNLnR_8CDbvC6dYIL75YG2Y8JAfPM83UR5-EGuex3HsQdBLRwEcko7iyTg4FfgGAnt5eYmfFX7J3P2ioHVmyQerSA4WLivZRLOkuaxm0OPeLrFDOLtzEDRvrmWWUmRrQ8ykbCf4MkbUETVZDZawHubI7ZDa2Ew9w5Rvy6jgaHvWqEndRpaqT9nUvaEtU9fmB6yuTo-Z_BR7sm12J-vMjQHXJ3IppkUifsrZgvR71sD94TnbJ-l1PODk8nq614mq30KMTFGvn8cU8VKXrH5wgIpIS5a_t8baPkh1jdwaku75TrXPwsIPBJQ-6ArqkujwU3288fKdOaVswuRIUAGt3tLZfS-wcfYwnxSwRKcGF-we5NxVUxLhOYwwk1aMrnhUwXUYBkXjQhtSGkACyznJZthQPmBsFpXMqs3pXSG1tT53hiH2fxVhUtMBOGRkEkZU0I71JFJNjjnPojNeHhFScDbdhi5Sd0-Dug7Jg4Ht6BC8Gq-fALCEwYzdw_UtP3dhOUxtvrRAycjtiUxDNS-_fwVHKV2TTOdAQiuobpDUxRu7Enavltz3jDpdDSBnnrZKXtzP_JRLE7N4GLByZ1fp7R0tu1WtnoR_nhVfkkJLqR9wUd7Zn_yP4XYU-GVCgY6XAvJqWVq7GRAhFwTrd9u9AqxVlNQRMkfJtRPkYG_GnuB2jgh1ljNDYThaFWfgrGI9rsKLYPiFpxNPD7RkdREvXNFvyATqtRNO_g9WbXWDU0dm_n1047Py7xBLV6lbpM_k0wvsLkBVHCYtxHOs2u3y0]--></g></svg>